<?xml version="1.0" standalone="no"?>
<!DOCTYPE svg PUBLIC "-//W3C//DTD SVG 1.1//EN" "http://www.w3.org/Graphics/SVG/1.1/DTD/svg11.dtd" >
<svg xmlns="http://www.w3.org/2000/svg" xmlns:xlink="http://www.w3.org/1999/xlink" version="1.1">
<metadata></metadata>
<defs>
<font id="mexcellent3d" horiz-adv-x="1116" >
<font-face units-per-em="2048" ascent="1661" descent="-387" />
<missing-glyph horiz-adv-x="491" />
<glyph unicode="&#x28;C&#x29;" horiz-adv-x="1826" d="M102 745q0 168 63.5 316.5t174.5 259.5t259.5 174.5t315.5 63.5q113 0 225.5 -36t214 -100.5t189.5 -151.5t151.5 -190.5t100.5 -217t37 -230.5q0 -166 -63.5 -312.5t-173 -256t-256 -173t-312.5 -63.5q-117 0 -231.5 37t-217 100.5t-190.5 151.5t-151.5 189.5 t-99.5 213.5t-36 225zM141 745q0 -160 60.5 -300t166 -245.5t247 -167t300.5 -61.5q160 0 300.5 61.5t246 167t167 246t61.5 299.5q0 160 -61.5 301.5t-167 247t-246 166t-300.5 60.5t-301 -60.5t-246.5 -166t-166 -247t-60.5 -301.5zM184 745q0 152 57.5 286t157 233.5 t232.5 157t284 57.5q150 0 283 -57.5t233.5 -157t158 -233.5t57.5 -286t-57.5 -283.5t-158 -231t-233.5 -157t-283 -57.5q-152 0 -284.5 57.5t-232 157t-157 231t-57.5 283.5zM225 745q0 -141 54.5 -267t147.5 -219t219 -147.5t269 -54.5q141 0 267.5 54.5t219.5 147.5 t147.5 219t54.5 267q0 143 -54.5 268.5t-147.5 219.5t-219 148.5t-268 54.5q-143 0 -269 -54.5t-219 -148.5t-147.5 -219.5t-54.5 -268.5zM268 745q0 135 51.5 253t138.5 205t204.5 138.5t252.5 51.5t252 -51.5t205 -138.5t138.5 -204.5t50.5 -253.5q0 -135 -50.5 -251.5 t-138.5 -204.5t-204.5 -138.5t-252.5 -50.5q-135 0 -252.5 50.5t-204.5 138.5t-138.5 204.5t-51.5 251.5zM311 745q0 -125 47.5 -234.5t129 -191t192.5 -129t235 -47.5q125 0 235 47.5t191.5 129t129 191.5t47.5 234q0 125 -47.5 236t-129 192.5t-191.5 129t-235 47.5 t-235.5 -47.5t-192 -129t-129 -192.5t-47.5 -236zM352 745q0 117 44 219.5t121 179.5t179.5 121t218.5 44q117 0 218.5 -44t177 -121t120 -179.5t44.5 -219.5t-44.5 -218t-120 -177t-177 -120t-218.5 -44t-219 44t-179 120t-121 177t-44 218zM498 633q0 -186 94 -288.5 t268 -119.5q-23 12 -46.5 29.5t-70.5 58.5q-86 78 -131 155t-45 173v260q-70 -121 -69 -268zM606 641q0 -70 24.5 -127t66.5 -98t99.5 -63.5t123.5 -22.5t123 22.5t99 63.5t66.5 98t24.5 127v27h-31v-27q0 -61 -23.5 -112.5t-63.5 -88.5t-91 -56t-104 -19t-104.5 19 t-91.5 56t-64.5 88.5t-24.5 112.5v256q0 61 24.5 112.5t64.5 87.5t91 55t105 19q53 0 104 -19t91 -55t63.5 -87.5t23.5 -112.5v-35h31v35q0 68 -24.5 124t-66.5 98t-99.5 64.5t-122.5 22.5q-66 0 -123.5 -22.5t-99.5 -64.5t-66.5 -98t-24.5 -124v-256zM668 641 q0 -55 21.5 -101t56 -78t79.5 -50.5t95 -18.5q49 0 93 18.5t78.5 50.5t55 78t20.5 101v27h-28v-27q0 -96 -61.5 -156.5t-157.5 -60.5t-158 60.5t-62 156.5v256q0 94 61.5 153.5t158.5 59.5q96 0 157.5 -59.5t61.5 -153.5v-35h28v35q0 55 -20.5 100t-55 77t-78.5 50.5 t-93 18.5t-94.5 -18.5t-80 -50.5t-56 -77t-21.5 -100v-256zM733 641q0 -86 55.5 -136t131.5 -50q74 0 130 50t56 136v27h-31v-27q0 -74 -42 -114t-113 -40q-74 0 -116 40t-42 114v256q0 72 42 112t116 40q72 0 113.5 -40t41.5 -112v-35h31v35q0 84 -56.5 132t-129.5 48 q-76 0 -131.5 -48t-55.5 -132v-256zM905 524h15q53 0 85.5 31t32.5 86v64h234l106 -119v-58v-13t-2 -15q29 55 45.5 116.5t16.5 128.5q0 150 -61.5 252.5t-209.5 147.5q14 -14 33 -29.5t53 -54.5q68 -72 96.5 -138.5t28.5 -138.5v-65h-221l-119 106v78h-8q-57 0 -91 -31.5 t-34 -87.5v-260z" />
<glyph unicode="&#x28;R&#x29;" horiz-adv-x="1826" d="M102 745q0 168 63.5 316.5t174.5 259.5t259.5 174.5t315.5 63.5q113 0 225.5 -36t214 -100.5t189.5 -151.5t151.5 -190.5t100.5 -217t37 -230.5q0 -166 -63.5 -312.5t-173 -256t-256 -173t-312.5 -63.5q-113 0 -226.5 36t-216 98.5t-190.5 149.5t-153.5 188t-102.5 214.5 t-37 230.5zM141 745q0 -160 60.5 -300t166 -245.5t247 -167t300.5 -61.5q160 0 300.5 61.5t246 167t167 246t61.5 299.5q0 160 -61.5 301.5t-167 247t-246 166t-300.5 60.5t-301 -60.5t-246.5 -166t-166 -247t-60.5 -301.5zM184 745q0 152 57.5 286t157 233.5t232.5 157 t284 57.5q150 0 283 -57.5t233.5 -157t158 -233.5t57.5 -286t-57.5 -283.5t-158 -231t-233.5 -157t-283 -57.5q-152 0 -284.5 57.5t-232 157t-157 231t-57.5 283.5zM225 745q0 -141 54.5 -267t147.5 -219t219 -147.5t269 -54.5q141 0 267.5 54.5t219.5 147.5t147.5 219 t54.5 267q0 143 -54.5 268.5t-147.5 219.5t-219 148.5t-268 54.5q-143 0 -269 -54.5t-219 -148.5t-147.5 -219.5t-54.5 -268.5zM268 745q0 135 51.5 253t138.5 205t204.5 138.5t252.5 51.5t252 -51.5t205 -138.5t138.5 -204.5t50.5 -253.5q0 -135 -50.5 -251.5 t-138.5 -204.5t-204.5 -138.5t-252.5 -50.5q-135 0 -252.5 50.5t-204.5 138.5t-138.5 204.5t-51.5 251.5zM311 745q0 -125 47.5 -234.5t129 -191t192.5 -129t235 -47.5q125 0 235 47.5t191.5 129t129 191.5t47.5 234q0 125 -47.5 236t-129 192.5t-191.5 129t-235 47.5 t-235.5 -47.5t-192 -129t-129 -192.5t-47.5 -236zM352 745q0 117 44 219.5t121 179.5t179.5 121t218.5 44q117 0 218.5 -44t177 -121t120 -179.5t44.5 -219.5t-44.5 -218t-120 -177t-177 -120t-218.5 -44t-219 44t-179 120t-121 177t-44 218zM498 633q0 -39 5 -85t19.5 -90 t38 -83t60.5 -64v662q-59 -68 -91 -155t-32 -185zM657 350h33v805h197q131 0 203.5 -70.5t72.5 -177.5q0 -72 -25.5 -120t-95.5 -87q133 -84 134 -245v-105h34v105q1 153 -114 245q43 33 71.5 76t28.5 131q0 57 -21.5 107.5t-61.5 88.5t-97.5 59.5t-128.5 21.5h-230v-834z M719 350h33v334h135q104 0 165.5 -65.5t61.5 -163.5v-105h31v105q0 84 -43 153.5t-127 91.5q78 23 120 73t42 134q0 96 -64.5 154.5t-185.5 58.5h-168v-770zM752 717v375h135q111 0 165 -49.5t54 -135.5q0 -76 -53.5 -133t-165.5 -57h-135zM784 350h29v273h74 q78 0 121 -45.5t43 -122.5v-105h32v105q0 92 -52 145t-144 53h-103v-303zM784 743h103q86 0 138 46.5t52 117.5q0 152 -190 152h-103v-316zM813 778v252h74q160 0 160 -123q0 -63 -43 -96t-117 -33h-74zM958 225q35 4 66 9.5t61 17.5l-73 61v164h-54v-252zM958 829 q41 16 50 56h-50v-56z" />
<glyph unicode="&#xfb01;" horiz-adv-x="1558" d="M96 0zM96 -37v1137q0 100 36 185t98.5 145.5t147.5 94.5t181 34q117 0 218.5 -52.5t199.5 -163.5q76 -86 113.5 -172t37.5 -184v-74h-276l-119 107v80q0 39 -9 51t-52 12q-86 0 -134.5 -46t-48.5 -130v-98h254l109 -119v-276h-363v-637h-276zM133 0h41v1100 q0 86 33 155.5t87 118.5t122.5 76t142.5 27q72 0 140.5 -27t121.5 -76t86 -118.5t33 -155.5v-43h45v43q0 92 -33.5 170t-91 133t-135.5 86t-166 31q-90 0 -167 -31t-135 -86t-91 -133t-33 -170v-1100zM217 0h45v723h445v41h-445v336q0 66 22.5 120t61.5 92t93.5 59.5 t119.5 21.5q63 0 117.5 -21.5t94.5 -59.5t61.5 -92.5t21.5 -119.5v-43h43v43q0 76 -28.5 137t-76 105t-107.5 69t-126 25t-127 -25t-109.5 -69t-77 -105t-28.5 -137v-1100zM303 0h41v637h363v43h-404v-680zM303 807h404v45h-363v248q0 98 58.5 153.5t156.5 55.5t154.5 -55.5 t56.5 -153.5v-43h41v43q0 57 -20.5 104t-55.5 79t-81 49.5t-95 17.5q-51 0 -97 -17.5t-82 -49.5t-56.5 -79t-20.5 -104v-293zM1167 -37v1569h287l109 -119v-1556h-277zM1206 0h43v1495h-43v-1495zM1290 0h45v1495h-45v-1495zM1376 0h41v1495h-41v-1495z" />
<glyph unicode="&#xfb02;" horiz-adv-x="1914" d="M96 0zM96 -37v1137q0 100 36 185t98.5 145.5t147.5 94.5t181 34q117 0 218.5 -52.5t199.5 -163.5q76 -86 113.5 -172t37.5 -184v-74h-276l-119 107v80q0 39 -9 51t-52 12q-86 0 -134.5 -46t-48.5 -130v-98h254l109 -119v-276h-363v-637h-276zM133 0h41v1100 q0 86 33 155.5t87 118.5t122.5 76t142.5 27q72 0 140.5 -27t121.5 -76t86 -118.5t33 -155.5v-43h45v43q0 92 -33.5 170t-91 133t-135.5 86t-166 31q-90 0 -167 -31t-135 -86t-91 -133t-33 -170v-1100zM217 0h45v723h445v41h-445v336q0 66 22.5 120t61.5 92t93.5 59.5 t119.5 21.5q63 0 117.5 -21.5t94.5 -59.5t61.5 -92.5t21.5 -119.5v-43h43v43q0 76 -28.5 137t-76 105t-107.5 69t-126 25t-127 -25t-109.5 -69t-77 -105t-28.5 -137v-1100zM303 0h41v637h363v43h-404v-680zM303 807h404v45h-363v248q0 98 58.5 153.5t156.5 55.5t154.5 -55.5 t56.5 -153.5v-43h41v43q0 57 -20.5 104t-55.5 79t-81 49.5t-95 17.5q-51 0 -97 -17.5t-82 -49.5t-56.5 -79t-20.5 -104v-293zM1167 -37v1569h287l109 -119v-1163h299l106 -119v-274h-682l-106 106h-13zM1206 0h619v41h-576v1454h-43v-1495zM1290 86h535v41h-492v1368h-43 v-1409zM1376 170h449v41h-408v1284h-41v-1325z" />
<glyph horiz-adv-x="0" />
<glyph unicode="&#xd;" horiz-adv-x="667" />
<glyph horiz-adv-x="491" />
<glyph unicode=" "  horiz-adv-x="491" />
<glyph unicode="&#x09;" horiz-adv-x="491" />
<glyph unicode="&#xa0;" horiz-adv-x="491" />
<glyph unicode="!" horiz-adv-x="569" d="M139 106q0 41 18.5 73t47.5 52l-64 54v1247h289l107 -119v-1235h-125l86 -86q16 -20 28.5 -44.5t12.5 -53.5q0 -59 -42 -98t-102 -39q-59 0 -98 39l-88 86q-27 25 -48.5 54.5t-21.5 69.5zM176 106q0 -45 31 -75.5t76 -30.5q47 0 78.5 30.5t31.5 75.5t-31.5 77t-78.5 32 q-45 0 -76 -32t-31 -77zM178 322h41v1173h-41v-1173zM219 106q0 29 18.5 47.5t45.5 18.5q29 0 47 -18.5t18 -47.5q0 -27 -18.5 -45t-46.5 -18q-27 0 -45.5 18t-18.5 45zM258 106q0 -10 7 -17t18 -7q27 0 26 24q0 10 -7 19.5t-19 9.5q-10 0 -17.5 -9.5t-7.5 -19.5zM264 322 h41v1173h-41v-1173zM348 322h43v1173h-43v-1173z" />
<glyph unicode="&#x22;" horiz-adv-x="901" d="M98 1128l64 394l282 -33l62 -74l16 107l283 -33l106 -119l-61 -389l-272 41l-72 70l-17 -111l-274 41zM141 1161l41 -6l51 320l-43 6zM225 1149l43 -8l51 321l-43 6zM307 1137l43 -9l51 322l-43 4zM502 1161l41 -6l51 320l-41 6zM586 1149l45 -8l49 321l-45 6zM670 1137 l41 -9l51 322l-43 4z" />
<glyph unicode="#" horiz-adv-x="1073" d="M66 387v289h104l-104 92v289h135v135h288l95 -105v105h286l107 -119v-16h31l108 -117v-278h-106l106 -105v-276h-139v-138h-277l-104 107v-107h-277l-118 109v29h-17zM102 426h136v-137h41v178h-177v-41zM102 510h220v-221h43v221h340v-221h43v221h223v43h-223v340h223 v43h-223v219h-43v-219h-340v219h-43v-219h-220v-43h220v-340h-220v-43zM102 594h177v258h-177v-45h136v-170h-136v-43zM102 977h177v178h-41v-135h-136v-43zM365 553v340h340v-340h-340zM408 289h45v137h168v-137h43v178h-256v-178zM408 977h256v178h-43v-135h-168v135h-45 v-178zM410 594h254v258h-254v-258zM453 637v170h168v-170h-168zM791 289h40v137h140v41h-180v-178zM791 594h180v43h-140v170h140v45h-180v-258zM791 977h180v43h-140v135h-40v-178z" />
<glyph unicode="$" horiz-adv-x="1105" d="M88 455h287l106 -117q0 -59 14.5 -77.5t57.5 -18.5q84 0 135 47t51 131q0 18 -4 34.5t-8 32.5q-27 10 -55.5 16.5t-57 11.5t-59.5 12.5t-61 19.5q-47 18 -93.5 49t-103.5 82q-100 90 -153.5 183t-53.5 222q0 70 23.5 136.5t64.5 123t99.5 98.5t128.5 64v187h286l107 -119 v-121q29 -18 59.5 -48t83.5 -87q94 -98 136 -196.5t42 -202.5h-276l-119 106q0 53 -13.5 79.5t-49.5 26.5q-86 0 -136.5 -49t-50.5 -135v-33q102 -25 170 -47t119 -50t97 -66.5t106 -96.5q74 -70 115.5 -162t41.5 -202q0 -72 -22.5 -138.5t-65.5 -123t-103.5 -98.5 t-133.5 -64v-187h-277l-116 107v149q-66 45 -122.5 99.5t-99.5 119t-68.5 139.5t-27.5 163zM125 418q0 -74 23.5 -140.5t65.5 -120t100.5 -92t127.5 -57.5v-186h43v211q-70 14 -128 52t-101 91t-66.5 116.5t-23.5 125.5h-41zM127 1083q0 -158 70.5 -252t193.5 -141 q39 -16 76 -22t75 -12.5t75.5 -19.5t78.5 -40q80 -55 80 -176q0 -100 -61.5 -157.5t-161.5 -57.5q-104 0 -159.5 57t-55.5 156h-45q0 -57 22.5 -105.5t59.5 -84t83 -55t95 -19.5q55 0 102 22.5t82 59t55.5 83t20.5 95.5q0 66 -23.5 122t-70.5 91q-39 29 -78 42t-77 21 t-76.5 15.5t-77.5 21.5q-111 41 -176.5 129t-65.5 223q0 63 25.5 125t69.5 111t101.5 83t120.5 46v209h-43v-178q-70 -16 -127 -54.5t-99 -90.5t-65.5 -115.5t-23.5 -131.5zM207 1071q0 -117 60.5 -193.5t158.5 -113.5q41 -16 81 -23.5t79 -14.5t77.5 -21.5t77.5 -45.5 q55 -45 89 -110.5t34 -142.5q0 -59 -26.5 -112.5t-69.5 -92.5t-99.5 -61.5t-115.5 -22.5q-66 0 -120 23.5t-94 64.5t-62.5 96t-22.5 117h-43q0 -72 25.5 -132.5t69.5 -106.5t101.5 -73.5t118.5 -33.5v-250h43v246q63 2 124 29.5t107 72.5t73.5 105.5t27.5 127.5 q0 82 -33.5 161t-101.5 128q-39 29 -78 44.5t-79 25.5t-81 18t-82 23q-92 35 -145 100.5t-53 163.5q0 63 25.5 117.5t67.5 94.5t96.5 61.5t111.5 21.5q63 0 117.5 -23.5t95.5 -64.5t64.5 -95.5t23.5 -117.5h41q0 68 -24.5 128t-67.5 107t-102.5 77t-127.5 38v242h-43v-242 q-61 -2 -119.5 -29.5t-102.5 -73.5t-70.5 -106.5t-26.5 -130.5zM287 1065q0 -94 45 -146.5t127 -80.5q43 -14 87 -23.5t85 -21t81 -27.5t76 -45q72 -53 111 -137t39 -181q0 -63 -26.5 -125.5t-70.5 -113.5t-103.5 -87t-125.5 -44v-211h41v182q74 18 134.5 57t103.5 91.5 t66.5 116t23.5 132.5q0 121 -44 207t-122 142q-37 29 -79 47t-85 31.5t-89 24.5t-93 24q-70 23 -104.5 63.5t-34.5 118.5q0 98 59.5 156.5t159.5 58.5t157.5 -57.5t57.5 -155.5h43q0 51 -20.5 99t-55.5 85t-82 58.5t-100 21.5t-101.5 -21.5t-84 -57.5t-56 -83t-20.5 -98z M608 1446q68 -14 127.5 -50t102.5 -88.5t68.5 -116t25.5 -130.5h45q0 72 -23.5 139.5t-65.5 122.5t-101.5 95t-133.5 57v178h-41v-207h-4z" />
<glyph unicode="%" horiz-adv-x="1761" d="M88 1141q0 88 29.5 162.5t85 129t132.5 84t173 29.5q88 0 157.5 -24.5t126 -69.5t105.5 -107.5t98 -138.5l187 326h280l103 -119l-357 -625q10 2 20.5 2.5t22.5 0.5q68 0 120 -13.5t95 -40t83 -63.5t85 -82q66 -66 107 -145.5t41 -182.5q0 -86 -30 -162.5t-85 -133 t-133 -89.5t-172 -33q-90 0 -164 32t-129 85q-45 39 -78 69.5t-55.5 57.5t-38.5 50.5t-27 47.5l-190 -331h-268l-121 106l362 637q-123 0 -207 38t-155 107q-47 45 -85 83t-63.5 82t-40 98.5t-14.5 132.5zM125 1141q0 -84 27.5 -157t78 -126t121 -84t156.5 -31 q88 0 158.5 31t121 83t78 123t27.5 150q0 82 -28.5 152t-79 121t-121 78.5t-156.5 27.5t-156.5 -27.5t-121 -76.5t-78 -116.5t-27.5 -147.5zM168 1128q0 74 24.5 135.5t69.5 106.5t107.5 70.5t138.5 25.5q78 0 141.5 -25.5t107.5 -70.5t68.5 -106.5t24.5 -133.5t-24.5 -134 t-69.5 -109t-108.5 -74t-139.5 -27t-138.5 26t-107.5 72t-69.5 108.5t-24.5 135.5zM213 1139q0 -68 22.5 -126.5t61.5 -100.5t93 -65.5t118 -23.5q68 0 123 23.5t94 64.5t60.5 96t21.5 121q0 61 -19.5 115.5t-58.5 94.5t-94 62.5t-127 22.5q-129 0 -212 -68.5t-83 -215.5z M250 1139q0 104 70.5 173.5t191.5 69.5q115 0 183.5 -71.5t68.5 -180.5q0 -117 -71.5 -188.5t-184.5 -71.5q-57 0 -104.5 20.5t-81 57.5t-53 86t-19.5 105zM293 1135q0 -98 58.5 -160t156.5 -62q45 0 85 17.5t69.5 47.5t46 69.5t16.5 87.5q0 92 -55.5 148t-159.5 56 q-98 0 -157.5 -50t-59.5 -154zM332 1133q0 70 44 115.5t132 45.5t134 -47t46 -117q0 -72 -46 -125t-134 -53q-84 0 -130 54.5t-46 126.5zM354 0h39l850 1495h-39zM432 0h39l848 1495h-39zM475 991q8 -2 16.5 -2h16.5q70 0 106.5 43t36.5 98q0 10 -10 15.5t-20 5.5 q-72 0 -109 -41t-37 -119zM512 0h37l850 1495h-41zM868 385q0 -84 28 -155.5t78 -125t120.5 -84t156.5 -30.5q88 0 159 30.5t121 83t77.5 123t27.5 150.5q0 82 -28.5 151.5t-79.5 119.5t-122 78t-155 28q-86 0 -156.5 -27t-120.5 -76t-78 -116.5t-28 -149.5zM913 375 q0 72 25 134t69 107.5t106.5 71t137.5 25.5q78 0 140.5 -25.5t107.5 -72t68.5 -108t23.5 -130.5q0 -72 -24.5 -134.5t-68.5 -108.5t-107.5 -73.5t-139.5 -27.5t-138 25.5t-106 71.5t-69 108.5t-25 136.5zM956 385q0 -68 22.5 -126t61.5 -100t93.5 -65.5t117.5 -23.5 q68 0 122 23.5t93 64.5t60.5 96t21.5 121q0 61 -19.5 115.5t-57 94.5t-93 62.5t-127.5 22.5q-129 0 -212 -69t-83 -216zM991 385q0 104 72 173t190 69q115 0 185.5 -71t70.5 -179q0 -117 -72.5 -188.5t-185.5 -71.5q-57 0 -104 20.5t-82 57t-54.5 86t-19.5 104.5zM1036 381 q0 -98 57.5 -160.5t157.5 -62.5q94 0 155.5 64.5t61.5 158.5q0 92 -55 148.5t-162 56.5q-98 0 -156.5 -50.5t-58.5 -154.5zM1073 379q0 70 45 117t133 47q86 0 132.5 -48.5t46.5 -117.5q0 -72 -46.5 -125t-132.5 -53q-84 0 -131 54t-47 126zM1219 238q9 -2 32 -2 q68 0 105 43t37 98q0 20 -31 20q-72 0 -107.5 -37.5t-35.5 -93.5v-28z" />
<glyph unicode="&#x26;" horiz-adv-x="1163" d="M88 397v693q0 102 37 188t100.5 148.5t148.5 97.5t181 35q61 0 115.5 -17.5t101.5 -47.5t89 -69t79 -82q76 -84 126 -176t54 -223h-276l-119 109q0 59 -10 84.5t-47 25.5q-88 0 -137.5 -54t-49.5 -132v-88h654l106 -119v-276h-117v-209q0 -90 -35.5 -173t-97 -145.5 t-144.5 -100.5t-177 -38q-109 0 -196 46t-165 118q-57 53 -99 99t-68.5 92t-40 97.5t-13.5 116.5zM125 397q0 -88 35 -164.5t94 -135t137 -92.5t166 -34q86 0 164 35t135 94.5t91 136t34 160.5v240h115v43h-160v-283q0 -72 -31 -141.5t-83 -122.5t-120.5 -86t-142.5 -33 q-82 0 -153.5 29t-125 80t-84 120.5t-30.5 153.5v693q0 76 31.5 145.5t86 122.5t124 85t147.5 32q74 0 142.5 -33t120.5 -87.5t83 -123t31 -141.5h45q0 94 -36 172.5t-94.5 136t-135 89.5t-156.5 32q-90 0 -168 -32t-136 -89.5t-92 -136t-34 -172.5v-693zM211 397 q0 -72 25.5 -134t70.5 -108t107.5 -74t136.5 -28t136.5 28t108.5 75t72.5 109.5t26.5 131.5v326h201v41h-842v326q0 61 23.5 115.5t65.5 96t96.5 65.5t115.5 24t114.5 -25t93.5 -65.5t62.5 -95t22.5 -115.5h43q0 68 -25.5 131t-70.5 111t-106.5 77t-133.5 29t-134.5 -28 t-109.5 -75t-73.5 -110.5t-26.5 -134.5v-693zM254 397v326h598v-326q0 -66 -24.5 -121t-66.5 -94t-98.5 -60.5t-117.5 -21.5q-66 0 -119 22.5t-92 62.5t-59.5 94.5t-20.5 117.5zM295 397q0 -55 18.5 -102t52 -81t80 -52.5t101.5 -18.5q53 0 101 19.5t84 53.5t56.5 80 t20.5 101v283h-514v-283zM295 807h801v45h-758v238q0 92 56.5 154.5t160.5 62.5q94 0 151.5 -59.5t57.5 -157.5h43q0 51 -19.5 98t-53.5 82t-80 56.5t-99 21.5q-117 0 -188.5 -72t-71.5 -186v-283zM338 397v240h428v-240q0 -109 -63.5 -161t-157.5 -52q-100 0 -153.5 54.5 t-53.5 158.5zM481 285q0 -27 17.5 -45.5t46.5 -18.5q78 0 131 43t53 133v97h-248v-209z" />
<glyph unicode="'" horiz-adv-x="540" d="M98 1128l64 394l280 -33l107 -119l-62 -389l-272 41zM141 1161l41 -6l51 320l-43 6zM223 1149l45 -8l51 321l-43 6zM307 1137l41 -9l51 322l-41 4z" />
<glyph unicode="(" horiz-adv-x="651" d="M158 266v963q0 92 33.5 171t94 139t141.5 98t177 49l107 -119v-275q-78 -16 -119 -61t-41 -115v-962q0 -33 9 -43.5t44 -14.5l107 -119v-276q-92 10 -174 54t-175 124q-109 92 -156.5 183.5t-47.5 203.5zM195 266q0 -86 28.5 -158.5t77.5 -127t116.5 -88t147.5 -42.5v44 q-66 8 -125 38.5t-105 78.5t-72.5 112.5t-26.5 142.5v963q0 76 26.5 140.5t72.5 112.5t105.5 77.5t124.5 39.5v46q-80 -8 -147.5 -43t-116.5 -89.5t-77.5 -127t-28.5 -156.5v-963zM279 266q0 -68 23.5 -124t62 -99t91 -70.5t109.5 -35.5v40q-109 16 -175 94.5t-66 194.5v963 q0 117 66.5 193.5t174.5 93.5v43q-57 -10 -109.5 -38t-91 -71t-62 -99.5t-23.5 -121.5v-963zM365 266q0 -102 58 -164.5t142 -78.5v40q-76 14 -116.5 65.5t-40.5 137.5v963q0 84 40.5 134t116.5 67v43q-84 -16 -142 -80t-58 -164v-963z" />
<glyph unicode=")" horiz-adv-x="651" d="M49 96q74 14 116 56.5t42 113.5v940q0 27 -7 45.5t-34 40.5l-117 107v287q111 -10 203 -64.5t184 -155.5q84 -92 124 -175t40 -175v-962q0 -92 -34 -171t-92 -138.5t-137 -96.5t-171 -47l-117 109v286zM86 23q84 16 141.5 78.5t57.5 164.5v963q0 100 -57.5 163.5 t-141.5 80.5v-43q76 -16 117 -66.5t41 -134.5v-963q0 -86 -41 -137t-117 -66v-40zM86 -23v-40q57 8 108.5 35.5t90.5 70.5t62.5 99.5t23.5 123.5v963q0 66 -23.5 122t-62.5 99t-90.5 70.5t-108.5 38.5v-43q109 -16 175.5 -93t66.5 -194v-963q0 -117 -66.5 -194.5 t-175.5 -94.5zM86 -106v-44q80 8 147.5 42t116.5 88.5t77 127t28 158.5v963q0 84 -28 156.5t-77 127t-116.5 89t-147.5 43.5v-46q66 -10 125 -39.5t104 -77.5t72 -112.5t27 -140.5v-963q0 -78 -27 -142.5t-72 -112.5t-104 -78.5t-125 -38.5z" />
<glyph unicode="*" horiz-adv-x="1335" d="M-41 887h539l170 512l112 -131l123 -381h473l97 -119l-429 -313l162 -502l-426 311l-428 -311l-123 98l162 494l-303 223zM74 850l368 -270l-143 -433l369 269l366 -269l-139 433l367 270h-453l-141 428l-144 -428h-450zM223 799h340l105 323l104 -323h338l-274 -197 l104 -323l-272 198l-275 -198l105 323zM336 764l205 -150l-78 -237l205 145l202 -145l-75 237l202 150h-252l-77 240l-80 -240h-252zM455 729h163l50 152l51 -152h158l-129 -96l51 -156l-131 96l-131 -96l49 156z" />
<glyph unicode="+" horiz-adv-x="964" d="M102 623v286h234v244h287l106 -119v-125h133l107 -118v-275h-240v-231h-274l-119 106v125h-115zM141 659h232v-229h43v270h-275v-41zM141 741h316v-311h43v311h325v45h-325v330h-43v-330h-316v-45zM141 829h275v287h-43v-244h-232v-43zM543 430h43v229h239v41h-282v-270z M543 829h282v43h-239v244h-43v-287z" />
<glyph unicode="," horiz-adv-x="499" d="M102 104q0 66 44 108t106 42q53 0 87 -25.5t83 -85.5q33 -37 57.5 -73.5t24.5 -77.5q0 -20 -6 -43t-23 -45l-139 -187l-201 183l53 71q-49 35 -67.5 66t-18.5 67zM141 104q0 -74 72 -100l20 31q-18 8 -34.5 24.5t-16.5 40.5q0 37 19.5 54.5t48.5 17.5t47 -18.5t18 -53.5 q0 -16 -16 -45l-111 -147l35 -27l115 154q23 33 22 69q0 45 -30.5 78t-77.5 33t-79 -30.5t-32 -80.5zM219 100q0 -10 9.5 -17t21.5 -7t19 7t7 17q0 29 -26 29q-12 0 -21.5 -8.5t-9.5 -20.5z" />
<glyph unicode="-" horiz-adv-x="657" d="M76 623v286h506l106 -118v-275h-495zM113 659h430v41h-430v-41zM113 741h430v45h-430v-45zM113 829h430v43h-430v-43z" />
<glyph unicode="." horiz-adv-x="497" d="M102 106q0 61 42 104.5t104 43.5q76 0 131 -66l80 -94q41 -47 41 -100q0 -59 -41 -98t-99 -39q-29 0 -54 11t-46 28l-92 79q-29 25 -47.5 57.5t-18.5 73.5zM141 106q0 -45 31 -75.5t76 -30.5t76.5 30.5t31.5 75.5t-31.5 77t-76.5 32t-76 -32t-31 -77zM184 106 q0 29 17.5 47.5t46.5 18.5q27 0 46 -18.5t19 -47.5q0 -27 -19.5 -45t-45.5 -18q-29 0 -46.5 18t-17.5 45zM221 106q0 -25 27 -24q27 0 26 24q0 10 -8 19.5t-18 9.5t-18.5 -9.5t-8.5 -19.5z" />
<glyph unicode="/" horiz-adv-x="878" d="M14 -37l564 1569h286l105 -119l-559 -1556h-275zM68 0h41l536 1495h-41zM150 0h43l536 1495h-41zM233 0h43l535 1495h-41z" />
<glyph unicode="0" horiz-adv-x="1101" d="M88 0zM88 391v709q0 100 36 185t99.5 145.5t147.5 94.5t180 34q117 0 223.5 -49.5t192.5 -157.5q74 -92 113.5 -179.5t39.5 -185.5v-708q0 -98 -35.5 -181.5t-97 -143.5t-145.5 -93t-178 -33q-98 0 -189.5 45t-208.5 143q-78 68 -128 162t-50 213zM125 391q0 -92 34 -169 t91 -133t135 -87t166 -31t166 31t135 87t91 133t34 169v709q0 92 -34 170t-91 133t-135 86t-166 31t-166 -31t-135 -86t-91 -133t-34 -170v-709zM166 391v709q0 86 32.5 155.5t87 118.5t123 76t142.5 27t142.5 -27t121.5 -76t86 -118.5t33 -155.5v-709q0 -84 -33 -153.5 t-86 -118.5t-121.5 -76t-142.5 -27t-142.5 27t-123 76t-87 118.5t-32.5 153.5zM211 391q0 -74 28.5 -135t75.5 -105.5t108.5 -69t127.5 -24.5t127 24.5t108.5 69t76 105.5t28.5 135v709q0 76 -28.5 137t-76 105t-109 69t-126.5 25q-66 0 -127.5 -25t-108.5 -69t-75.5 -105 t-28.5 -137v-709zM254 391v709q0 66 22.5 120t61.5 92t93 59.5t120 21.5q63 0 118.5 -21.5t94.5 -59.5t61.5 -92.5t22.5 -119.5v-709q0 -63 -22.5 -116.5t-61.5 -92.5t-94.5 -60.5t-118.5 -21.5q-66 0 -120 21.5t-93 60.5t-61.5 92.5t-22.5 116.5zM297 391q0 -57 20.5 -103 t55.5 -78t81 -49.5t97 -17.5t97 17.5t81 49.5t56.5 78t21.5 103v709q0 57 -21.5 104t-56.5 79t-81 49.5t-97 17.5t-97 -17.5t-81 -49.5t-55.5 -79t-20.5 -104v-709zM338 391v709q0 98 57.5 153.5t155.5 55.5t155.5 -55.5t57.5 -153.5v-709q0 -98 -57.5 -151.5t-155.5 -53.5 t-155.5 53.5t-57.5 151.5zM481 279q0 -33 12.5 -44.5t57.5 -11.5q80 0 127 45t47 123v709q0 39 -9 51t-52 12q-86 0 -134.5 -46t-48.5 -130v-708z" />
<glyph unicode="1" horiz-adv-x="651" d="M35 1249l246 283h268l106 -119v-1556h-276l-119 106v1075zM86 1251l29 -28l239 272h-55zM150 1194l28 -29l205 236v-1401h43v1495h-16zM213 1139l31 -29l55 57v-1167h41v1282zM467 0h45v1495h-45v-1495z" />
<glyph unicode="2" horiz-adv-x="1101" d="M92 -37v508q0 125 51.5 206t128.5 140q57 43 126 66.5t143 42.5q49 12 87 24.5t63.5 29.5t38.5 44t13 72q0 41 -12 55t-59 14q-92 0 -138.5 -58t-46.5 -157h-276l-117 107q0 104 34 195t94.5 159t146.5 108t190 40q121 0 222.5 -53.5t195.5 -157.5q74 -86 112.5 -166 t38.5 -174q0 -100 -31.5 -179t-87 -135.5t-131 -92.5t-161.5 -50q-63 -10 -107.5 -23.5t-72 -35t-40 -52t-12.5 -78.5v-112h498l107 -119v-274h-879zM129 0h815v43h-774v428q0 98 42 166t110 121q37 29 76.5 45t81.5 26.5t85 19.5t86 25q82 29 127 81.5t45 144.5 q0 57 -20.5 105t-56 83t-84 53.5t-103.5 18.5q-59 0 -107.5 -20.5t-82 -55.5t-52 -79t-18.5 -89v-20h45q0 98 54.5 156.5t160.5 58.5q45 0 86 -15.5t72 -43t48 -67.5t17 -89q0 -78 -34.5 -120t-106.5 -61q-47 -14 -93 -25t-89 -24.5t-85 -32t-79 -47.5q-72 -53 -119 -125.5 t-47 -189.5v-471zM131 1096h41q0 76 27.5 146.5t78 124.5t122 86t159.5 32q80 0 148.5 -27.5t121 -77t82 -117t29.5 -147.5q0 -135 -63.5 -223t-176.5 -129q-37 -14 -75.5 -21.5t-77.5 -14.5t-78 -21.5t-78 -42.5q-43 -31 -67.5 -80t-24.5 -109v-305h645v41h-602v264 q0 51 17.5 91t54.5 65q39 27 77.5 40t76.5 20t76 13.5t75 22.5q123 47 194.5 141.5t71.5 249.5q0 94 -33.5 168t-92 126t-135.5 80t-165 28q-96 0 -175 -34t-135 -91.5t-87 -134t-31 -164.5zM213 86h731v41h-690v348q0 66 31.5 123t85.5 98q39 31 76.5 44.5t77.5 21.5t80 14 t81 23q98 41 158.5 115.5t60.5 191.5q0 72 -27.5 134.5t-74.5 108.5t-108.5 72.5t-129.5 26.5q-80 0 -145.5 -29.5t-110.5 -79t-69.5 -113t-24.5 -130.5h43q0 59 21.5 113.5t60.5 96.5t94 66.5t125 24.5q63 0 119.5 -21.5t97.5 -60.5t64.5 -93.5t23.5 -119.5q0 -96 -53 -163 t-145 -99q-41 -16 -82 -24.5t-81 -18t-80 -24.5t-79 -44q-59 -43 -95 -109.5t-36 -144.5v-389z" />
<glyph unicode="3" horiz-adv-x="1091" d="M72 453h274l109 -119q0 -66 13 -94.5t69 -28.5q90 0 140 58.5t50 144.5q0 61 -20.5 76.5t-57.5 15.5h-117l-118 106v269h123q82 0 136 49t54 149q0 61 -18.5 80t-59.5 19q-92 0 -143 -71t-51 -171h-267l-116 106q0 119 32.5 214.5t93 163t146.5 103.5t193 36 q127 0 226 -52.5t187 -152.5q84 -94 122 -185.5t38 -201.5q0 -123 -39 -203t-98 -131q70 -66 103.5 -142.5t33.5 -189.5q0 -109 -33 -196t-93 -148t-145 -95t-190 -34q-98 0 -183 38t-171 116q-113 98 -168 210.5t-55 260.5zM109 414q0 -100 30.5 -182t86 -139.5t134 -89.5 t177.5 -32q98 0 177 32t134 89.5t86 139t31 182.5q0 131 -44 207.5t-112 123.5q68 47 112 125t44 209q0 100 -31 182t-86 139.5t-134 88.5t-177 31t-177 -31t-134.5 -88.5t-86 -139t-30.5 -182.5h43q0 88 26.5 162t76.5 126t122 81t160 29t159.5 -29t121.5 -81t78 -126 t28 -162q0 -117 -41 -198.5t-138 -135.5q96 -53 137.5 -135t41.5 -196q0 -88 -28 -161t-78 -125t-121.5 -82t-159.5 -30t-160 30t-122 82t-76.5 125t-26.5 161h-43zM188 414q0 -76 25 -141.5t70 -113.5t109.5 -76t144.5 -28t144 28t109.5 76t70 113.5t24.5 141.5 q0 131 -62.5 218t-167.5 113q104 29 167 116t63 218q0 74 -24.5 139.5t-70 114.5t-110 77t-143.5 28q-80 0 -144.5 -28t-109.5 -77t-70 -114.5t-25 -139.5h41q0 63 20.5 120.5t60.5 100.5t96.5 69t130.5 26t131 -26t97 -69t60.5 -100t20.5 -121q0 -66 -20.5 -123t-59.5 -100 t-96.5 -67.5t-132.5 -24.5h-84v-35h84q76 0 133 -24.5t96 -67.5t59.5 -100.5t20.5 -122.5q0 -66 -20.5 -123.5t-60.5 -100.5t-97.5 -67.5t-130.5 -24.5q-74 0 -130.5 24.5t-96.5 67.5t-60.5 100.5t-20.5 123.5h-41zM270 414q0 -55 17.5 -105.5t51.5 -88.5t83 -60.5 t115 -22.5q63 0 114 22.5t85 60.5t52.5 88t18.5 106q0 135 -77 204.5t-193 69.5h-84v-37h84q98 0 162.5 -61.5t64.5 -175.5q0 -100 -59.5 -171t-167.5 -71q-109 0 -168.5 70.5t-59.5 171.5h-39zM270 1079h39q0 100 59.5 171t168.5 71t168 -70.5t59 -171.5q0 -119 -64.5 -177 t-162.5 -58h-84v-39h84q117 0 193.5 69.5t76.5 204.5q0 55 -18.5 106.5t-52.5 89.5t-85 60.5t-114 22.5q-66 0 -115 -22.5t-83 -60.5t-51.5 -89t-17.5 -107z" />
<glyph unicode="4" horiz-adv-x="1097" d="M35 274l573 1258h273l106 -119v-852h53l107 -119v-276h-160v-309h-276l-119 106v203h-434zM94 311h537v-311h43v352h-512l514 1143h-45zM225 395h492v-395h41v395h246v43h-246v1057h-31zM291 438l426 932v-932h-426zM352 479h324v682zM420 522l211 453v-453h-211zM803 0 h41v311h160v41h-201v-352zM803 477h201v45h-160v973h-41v-1018z" />
<glyph unicode="5" horiz-adv-x="1118" d="M96 444h287l106 -118q0 -53 13.5 -73t66.5 -20q84 0 135.5 52.5t51.5 140.5q0 47 -11.5 62.5t-64.5 15.5h-457l-119 106v922h863l106 -119v-276h-575v-238h71q129 0 225.5 -51t186.5 -154q82 -96 121 -187t39 -194q0 -100 -35 -188t-96.5 -154.5t-145.5 -104.5t-182 -38 t-187 39t-182 123q-111 100 -164 213.5t-53 240.5zM133 408q0 -88 32 -167t88 -139.5t137 -95.5t179 -35q92 0 170 36t134.5 97.5t89 144.5t32.5 177q0 90 -27.5 169t-82 138.5t-134 94t-182.5 34.5h-215v418h576v43h-619v-502h258q92 0 164 -31.5t121 -85t74.5 -125 t25.5 -153.5q0 -80 -29.5 -153.5t-81.5 -130t-123 -89.5t-151 -33q-86 0 -158.5 32t-125 86.5t-82 124t-29.5 145.5h-41zM143 649h424q104 0 165 -61.5t61 -161.5q0 -104 -61.5 -167.5t-162.5 -63.5q-104 0 -164.5 57t-60.5 156h-41q0 -113 73 -188t193 -75q55 0 104.5 21.5 t85.5 58.5t56.5 88.5t20.5 110.5q0 55 -17.5 104.5t-51.5 86t-84 58t-114 21.5h-385v756h746v45h-787v-846zM217 408q0 -72 26.5 -135.5t72.5 -111.5t111 -76t142 -28q70 0 133.5 28t111.5 77t77 116.5t29 147.5q0 74 -24 138.5t-68 112.5t-109.5 75.5t-149.5 27.5h-301v586 h662v41h-703v-670h342q74 0 130.5 -24.5t95.5 -66.5t59 -99.5t20 -122.5q0 -68 -23.5 -125t-64.5 -100t-97 -68t-120 -25q-68 0 -125 24t-98 65t-63.5 95t-22.5 118h-43z" />
<glyph unicode="6" horiz-adv-x="1103" d="M88 410v690q0 100 36 185t97.5 145.5t145.5 94.5t180 34q117 0 218 -53.5t198 -159.5q76 -86 113.5 -173.5t37.5 -185.5v-47h-278l-117 107v53q0 35 -8.5 49t-51.5 14q-84 0 -131 -46t-47 -130v-106q37 6 74 6q119 0 215 -54.5t191 -158.5q84 -94 122.5 -187.5 t38.5 -189.5q0 -92 -36.5 -176t-99 -149.5t-147.5 -104.5t-182 -39q-178 0 -354 158q-104 94 -159.5 196.5t-55.5 227.5zM125 410q0 -96 34 -176t92 -138.5t134 -91.5t160 -33q90 0 169 37t138 97.5t93 139.5t34 165q0 82 -30.5 161.5t-86 141t-134.5 99.5t-173 38 q-59 0 -117.5 -15.5t-99.5 -50.5v316q0 98 55.5 153.5t153.5 55.5t153.5 -55.5t55.5 -153.5v-17h43v17q0 57 -20.5 104t-55.5 79t-80 49.5t-96 17.5t-96 -17.5t-79 -49.5t-54.5 -79t-20.5 -104v-406q25 29 49.5 49.5t53 34t65.5 19.5t90 6q86 0 155.5 -33t119 -88t77 -126 t27.5 -146q0 -74 -30 -144.5t-81 -124t-120.5 -86t-147.5 -32.5t-147.5 27.5t-124 77.5t-86 122t-31.5 160v690q0 86 31.5 155.5t85 118.5t122 76t142.5 27t141.5 -27t120.5 -76t85 -118.5t32 -155.5v-17h43v17q0 92 -33 170t-89 133t-134 86t-166 31t-165 -31t-134.5 -86 t-90 -133t-32.5 -170v-690zM211 410q0 -76 26.5 -139.5t72.5 -110.5t106.5 -74t128.5 -27q76 0 140.5 29t110.5 78t71.5 112.5t25.5 131.5t-24.5 131t-68.5 112t-106.5 79t-138.5 30q-66 0 -114 -16.5t-85 -43t-61.5 -61.5t-40.5 -72v531q0 66 21.5 120t60.5 92t92 59.5 t119 21.5q63 0 117.5 -21.5t93.5 -59.5t60.5 -92.5t21.5 -119.5v-17h43v17q0 76 -28 137t-75 105t-107.5 69t-125.5 25q-66 0 -126.5 -25t-107.5 -69t-74.5 -105t-27.5 -137v-690zM254 410q0 74 23.5 131t64.5 96t96.5 59.5t116.5 20.5q63 0 117.5 -25.5t94.5 -67.5 t61.5 -97.5t21.5 -116.5q0 -59 -21.5 -113.5t-60.5 -96.5t-93 -68t-120 -26q-63 0 -117.5 22t-95.5 61.5t-64.5 95t-23.5 125.5zM295 410q0 -117 71.5 -190t188.5 -73q55 0 102.5 21.5t81 57.5t52 83.5t18.5 100.5q0 55 -18.5 102t-52 83t-80 55.5t-101.5 19.5 q-43 0 -90 -12.5t-85 -43t-62.5 -81t-24.5 -123.5zM334 410q0 94 57.5 155.5t163.5 61.5q98 0 153.5 -59.5t55.5 -157.5q0 -96 -55.5 -156.5t-153.5 -60.5q-111 0 -166 60t-55 157zM477 267.5q0 -13.5 4 -27.5q31 -8 74 -9q80 0 125 50.5t45 128.5q0 45 -10 58t-47 13 q-92 0 -141.5 -52t-49.5 -132v-29.5z" />
<glyph unicode="7" horiz-adv-x="937" d="M57 1243v289h856l105 -119l-559 -1556h-277l-121 106l420 1174h-305zM96 1280h477l-458 -1280h43l473 1323h-535v-43zM96 1366h592l-489 -1366h41l503 1407h-647v-41zM96 1450h707l-520 -1450h41l536 1495h-764v-45z" />
<glyph unicode="8" horiz-adv-x="1126" d="M88 418q0 127 38 204.5t101 131.5q-61 51 -96 129t-35 200q0 109 33 197t94.5 149.5t147.5 95.5t194 34q127 0 227.5 -51.5t192.5 -157.5q78 -88 116 -178.5t38 -200.5q0 -121 -36 -199t-95 -129q72 -72 104.5 -149.5t32.5 -188.5q0 -109 -34 -197t-95.5 -150t-148.5 -96 t-191 -34t-193.5 37t-179.5 115q-109 96 -162 200.5t-53 237.5zM125 418q0 -102 31.5 -184t89 -140.5t139.5 -90.5t180 -32t178 32t137.5 90.5t89 140t31.5 184.5q0 131 -46 210t-115 126q70 47 111.5 122.5t41.5 206.5q0 100 -30.5 181.5t-86 137.5t-134 87t-177.5 31 q-98 0 -178 -31t-136 -87t-87 -137t-31 -182q0 -131 42 -206.5t112 -122.5q-70 -47 -116 -126t-46 -210zM168 418q0 115 43 199t141 137q-98 53 -137 133t-39 196q0 88 26.5 160t77 124t123 81t162.5 29t162 -29t121 -81t75.5 -124t26.5 -160q0 -117 -39 -196.5t-137 -132.5 q98 -53 141 -137.5t43 -198.5q0 -88 -27.5 -162t-78.5 -127t-124 -83t-163 -30t-163.5 30t-126 83t-80 127t-27.5 162zM209 418q0 -76 24.5 -141.5t70.5 -114.5t111.5 -78t149.5 -29q80 0 145.5 29t111.5 78t72 114.5t26 141.5q0 131 -66 220t-170 116q104 29 166.5 113.5 t62.5 215.5q0 74 -24.5 139.5t-69.5 112.5t-109.5 75t-144.5 28q-84 0 -148.5 -28t-109.5 -75t-68.5 -112.5t-23.5 -139.5q0 -131 61.5 -215.5t167.5 -113.5q-106 -27 -170.5 -116t-64.5 -220zM248 418q0 66 21.5 124t61.5 101t99 68.5t135 25.5q74 0 132.5 -25.5 t98.5 -68.5t61.5 -101.5t21.5 -123.5q0 -66 -21.5 -123t-61.5 -101t-98.5 -70t-132.5 -26q-76 0 -134 26t-99 70t-62.5 101t-21.5 123zM254 1083q0 63 20.5 121t60.5 100t97 66.5t133 24.5q74 0 131.5 -24.5t96 -66.5t59 -99.5t20.5 -121.5q0 -66 -20.5 -123t-59 -99 t-96 -65.5t-131.5 -23.5q-76 0 -134 23.5t-97 65.5t-59.5 99.5t-20.5 122.5zM287 418q0 -57 18.5 -108.5t54 -89.5t88 -60.5t117.5 -22.5q66 0 117 22.5t86 60.5t53.5 89.5t18.5 108.5q0 135 -79 206.5t-196 71.5q-121 0 -199.5 -71.5t-78.5 -206.5zM295 1083 q0 -135 74.5 -203.5t195.5 -68.5q117 0 191.5 68.5t74.5 203.5q0 55 -17 105.5t-51 88.5t-83 59.5t-115 21.5t-117 -21.5t-84.5 -59.5t-51 -88t-17.5 -106zM330 418q0 111 67.5 175t167.5 64q98 0 166 -62.5t68 -176.5q0 -49 -16.5 -94t-47 -79t-74 -53.5t-96.5 -19.5 q-55 0 -99 19.5t-74 53.5t-46 79t-16 94zM336 1083q0 98 59.5 168t169.5 70q109 0 167.5 -69.5t58.5 -168.5q0 -119 -63.5 -175t-162.5 -56q-100 0 -164.5 59t-64.5 172zM475 305q0 -23 2 -42t8 -38q31 -14 80 -14q92 0 144.5 60.5t52.5 146.5q0 45 -17 84q-35 12 -69 12 q-84 0 -142.5 -56.5t-58.5 -152.5zM479 971q0 -43 8 -70q37 -12 78 -12q80 0 134.5 48t54.5 146q0 59 -16.5 77t-61.5 18q-94 0 -145.5 -60.5t-51.5 -146.5z" />
<glyph unicode="9" horiz-adv-x="1112" d="M88 1081q0 92 38 179.5t102.5 153t150.5 105.5t184 40q213 0 408 -220q78 -86 117.5 -177t39.5 -193v-690q0 -98 -34.5 -181.5t-95 -143.5t-143.5 -93t-179 -33q-98 0 -184 38t-173 114q-104 92 -159.5 190t-55.5 221v58h287l107 -119v-51q0 -39 10 -47.5t57 -8.5 q78 0 124 45t46 123v107q-18 -2 -33.5 -3t-35.5 -1q-98 0 -181.5 38.5t-169.5 114.5q-227 203 -227 434zM125 1081q0 -84 30.5 -163.5t87 -142t135.5 -100.5t175 -38q59 0 118.5 17.5t100.5 52.5v-316q0 -98 -54 -151.5t-153 -53.5q-100 0 -155.5 53.5t-55.5 151.5v19h-41 v-19q0 -57 20.5 -103t55.5 -78t80 -49.5t96 -17.5q49 0 94.5 17.5t79 49.5t54 78t20.5 103v406q-25 -29 -49.5 -50.5t-54 -36t-67.5 -21.5t-89 -7q-86 0 -156.5 34t-121 90t-79 128t-28.5 147q0 74 30.5 144.5t83 125t122 88.5t149.5 34q76 0 146.5 -29t124 -80t86 -123 t32.5 -160v-690q0 -84 -31.5 -153.5t-84 -118.5t-121 -76t-140.5 -27q-74 0 -142.5 27t-121.5 76t-85 118.5t-32 153.5v19h-41v-19q0 -92 33 -169t89.5 -133t133 -87t166.5 -31q88 0 165 31t133.5 87t89 133t32.5 169v690q0 94 -35 175t-93 139.5t-134 91.5t-160 33 q-90 0 -170 -37t-139 -97.5t-94 -139.5t-35 -165zM211 1081q0 -70 24.5 -134t69.5 -113.5t107.5 -79t140.5 -29.5q63 0 113.5 16.5t87.5 44t61.5 62.5t40.5 72v-529q0 -63 -21.5 -116.5t-59.5 -92.5t-92 -60.5t-118 -21.5q-66 0 -120 21.5t-92 60.5t-59.5 92.5t-21.5 116.5 v19h-45v-19q0 -74 28 -135t75 -105.5t108.5 -69t126.5 -24.5q66 0 126.5 24.5t106.5 69t73.5 105.5t27.5 135v690q0 74 -27.5 138.5t-73.5 112.5t-106.5 75t-128.5 27q-78 0 -142.5 -30t-110.5 -79t-72.5 -112.5t-26.5 -131.5zM254 1081q0 57 21.5 112.5t61.5 98.5t95 68.5 t121 25.5q63 0 118.5 -21.5t96.5 -61t65.5 -96t24.5 -126.5q0 -74 -24.5 -132t-65.5 -98t-97.5 -60.5t-117.5 -20.5q-66 0 -120 25.5t-94 68.5t-62.5 99.5t-22.5 117.5zM297 1081q0 -55 18.5 -103t52 -84t81 -56.5t102.5 -20.5q43 0 90 13.5t86 44t63.5 82t24.5 124.5 q0 57 -19.5 105.5t-54 83.5t-83 55.5t-105.5 20.5t-104.5 -21.5t-81 -58.5t-52 -85.5t-18.5 -99.5zM340 1081q0 94 57.5 156.5t155.5 62.5q111 0 167 -62t56 -157q0 -94 -59.5 -158.5t-163.5 -64.5q-98 0 -155.5 62.5t-57.5 160.5zM483 969q0 -37 6 -64q25 -8 64 -8 q86 0 136 53.5t50 130.5q0 41 -16 58.5t-57 17.5q-86 0 -134.5 -54t-48.5 -134z" />
<glyph unicode=":" horiz-adv-x="497" d="M102 106q0 61 42 104.5t104 43.5q76 0 131 -66l80 -94q41 -47 41 -100q0 -59 -41 -98t-99 -39q-29 0 -54 11t-46 28l-92 79q-29 25 -47.5 57.5t-18.5 73.5zM102 819q0 59 42 102.5t104 43.5q41 0 72.5 -17.5t58.5 -46.5l80 -94q18 -23 29.5 -47.5t11.5 -52.5 q0 -59 -41 -99.5t-99 -40.5q-29 0 -54 12.5t-46 28.5l-92 80q-29 23 -47.5 56.5t-18.5 74.5zM141 106q0 -45 31 -75.5t76 -30.5t76.5 30.5t31.5 75.5t-31.5 77t-76.5 32t-76 -32t-31 -77zM141 817q0 -45 31 -75.5t76 -30.5t76.5 30.5t31.5 75.5t-31.5 77t-76.5 32t-76 -32 t-31 -77zM184 106q0 29 17.5 47.5t46.5 18.5q27 0 46 -18.5t19 -47.5q0 -27 -19.5 -45t-45.5 -18q-29 0 -46.5 18t-17.5 45zM184 817q0 29 17.5 47.5t46.5 18.5q27 0 46 -18.5t19 -47.5q0 -27 -19.5 -45t-45.5 -18q-29 0 -46.5 18t-17.5 45zM221 106q0 -25 27 -24 q27 0 26 24q0 10 -8 19.5t-18 9.5t-18.5 -9.5t-8.5 -19.5zM221 817q0 -25 27 -24q27 0 26 24q0 10 -8 19.5t-18 9.5t-18.5 -9.5t-8.5 -19.5z" />
<glyph unicode=";" horiz-adv-x="499" d="M102 104q0 66 44 108t106 42q53 0 87 -25.5t83 -85.5q33 -37 57.5 -73.5t24.5 -77.5q0 -20 -6 -43t-23 -45l-139 -187l-201 183l53 71q-49 35 -67.5 66t-18.5 67zM104 819q0 59 41 102.5t105 43.5q41 0 72.5 -17.5t58.5 -46.5l80 -94q18 -23 29.5 -47.5t11.5 -52.5 q0 -59 -41 -99.5t-99 -40.5q-31 0 -55 12.5t-45 28.5l-92 80q-29 23 -47.5 56.5t-18.5 74.5zM141 104q0 -74 72 -100l20 31q-18 8 -34.5 24.5t-16.5 40.5q0 37 19.5 54.5t48.5 17.5t47 -18.5t18 -53.5q0 -16 -16 -45l-111 -147l35 -27l115 154q23 33 22 69q0 45 -30.5 78 t-77.5 33t-79 -30.5t-32 -80.5zM143 817q0 -45 30 -75.5t77 -30.5q45 0 76.5 30.5t31.5 75.5t-31.5 77t-76.5 32q-47 0 -77 -32t-30 -77zM186 817q0 29 17.5 47.5t46.5 18.5q27 0 46 -18.5t19 -47.5q0 -27 -19.5 -45t-45.5 -18q-29 0 -46.5 18t-17.5 45zM219 100 q0 -10 9.5 -17t21.5 -7t19 7t7 17q0 29 -26 29q-12 0 -21.5 -8.5t-9.5 -20.5zM223 817q0 -25 27 -24q27 0 26 24q0 10 -8 19.5t-18 9.5q-12 0 -19.5 -9.5t-7.5 -19.5z" />
<glyph unicode="&#x3c;" horiz-adv-x="962" d="M102 578v294l758 254l107 -118v-310l-144 -47l37 -14l107 -117v-305l-746 254zM141 604l682 -233v47l-682 231v-45zM141 698l682 -233v51l-612 207l612 207v47l-682 -232v-47zM141 797l682 231v47l-682 -229v-49zM352 723l471 -160v47l-331 113l331 111v47z" />
<glyph unicode="=" horiz-adv-x="964" d="M102 387v289h107l-107 92v289h760l107 -117v-278h-105l105 -105v-276h-748zM141 426h684v41h-684v-41zM141 510h684v43h-684v-43zM141 594h684v43h-684v-43zM141 807h684v45h-684v-45zM141 893h684v43h-684v-43zM141 977h684v43h-684v-43z" />
<glyph unicode="&#x3e;" horiz-adv-x="962" d="M102 322v315l136 45l-136 127v317l758 -254l107 -116v-287l-746 -254zM141 371l682 233v45l-682 -231v-47zM141 465l682 233v47l-682 232v-47l613 -207l-613 -207v-51zM141 563l469 160l-469 158v-47l332 -111l-332 -113v-47zM141 1028l682 -231v49l-682 229v-47z" />
<glyph unicode="?" horiz-adv-x="1052" d="M59 1100q0 106 39 191t103.5 144.5t149.5 91.5t175 32q119 0 217.5 -54.5t196.5 -163.5q80 -88 119 -176t39 -188q0 -164 -90 -278.5t-244 -157.5q-35 -10 -64.5 -40t-29.5 -89q0 -20 8 -51t41 -85h-301l-117 107q-14 43 -19.5 78t-5.5 63q0 150 77 255.5t218 144.5 q66 18 105 62t39 104q0 43 -15.5 61t-60.5 18q-39 0 -73 -14t-59.5 -37.5t-39.5 -55.5t-14 -67q0 -16 4 -42.5t16 -55.5l-264 -72l-117 105q-33 100 -33 170zM98 1100q0 -33 4 -62.5t15 -60.5l39 10q-10 29 -12.5 53.5t-2.5 53.5q0 86 32 157.5t84 122.5t122 80t147 29 q82 0 153 -31t122 -83t79.5 -122.5t28.5 -150.5q0 -68 -20.5 -128.5t-57 -108.5t-88 -83t-112.5 -51q-66 -20 -108 -70.5t-42 -132.5q0 -23 5.5 -49.5t17.5 -52.5h45q-16 27 -20.5 53.5t-4.5 50.5q0 72 37 109t82 49q141 45 226 149.5t85 258.5q0 92 -32.5 170.5t-90 136 t-135.5 90.5t-170 33q-84 0 -160.5 -29t-136 -83t-95.5 -132t-36 -176zM180 1106q0 -23 5 -49.5t16 -55.5l39 11q-18 39 -19 90q0 63 24.5 117.5t66.5 93.5t97.5 61.5t116.5 22.5q66 0 121 -22.5t96 -61.5t63.5 -93.5t22.5 -117.5q0 -104 -58 -186t-163 -109 q-96 -25 -153.5 -100.5t-57.5 -192.5q0 -41 17 -94h43q-14 49 -15 100q0 94 48.5 161t130.5 85q113 29 180 121t67 217q0 66 -25.5 128t-70.5 110.5t-107.5 77t-136.5 28.5q-66 0 -128 -27.5t-111 -75t-79 -108.5t-30 -131zM266 1102q0 -20 2 -37.5t11 -38.5l43 8 q-6 20 -10.5 39t-4.5 35q0 41 17.5 78t46 65.5t68.5 46t87 17.5q96 0 161 -62.5t65 -162.5q0 -72 -45 -125.5t-123 -75.5q-129 -37 -199 -133.5t-70 -231.5q0 -55 13 -104h43q-4 23 -8.5 46t-4.5 46q0 129 64.5 218t173.5 118q82 20 137 89t55 159q0 113 -70.5 188.5 t-191.5 75.5q-49 0 -96 -20.5t-84 -56.5t-58.5 -83t-21.5 -98zM322 106q0 61 42 104.5t103 43.5q41 0 73.5 -17.5t57.5 -48.5l80 -94q41 -47 41 -100q0 -59 -41 -98t-98 -39q-29 0 -54.5 11t-46.5 28l-92 79q-29 25 -47 57.5t-18 73.5zM358 106q0 -45 31 -75.5t76 -30.5 t76.5 30.5t31.5 75.5t-31.5 77t-76.5 32t-76 -32t-31 -77zM401 106q0 29 18.5 47.5t45.5 18.5q29 0 47 -18.5t18 -47.5q0 -27 -18 -45t-47 -18q-27 0 -45.5 18t-18.5 45zM440 106q0 -10 7.5 -17t17.5 -7q27 0 27 24q0 10 -8.5 19.5t-18.5 9.5t-17.5 -9.5t-7.5 -19.5z" />
<glyph unicode="@" horiz-adv-x="1513" d="M63 602q0 184 59.5 332.5t159 253t228.5 161t268 56.5q100 0 184.5 -16.5t155 -48t131 -77.5t113.5 -106q100 -113 143 -234.5t43 -265.5q0 -231 -75.5 -359t-208.5 -185l94 -95l149 -223q-25 -16 -77 -39.5t-125.5 -46t-164.5 -39t-194 -16.5q-184 0 -323 53.5 t-256 155.5q-162 145 -233 328.5t-71 410.5zM100 602q0 -172 41 -319.5t130 -255t228.5 -169t334.5 -61.5q98 0 184 13.5t153.5 33t113.5 41t69 35.5l-21 33q-20 -14 -64 -33.5t-108.5 -38t-147.5 -31t-179 -12.5q-184 0 -314.5 57.5t-214.5 160t-123 241.5t-39 305 t53.5 300t141.5 228.5t202.5 145.5t237.5 51q160 0 270.5 -41t181 -114.5t102.5 -176t32 -225.5q0 -147 -36 -246.5t-101.5 -159t-158.5 -85t-208 -25.5q-88 0 -147.5 17.5t-96 55.5t-52 99t-15.5 149t15.5 149.5t49 99.5t86 55.5t127.5 17.5h158v-514q117 25 188.5 114 t71.5 273q0 96 -25.5 177t-82 138.5t-145.5 89t-214 31.5q-100 0 -193 -43t-165 -120.5t-115 -190.5t-43 -250q0 -141 34 -259t103.5 -203t177 -133t257.5 -48q86 0 157.5 10.5t127 24.5t91 29.5t52.5 27.5l-25 33q-14 -10 -48 -25.5t-86 -29t-120 -22.5t-149 -9 q-137 0 -237.5 45t-166 125t-97.5 190.5t-32 243.5q0 129 40 232.5t106.5 177t152.5 113.5t178 40q115 0 197 -28.5t133 -80.5t74.5 -125t23.5 -161q0 -141 -51 -223t-129 -111v500h-199q-86 0 -146 -18.5t-98 -61.5t-55.5 -111.5t-17.5 -169.5q0 -98 17.5 -167.5 t57.5 -112.5t107.5 -63.5t167.5 -20.5q125 0 226.5 27.5t172 92t108.5 172t38 267.5q0 131 -35 240.5t-109.5 188.5t-194.5 123t-288 44q-133 0 -255 -53t-216 -152.5t-150.5 -241t-56.5 -317.5zM182 602q0 -158 37 -290t117 -228t203 -150.5t295 -54.5q92 0 170.5 11.5 t140 29t103.5 35.5t61 31l-25 32q-16 -12 -55 -29.5t-97.5 -32.5t-134 -26.5t-163.5 -11.5q-160 0 -276 51t-190.5 142.5t-110.5 217.5t-36 273t47 266t124 204t177.5 130t208.5 45q137 0 233.5 -34.5t157 -98t88 -152t27.5 -192.5q0 -111 -23.5 -188.5t-68.5 -130 t-107.5 -80t-140.5 -35.5v520h-117q-131 0 -185 -62.5t-54 -218.5q0 -78 13 -131t45 -86.5t84 -49t130 -15.5q106 0 192.5 23.5t147 79t93 147.5t32.5 227q0 113 -29.5 208t-96 163.5t-170 106.5t-251.5 38q-117 0 -224.5 -48t-190 -137t-132 -215t-49.5 -284zM446 489 q0 -104 18.5 -188t62.5 -143.5t119 -91t188 -31.5q78 0 145.5 11t120.5 28q-59 -6 -127 -6q-109 0 -187.5 23.5t-160.5 92.5q-92 76 -122 167t-30 224q0 68 6 123q-33 -90 -33 -209zM631 575q0 133 44 186.5t152 53.5h78v-483h-45q-131 0 -180 55t-49 188zM670 575 q0 -111 41 -156.5t149 -45.5h6v403h-39q-86 0 -121.5 -44t-35.5 -157zM674 954q63 18 153 19h236l96 -111q-4 55 -26.5 87t-58.5 48.5t-84 20.5t-99 4q-115 0 -217 -68zM709 575q0 90 26.5 125t89.5 37v-323q-66 8 -91 45.5t-25 115.5z" />
<glyph unicode="A" d="M96 -37v1137q0 98 36 182t98.5 145.5t145.5 96.5t179 35q117 0 219.5 -55.5t200.5 -166.5q76 -86 114.5 -172t38.5 -178v-1130h-276l-119 106v533h-244v-639h-276zM133 0h41v1104q0 76 33 144.5t86 120.5t122.5 83t141.5 31q76 0 144.5 -32t122 -84t85 -120.5 t31.5 -142.5v-1104h45v1100q0 88 -35 163.5t-93 133t-136 90.5t-166 33t-165 -32t-134 -88.5t-90 -133t-33 -166.5v-1100zM217 0h43v725h596v-725h41v1104q0 66 -26.5 127t-72.5 109.5t-108.5 77t-134.5 28.5q-68 0 -129 -26.5t-107.5 -75t-74 -112t-27.5 -136.5v-1096z M260 766v338q0 61 23.5 114.5t63.5 93.5t94.5 63.5t113.5 23.5q61 0 115.5 -23.5t96.5 -64.5t65.5 -96.5t23.5 -118.5v-330h-596zM303 0h41v639h426v-639h41v680h-508v-680zM303 809h508v287q0 55 -19.5 103t-53 83t-81 55.5t-102.5 20.5t-101 -20.5t-80 -55.5t-52.5 -83 t-18.5 -103v-287zM344 852v252q0 94 56.5 152.5t154.5 58.5q96 0 155.5 -56.5t59.5 -154.5v-252h-426zM489 891h244v213q0 41 -11 53t-54 12q-84 0 -131.5 -50t-47.5 -128v-100z" />
<glyph unicode="B" horiz-adv-x="1114" d="M102 -37v1569h459q129 0 226.5 -46t189.5 -149q80 -92 115.5 -178t35.5 -192q0 -123 -35.5 -203t-95.5 -131q70 -68 103 -144.5t33 -187.5q0 -109 -33 -191.5t-93.5 -139t-144.5 -85t-188 -28.5h-453zM141 0h420q195 0 310.5 105.5t115.5 308.5q0 131 -43 207.5 t-113 123.5q70 47 112 125t42 209q0 203 -114.5 309.5t-309.5 106.5h-420v-1495zM182 41v1409h379q178 0 279.5 -96.5t101.5 -274.5q0 -117 -38 -198.5t-136 -135.5q98 -53 138 -135t40 -196q0 -176 -103.5 -274.5t-281.5 -98.5h-379zM223 86h338q160 0 254 88t94 240 q0 131 -62.5 218t-166.5 113q104 29 164.5 116t60.5 218q0 150 -92 239t-252 89h-338v-1321zM268 127v598h293q74 0 131.5 -23.5t96 -65.5t59 -99.5t20.5 -122.5q0 -129 -79.5 -208t-227.5 -79h-293zM268 766v600h293q147 0 226 -79t79 -208q0 -66 -19.5 -123t-58 -99 t-96 -66.5t-131.5 -24.5h-293zM309 168h252q129 0 198.5 66.5t69.5 179.5q0 135 -75.5 200.5t-192.5 65.5h-252v-512zM309 809h252q117 0 190.5 67.5t73.5 202.5q0 113 -67.5 178.5t-196.5 65.5h-252v-514zM352 211v430h209q98 0 162.5 -56.5t64.5 -170.5q0 -100 -60 -151.5 t-167 -51.5h-209zM352 852v428h209q106 0 165.5 -50t59.5 -151q0 -119 -63.5 -173t-161.5 -54h-209zM498 248h63q88 0 139.5 42t51.5 124q0 55 -15.5 69.5t-62.5 14.5h-176v-250zM498 889h63q80 0 133.5 46t53.5 144q0 33 -13.5 45.5t-60.5 12.5h-176v-248z" />
<glyph unicode="C" horiz-adv-x="1097" d="M88 391v709q0 100 36 185t99.5 145.5t147.5 94.5t180 34q117 0 218 -52.5t198 -160.5q78 -86 115.5 -173.5t37.5 -185.5v-74h-276l-119 107v80q0 39 -12.5 51t-48.5 12q-86 0 -134.5 -46t-48.5 -130v-708q0 -35 12.5 -45.5t57.5 -10.5q80 0 127 45t47 123v76h289 l106 -119v-69q0 -98 -35.5 -181.5t-97 -143.5t-145.5 -93t-178 -33q-190 0 -365 156q-104 92 -157.5 190t-53.5 217zM125 391q0 -92 34 -169t91 -133t135 -87t166 -31t166 31t135 87t91 133t34 169v39h-43v-39q0 -84 -33 -153.5t-86 -118.5t-121.5 -76t-142.5 -27t-142.5 27 t-123 76t-87 118.5t-32.5 153.5v709q0 86 32.5 155.5t87 118.5t123 76t142.5 27t142.5 -27t121.5 -76t86 -118.5t33 -155.5v-43h43v43q0 92 -34 170t-91 133t-135 86t-166 31t-166 -31t-135 -86t-91 -133t-34 -170v-709zM211 391q0 -74 28.5 -135t75.5 -105.5t108.5 -69 t127.5 -24.5t127 24.5t108.5 69t76 105.5t28.5 135v39h-43v-39q0 -63 -22.5 -116.5t-61.5 -92.5t-94.5 -60.5t-118.5 -21.5q-66 0 -120 21.5t-93 60.5t-61.5 92.5t-22.5 116.5v709q0 66 22.5 120t61.5 92t93 59.5t120 21.5q63 0 118.5 -21.5t94.5 -59.5t61.5 -92.5 t22.5 -119.5v-43h43v43q0 76 -28.5 137t-76 105t-109 69t-126.5 25q-66 0 -127.5 -25t-108.5 -69t-75.5 -105t-28.5 -137v-709zM297 391q0 -57 20.5 -103t55.5 -78t81 -49.5t97 -17.5t97 17.5t81 49.5t56.5 78t21.5 103v39h-43v-39q0 -98 -57.5 -151.5t-155.5 -53.5 t-155.5 53.5t-57.5 151.5v709q0 98 57.5 153.5t155.5 55.5t155.5 -55.5t57.5 -153.5v-43h43v43q0 57 -21.5 104t-56.5 79t-81 49.5t-97 17.5t-97 -17.5t-81 -49.5t-55.5 -79t-20.5 -104v-709z" />
<glyph unicode="D" horiz-adv-x="1114" d="M102 -37v1569h467q117 0 214.5 -52.5t185.5 -152.5q82 -92 123 -183t41 -194v-631q0 -100 -34 -185t-94.5 -146.5t-143.5 -96t-179 -34.5h-461zM141 0h428q90 0 167 33t132.5 90t87 137t31.5 172v631q0 92 -31.5 172t-87 137.5t-132.5 90t-167 32.5h-428v-1495zM182 43 v1407h377q82 0 153.5 -29.5t123 -81t81 -120t29.5 -146.5v-653q0 -78 -29.5 -146.5t-81 -120t-123 -81t-153.5 -29.5h-377zM223 86h346q70 0 131.5 26.5t106.5 71.5t71.5 106.5t26.5 129.5v653q0 68 -26.5 129.5t-71.5 106.5t-106.5 71.5t-131.5 26.5h-346v-1321zM268 127 v1239h291q66 0 121 -22.5t96 -62.5t63.5 -96.5t22.5 -121.5v-631q0 -68 -22.5 -123t-63.5 -96t-96 -63.5t-121 -22.5h-291zM309 170h260q106 0 178 71.5t72 190.5v631q0 57 -19.5 105.5t-53 83t-78.5 53t-99 18.5h-260v-1153zM352 211v1069h207q98 0 157.5 -53t59.5 -154 v-653q0 -98 -59.5 -153.5t-157.5 -55.5h-207zM498 250h61q82 0 131 45t49 125v653q0 43 -11 53.5t-56 10.5h-174v-887z" />
<glyph unicode="E" horiz-adv-x="1112" d="M102 391v709q0 100 36 185t99.5 145.5t147.5 94.5t180 34q121 0 222.5 -54.5t195.5 -163.5q72 -86 112 -171t40 -183v-74h-277l-117 107v80q0 39 -9 51t-54 12q-86 0 -133 -46t-47 -130v-98h254l106 -119v-276h-360v-215q0 -35 11 -45.5t56 -10.5q82 0 129 45t47 123v76 h287l107 -119v-69q0 -98 -36 -181.5t-97.5 -143.5t-145.5 -93t-178 -33q-188 0 -367 160q-102 90 -155.5 187t-53.5 216zM141 391q0 -92 33 -169t90.5 -133t135 -87t165.5 -31t166 31t135.5 87t90 133t32.5 169v39h-41v-39q0 -84 -32.5 -153.5t-86 -118.5t-122 -76 t-142.5 -27t-142.5 27t-121.5 76t-86 118.5t-33 153.5v709q0 86 33 155.5t86 118.5t122 76t142 27q74 0 142.5 -27t122 -76t86 -118.5t32.5 -155.5v-43h41v43q0 92 -32.5 170t-90 133t-135.5 86t-166 31t-165.5 -31t-135 -86t-90.5 -133t-33 -170v-709zM225 391 q0 -74 29 -135t76 -105.5t108.5 -69t126.5 -24.5q66 0 127.5 24.5t108.5 69t75.5 105.5t28.5 135v39h-43v-39q0 -63 -21.5 -116.5t-61.5 -92.5t-94 -60.5t-120 -21.5t-119 21.5t-93 60.5t-61.5 92.5t-21.5 116.5v332h445v41h-445v336q0 66 21.5 120t61.5 92t93.5 59.5 t118.5 21.5q131 0 214 -81t83 -212v-43h43v43q0 76 -28.5 137t-75.5 105t-108.5 69t-127.5 25t-127 -25t-108 -69t-76 -105t-29 -137v-709zM311 391q0 -57 20.5 -103t56.5 -78t82 -49.5t95 -17.5t95.5 17.5t82 49.5t56 78t20.5 103v39h-41v-39q0 -98 -57 -151.5t-156 -53.5 q-98 0 -155.5 53.5t-57.5 151.5v246h363v43h-404v-289zM311 807h404v45h-363v248q0 98 57.5 153.5t155.5 55.5t155.5 -55.5t57.5 -153.5v-43h41v43q0 57 -20.5 104t-56 79t-82 49.5t-95.5 17.5t-95 -17.5t-82 -49.5t-56.5 -79t-20.5 -104v-293z" />
<glyph unicode="F" horiz-adv-x="1064" d="M96 -37v1137q0 100 36 185t98.5 145.5t147.5 94.5t181 34q117 0 218.5 -52.5t199.5 -163.5q76 -86 113.5 -172t37.5 -184v-74h-276l-119 107v80q0 39 -9 51t-52 12q-86 0 -134.5 -46t-48.5 -130v-98h254l109 -119v-276h-363v-637h-276zM133 0h41v1100q0 86 33 155.5 t87 118.5t122.5 76t142.5 27q72 0 140.5 -27t121.5 -76t86 -118.5t33 -155.5v-43h45v43q0 92 -33.5 170t-91 133t-135.5 86t-166 31q-90 0 -167 -31t-135 -86t-91 -133t-33 -170v-1100zM217 0h45v723h445v41h-445v336q0 66 22.5 120t61.5 92t93.5 59.5t119.5 21.5 q63 0 117.5 -21.5t94.5 -59.5t61.5 -92.5t21.5 -119.5v-43h43v43q0 76 -28.5 137t-76 105t-107.5 69t-126 25t-127 -25t-109.5 -69t-77 -105t-28.5 -137v-1100zM303 0h41v637h363v43h-404v-680zM303 807h404v45h-363v248q0 98 58.5 153.5t156.5 55.5t154.5 -55.5 t56.5 -153.5v-43h41v43q0 57 -20.5 104t-55.5 79t-81 49.5t-95 17.5q-51 0 -97 -17.5t-82 -49.5t-56.5 -79t-20.5 -104v-293z" />
<glyph unicode="G" horiz-adv-x="1101" d="M88 391v709q0 100 36 185t99.5 145.5t147.5 94.5t180 34q117 0 221.5 -50.5t194.5 -162.5q82 -82 117.5 -171.5t35.5 -187.5v-74h-276l-119 107v80q0 39 -9 51t-52 12q-86 0 -134.5 -46t-48.5 -130v-708q0 -39 12.5 -47.5t57.5 -8.5q80 0 127 45t47 123v27h-96l-119 106 v287h504l106 -117v-415q0 -98 -35.5 -181.5t-97 -143.5t-145.5 -93t-178 -33q-193 0 -363 154q-104 94 -158.5 192t-54.5 217zM125 391q0 -92 34 -169t91 -133t135 -87t166 -31t166 31t135 87t91 133t34 169v383h-430v-43h387v-340q0 -84 -33 -153.5t-86 -118.5t-121.5 -76 t-142.5 -27t-142.5 27t-123 76t-87 118.5t-32.5 153.5v709q0 86 32.5 155.5t87 118.5t123 76t142.5 27t142.5 -27t121.5 -76t86 -118.5t33 -155.5v-43h43v43q0 92 -34 170t-91 133t-135 86t-166 31t-166 -31t-135 -86t-91 -133t-34 -170v-709zM211 391q0 -74 28.5 -135 t75.5 -105.5t108.5 -69t127.5 -24.5t127 24.5t108.5 69t76 105.5t28.5 135v297h-344v-41h301v-256q0 -63 -22.5 -116.5t-61.5 -92.5t-94.5 -60.5t-118.5 -21.5q-66 0 -120 21.5t-93 60.5t-61.5 92.5t-22.5 116.5v709q0 66 22.5 120t61.5 92t93 59.5t120 21.5 q63 0 118.5 -21.5t94.5 -59.5t61.5 -92.5t22.5 -119.5v-43h43v43q0 76 -28.5 137t-76 105t-109 69t-126.5 25q-66 0 -127.5 -25t-108.5 -69t-75.5 -105t-28.5 -137v-709zM297 391q0 -57 20.5 -103t55.5 -78t81 -49.5t97 -17.5t97 17.5t81 49.5t56.5 78t21.5 103v213h-260 v-41h217v-172q0 -98 -57.5 -151.5t-155.5 -53.5t-155.5 53.5t-57.5 151.5v709q0 98 57.5 153.5t155.5 55.5t155.5 -55.5t57.5 -153.5v-43h43v43q0 57 -21.5 104t-56.5 79t-81 49.5t-97 17.5t-97 -17.5t-81 -49.5t-55.5 -79t-20.5 -104v-709z" />
<glyph unicode="H" horiz-adv-x="1130" d="M102 -37v1569h287l109 -119v-524h243v643h287l107 -119v-1556h-277l-117 106v531h-243v-637h-277zM141 0h43v1495h-43v-1495zM225 0h45v723h594v-723h41v1495h-41v-731h-594v731h-45v-1495zM311 0h41v637h426v-637h43v680h-510v-680zM311 807h510v688h-43v-643h-426v643 h-41v-688zM948 0h41v1495h-41v-1495z" />
<glyph unicode="I" horiz-adv-x="493" d="M102 -37v1569h287l109 -119v-1556h-277zM141 0h43v1495h-43v-1495zM225 0h45v1495h-45v-1495zM311 0h41v1495h-41v-1495z" />
<glyph unicode="J" horiz-adv-x="1122" d="M102 391v76h287l109 -119v-69q0 -33 11 -44.5t56 -11.5q82 0 129 45t47 123v1141h287l107 -119v-1134q0 -98 -36 -181.5t-97.5 -143.5t-145.5 -93t-178 -33q-98 0 -189.5 39t-185.5 123q-98 86 -149.5 184t-51.5 217zM141 391q0 -92 33 -169t90.5 -133t135 -87t165.5 -31 t166 31t135.5 87t90 133t32.5 169v1104h-41v-1104q0 -84 -32.5 -153.5t-86 -118.5t-122 -76t-142.5 -27t-142.5 27t-121.5 76t-86 118.5t-33 153.5v39h-41v-39zM225 391q0 -74 29 -135t76 -105.5t108.5 -69t126.5 -24.5q66 0 127.5 24.5t108.5 69t75.5 105.5t28.5 135v1104 h-43v-1104q0 -63 -21.5 -116.5t-61.5 -92.5t-94 -60.5t-120 -21.5t-119 21.5t-93 60.5t-61.5 92.5t-21.5 116.5v39h-45v-39zM311 391q0 -57 20.5 -103t56.5 -78t82 -49.5t95 -17.5t95.5 17.5t82 49.5t56 78t20.5 103v1104h-41v-1104q0 -98 -57 -151.5t-156 -53.5 q-98 0 -155.5 53.5t-57.5 151.5v39h-41v-39z" />
<glyph unicode="K" horiz-adv-x="1128" d="M102 -37v1569h287l109 -119v-524h63q80 0 128 46t48 144v453h287l106 -119v-446q0 -121 -36.5 -202t-96.5 -132q72 -70 108 -145.5t36 -186.5v-444h-277l-119 106v451q0 47 -9 65.5t-62 18.5h-176v-641h-277zM141 0h41v1495h-41v-1495zM223 0h45v725h293 q74 0 131.5 -23.5t96 -65.5t58 -99.5t19.5 -122.5v-414h45v414q0 131 -63.5 218t-167.5 113q104 29 162.5 116t58.5 218v416h-43v-416q0 -66 -18.5 -123t-55 -99t-93 -66.5t-130.5 -24.5h-293v729h-45v-1495zM309 0h43v641h209q98 0 160.5 -56.5t62.5 -170.5v-414h41v414 q0 135 -73.5 200.5t-190.5 65.5h-252v-680zM309 809h252q117 0 185.5 67.5t68.5 202.5v416h-41v-416q0 -119 -57.5 -173t-155.5 -54h-209v643h-43v-686zM768 745q98 -53 141 -135t43 -196v-414h43v414q0 131 -47 207.5t-117 123.5q70 47 112 125t42 209v416h-43v-416 q0 -117 -38 -198.5t-136 -135.5z" />
<glyph unicode="L" horiz-adv-x="849" d="M102 -37v1569h287l109 -119v-1163h299l106 -119v-274h-682l-106 106h-13zM141 0h619v41h-576v1454h-43v-1495zM225 86h535v41h-492v1368h-43v-1409zM311 170h449v41h-408v1284h-41v-1325z" />
<glyph unicode="M" horiz-adv-x="1536" d="M96 -37v1184q0 90 24.5 166t75 130t127 85t181.5 31q84 0 148.5 -23t113.5 -63q92 86 266 86q123 0 209 -45.5t168 -137.5q74 -86 105.5 -167t31.5 -175v-1177h-274l-119 106v1200h-8q-53 0 -91 -31.5t-38 -97.5v-1177h-273l-116 106v1200h-11q-55 0 -91 -31.5t-36 -97.5 v-1177h-276zM133 0h41v1147q0 143 82 236.5t248 93.5q86 0 148.5 -29t115.5 -90q53 61 116.5 90t147.5 29q82 0 143.5 -25t103.5 -69t62.5 -104t20.5 -132v-1147h41v1147q0 82 -22.5 150.5t-68.5 117.5t-116 77t-164 28q-86 0 -154.5 -27t-111.5 -72q-45 45 -109.5 72 t-152.5 27q-94 0 -164 -28t-116 -77t-68.5 -117.5t-22.5 -150.5v-1147zM217 0h45v1147q0 113 62.5 179.5t179.5 66.5t180.5 -66.5t63.5 -179.5v-1147h40v1147q0 113 63.5 179.5t180.5 66.5t179.5 -66.5t62.5 -179.5v-1147h43v1147q0 129 -71.5 209t-213.5 80 q-104 0 -171.5 -45t-94.5 -140q-14 86 -88 135.5t-174 49.5q-139 0 -213 -80t-74 -209v-1147zM303 0h41v1147q0 82 45 122t115 40q68 0 114 -40t46 -122v-1147h41v1147q0 96 -55.5 149.5t-145.5 53.5q-88 0 -144.5 -53.5t-56.5 -149.5v-1147zM829 0h43v1147q0 82 45.5 122 t114.5 40q68 0 113 -40t45 -122v-1147h41v1147q0 96 -54.5 149.5t-144.5 53.5q-88 0 -145.5 -53.5t-57.5 -149.5v-1147z" />
<glyph unicode="N" d="M96 -37v1137q0 100 36 185t98.5 145.5t147.5 94.5t181 34q117 0 217.5 -52.5t194.5 -158.5q78 -90 117.5 -176.5t39.5 -184.5v-1130h-276l-119 106v1137q0 39 -9 51t-52 12q-86 0 -134.5 -46t-48.5 -130v-1130h-276zM133 0h41v1100q0 86 33 155.5t87 118.5t122.5 76 t142.5 27q72 0 140.5 -27t121.5 -76t86 -118.5t33 -155.5v-1100h45v1100q0 92 -33.5 170t-91 133t-135.5 86t-166 31q-90 0 -167 -31t-135 -86t-91 -133t-33 -170v-1100zM217 0h45v1100q0 66 22.5 120t61.5 92t93.5 59.5t119.5 21.5q63 0 117.5 -21.5t94.5 -59.5t61.5 -92.5 t21.5 -119.5v-1100h43v1100q0 76 -28.5 137t-76 105t-107.5 69t-126 25t-127 -25t-109.5 -69t-77 -105t-28.5 -137v-1100zM303 0h41v1100q0 98 58.5 153.5t156.5 55.5t154.5 -55.5t56.5 -153.5v-1100h41v1100q0 57 -20.5 104t-55.5 79t-81 49.5t-95 17.5q-51 0 -97 -17.5 t-82 -49.5t-56.5 -79t-20.5 -104v-1100z" />
<glyph unicode="O" horiz-adv-x="1101" d="M88 391v709q0 100 36 185t99.5 145.5t147.5 94.5t180 34q117 0 223.5 -49.5t192.5 -157.5q74 -92 113.5 -179.5t39.5 -185.5v-708q0 -98 -35.5 -181.5t-97 -143.5t-145.5 -93t-178 -33q-98 0 -189.5 45t-208.5 143q-78 68 -128 162t-50 213zM125 391q0 -92 34 -169 t91 -133t135 -87t166 -31t166 31t135 87t91 133t34 169v709q0 92 -34 170t-91 133t-135 86t-166 31t-166 -31t-135 -86t-91 -133t-34 -170v-709zM166 391v709q0 86 32.5 155.5t87 118.5t123 76t142.5 27t142.5 -27t121.5 -76t86 -118.5t33 -155.5v-709q0 -84 -33 -153.5 t-86 -118.5t-121.5 -76t-142.5 -27t-142.5 27t-123 76t-87 118.5t-32.5 153.5zM211 391q0 -74 28.5 -135t75.5 -105.5t108.5 -69t127.5 -24.5t127 24.5t108.5 69t76 105.5t28.5 135v709q0 76 -28.5 137t-76 105t-109 69t-126.5 25q-66 0 -127.5 -25t-108.5 -69t-75.5 -105 t-28.5 -137v-709zM254 391v709q0 66 22.5 120t61.5 92t93 59.5t120 21.5q63 0 118.5 -21.5t94.5 -59.5t61.5 -92.5t22.5 -119.5v-709q0 -63 -22.5 -116.5t-61.5 -92.5t-94.5 -60.5t-118.5 -21.5q-66 0 -120 21.5t-93 60.5t-61.5 92.5t-22.5 116.5zM297 391q0 -57 20.5 -103 t55.5 -78t81 -49.5t97 -17.5t97 17.5t81 49.5t56.5 78t21.5 103v709q0 57 -21.5 104t-56.5 79t-81 49.5t-97 17.5t-97 -17.5t-81 -49.5t-55.5 -79t-20.5 -104v-709zM338 391v709q0 98 57.5 153.5t155.5 55.5t155.5 -55.5t57.5 -153.5v-709q0 -98 -57.5 -151.5t-155.5 -53.5 t-155.5 53.5t-57.5 151.5zM481 279q0 -33 12.5 -44.5t57.5 -11.5q80 0 127 45t47 123v709q0 39 -9 51t-52 12q-86 0 -134.5 -46t-48.5 -130v-708z" />
<glyph unicode="P" horiz-adv-x="1095" d="M102 -37v1569h459q117 0 223.5 -56.5t190.5 -160.5q74 -92 117 -179t43 -180q0 -96 -38 -179t-102.5 -145.5t-147.5 -98t-173 -35.5h-176v-641h-277zM141 0h43v1450h377q80 0 150.5 -30.5t123 -83t83 -122t30.5 -145.5q0 -78 -32.5 -148.5t-87 -123t-124 -83 t-143.5 -30.5h-250v-684h41v643h209q84 0 161 33t136.5 91t95 135t35.5 167q0 86 -33.5 164t-91 136t-136.5 92t-167 34h-420v-1495zM225 0h43v729h293q68 0 130.5 25.5t109.5 70.5t75.5 107.5t28.5 136.5q0 70 -26.5 132.5t-72.5 107.5t-108.5 71.5t-136.5 26.5h-336v-1407 zM268 770v596h293q63 0 119.5 -23.5t96.5 -64.5t63.5 -95.5t23.5 -113.5q0 -61 -23.5 -116.5t-64.5 -95.5t-96 -63.5t-119 -23.5h-293zM313 809h248q113 0 186.5 68.5t73.5 191.5q0 53 -19.5 100.5t-54 81t-83 53t-103.5 19.5h-248v-514zM352 856v424h209q98 0 157.5 -56.5 t59.5 -154.5t-59.5 -155.5t-157.5 -57.5h-209zM498 895h63q82 0 131 47t49 127q0 43 -10 55.5t-57 12.5h-176v-242z" />
<glyph unicode="Q" horiz-adv-x="1124" d="M88 420v680q0 100 36 185t99.5 145.5t147.5 94.5t180 34q117 0 217 -52.5t195 -158.5q80 -90 118.5 -176.5t38.5 -184.5v-680q0 -74 -18 -135l41 -41v-274h-479q-98 0 -188.5 37.5t-180.5 117.5q-104 94 -155.5 191.5t-51.5 216.5zM125 420q0 -92 34 -170t91 -133.5 t135 -86t166 -30.5h448v43h-448q-74 0 -142.5 26.5t-123 76t-87 119t-32.5 155.5v680q0 86 32.5 155.5t87 118.5t123 76t142.5 27t142.5 -27t121.5 -76t86 -118.5t33 -155.5v-680q0 -74 -25.5 -138.5t-68.5 -111.5h159v41h-75q25 47 39 98t14 111v680q0 92 -34 170t-91 133 t-135 86t-166 31t-166 -31t-135 -86t-91 -133t-34 -170v-680zM211 420q0 -76 28.5 -137.5t75.5 -105.5t108.5 -67.5t127.5 -23.5h448v41h-282q74 41 124 115.5t50 177.5v680q0 76 -28.5 137t-76 105t-109 69t-126.5 25q-66 0 -127.5 -25t-108.5 -69t-75.5 -105t-28.5 -137 v-680zM254 420v680q0 66 22.5 120t61.5 92t93 59.5t120 21.5q63 0 118.5 -21.5t94.5 -59.5t61.5 -92.5t22.5 -119.5v-680q0 -63 -22.5 -117.5t-61.5 -93.5t-94.5 -60.5t-118.5 -21.5q-66 0 -120 21.5t-93 60.5t-61.5 93t-22.5 118zM297 420q0 -57 20.5 -103.5t55.5 -79 t81 -50t97 -17.5t97 17.5t81 50t56.5 78.5t21.5 104v680q0 57 -21.5 104t-56.5 79t-81 49.5t-97 17.5t-97 -17.5t-81 -49.5t-55.5 -79t-20.5 -104v-680zM338 420v680q0 98 57.5 153.5t155.5 55.5t155.5 -55.5t57.5 -153.5v-680q0 -98 -57.5 -153.5t-155.5 -55.5t-155.5 55.5 t-57.5 153.5zM481 307q0 -41 12.5 -49t57.5 -8q80 0 127 45t47 125v680q0 39 -9 51t-52 12q-86 0 -134.5 -46t-48.5 -130v-680z" />
<glyph unicode="R" horiz-adv-x="1128" d="M102 -37v1569h459q129 0 227.5 -48t196.5 -157q74 -86 108.5 -170t34.5 -190q0 -123 -35.5 -203t-95.5 -131q78 -76 111 -158t33 -174v-444h-277l-119 106v451q0 53 -13 68.5t-58 15.5h-176v-641h-277zM141 0h41v1450h379q178 0 279.5 -96.5t101.5 -274.5 q0 -117 -38 -198.5t-136 -135.5q96 -57 140 -141t44 -190v-414h43v414q0 104 -41 190t-123 141q70 47 112 125t42 209q0 203 -114.5 309.5t-309.5 106.5h-420v-1495zM223 0h45v725h293q70 0 126 -24.5t96 -66.5t61.5 -98.5t21.5 -121.5v-414h45v414q0 117 -59 209t-172 122 q104 29 164.5 116t60.5 218q0 150 -92 239t-252 89h-338v-1407zM268 766v600h293q147 0 226 -79t79 -208q0 -66 -19.5 -123t-58 -99t-96 -66.5t-131.5 -24.5h-293zM309 0h43v641h209q104 0 163.5 -62.5t59.5 -164.5v-414h41v414q0 127 -69.5 196.5t-194.5 69.5h-252v-680z M309 809h252q117 0 190.5 67.5t73.5 202.5q0 113 -67.5 178.5t-196.5 65.5h-252v-514zM352 852v428h209q106 0 165.5 -50t59.5 -151q0 -119 -63.5 -173t-161.5 -54h-209zM498 889h63q80 0 133.5 46t53.5 144q0 35 -13.5 46.5t-60.5 11.5h-176v-248z" />
<glyph unicode="S" horiz-adv-x="1114" d="M82 434h291l106 -117q0 -63 15.5 -80.5t62.5 -17.5q84 0 138.5 55.5t54.5 135.5q0 29 -4.5 51t-10.5 43q-55 23 -115.5 32.5t-123.5 32.5q-61 25 -109.5 62t-101.5 78q-43 35 -78 71.5t-59.5 81.5t-38 102.5t-13.5 131.5q0 102 36 187t98.5 146.5t148.5 95.5t184 34 q104 0 199.5 -49.5t187.5 -155.5q86 -98 130 -196.5t44 -211.5h-278l-119 107q0 53 -9 81.5t-42 28.5q-96 0 -146.5 -48t-50.5 -132v-25.5t4 -21.5q35 -10 61.5 -16.5t49.5 -12.5q63 -16 111.5 -34.5t91.5 -44t84 -60.5t88 -82q78 -78 123 -172t45 -215q0 -96 -36 -181 t-98.5 -149.5t-148.5 -102.5t-184 -38q-92 0 -179.5 39t-179.5 123q-111 98 -168 205.5t-61 238.5zM121 397q4 -92 40 -169.5t95 -135t137 -89.5t164 -32q92 0 171 35t137.5 95.5t92 139.5t33.5 169q0 127 -41 213t-129 151q-39 31 -81 48.5t-84 29.5t-85 21.5t-84 23.5 q-80 25 -115.5 72t-35.5 127q0 98 58.5 154.5t168.5 56.5q94 0 147.5 -58.5t53.5 -156.5h45q-6 113 -70.5 188.5t-175.5 75.5q-63 0 -112.5 -21.5t-84 -56.5t-53 -83t-18.5 -99q0 -176 176 -238q41 -14 83 -22.5t82 -19.5t80 -27.5t79 -47.5q78 -59 116.5 -140t38.5 -191 q0 -80 -29.5 -153t-82 -127t-125 -86t-156.5 -32q-78 0 -149.5 30t-125 82t-86 121.5t-32.5 151.5h-43zM133 1096q0 -80 17.5 -141.5t51.5 -106.5t82 -78t109 -57q29 -12 67 -19.5t80 -16.5t83 -22.5t73 -36.5q51 -37 70.5 -86t19.5 -122q0 -49 -17 -90t-48 -72t-73 -48.5 t-91 -17.5q-104 0 -162.5 58.5t-58.5 156.5h-45q0 -53 23.5 -101t61.5 -83t85 -55.5t96 -20.5q61 0 111.5 21.5t86.5 58.5t55 87t19 106q0 82 -24.5 140t-79.5 99q-35 27 -74 40t-80 21.5t-80.5 15.5t-78.5 22q-111 43 -174.5 126.5t-63.5 221.5q0 82 29.5 152.5t82 121.5 t123 80t154.5 29q78 0 146.5 -31t119 -84t79 -123t28.5 -149h45q0 92 -34 170.5t-90 136t-132 89.5t-162 32q-90 0 -169 -31t-137 -87t-91 -134t-33 -172zM207 397q2 -72 31.5 -134t78 -109.5t110.5 -75t130 -27.5q74 0 138.5 29t113.5 78t77.5 114.5t28.5 137.5 q0 102 -35.5 177t-107.5 128q-37 27 -76 42t-80 26.5t-81.5 19.5t-83.5 24q-92 33 -144.5 98.5t-52.5 170.5q0 68 22.5 122t63.5 93t97.5 60.5t123.5 21.5q61 0 114.5 -22.5t93.5 -63.5t62.5 -96.5t22.5 -118.5h43q-2 70 -28.5 133t-71.5 111t-104.5 77t-129.5 29 q-76 0 -140.5 -25.5t-111.5 -72t-73.5 -110t-26.5 -138.5q0 -119 60.5 -195t158.5 -115q41 -16 82 -24t82 -17.5t79 -23.5t72 -41q123 -96 123 -270q0 -63 -24.5 -121t-67.5 -101t-99 -68.5t-120 -25.5q-66 0 -121 23.5t-97 64.5t-65.5 96.5t-23.5 118.5h-43z" />
<glyph unicode="T" horiz-adv-x="1019" d="M45 1243v289h930l106 -119v-276h-319v-1280h-279l-118 106v1174h-201zM82 1280h321v-1280h43v1323h-364v-43zM82 1366h405v-1366h43v1366h408v41h-856v-41zM82 1450h856v45h-856v-45zM571 0h45v1280h322v43h-367v-1323z" />
<glyph unicode="U" d="M96 391v1141h287l106 -119v-1134q0 -39 11.5 -47.5t58.5 -8.5q80 0 127 45t47 123v1141h289l106 -119v-1134q0 -98 -35.5 -181.5t-98 -143.5t-145.5 -93t-177 -33q-190 0 -367 158q-104 90 -156.5 188t-52.5 217zM133 391q0 -92 33 -169t91 -133t135 -87t167 -31 q88 0 166 31t135.5 87t91 133t33.5 169v1104h-45v-1104q0 -84 -33 -153.5t-86 -118.5t-121.5 -76t-140.5 -27q-74 0 -142.5 27t-122.5 76t-87 118.5t-33 153.5v1104h-41v-1104zM217 391q0 -74 28.5 -135t77 -105.5t110 -69t126.5 -24.5q66 0 126 24.5t107.5 69t76 105.5 t28.5 135v1104h-43v-1104q0 -63 -21.5 -116.5t-61.5 -92.5t-94 -60.5t-118 -21.5q-66 0 -120 21.5t-93 60.5t-61.5 92.5t-22.5 116.5v1104h-45v-1104zM303 391q0 -57 20.5 -103t56.5 -78t82 -49.5t97 -17.5q49 0 95 17.5t81 49.5t55.5 78t20.5 103v1104h-41v-1104 q0 -98 -56.5 -151.5t-154.5 -53.5t-156.5 53.5t-58.5 151.5v1104h-41v-1104z" />
<glyph unicode="V" horiz-adv-x="1001" d="M35 1532h291l106 -119l111 -532l133 651h291l106 -119l-330 -1556h-262l-116 106zM82 1495l313 -1495h43l-313 1495h-43zM166 1495l315 -1495h39l318 1495h-45l-291 -1397l-291 1397h-45zM254 1495l248 -1196l250 1196h-43l-207 -1001l-207 1001h-41zM565 0h41l314 1495 h-43z" />
<glyph unicode="W" horiz-adv-x="1536" d="M96 346v1186h287l106 -119v-1190h15q51 0 87 30t36 93v1186h282l107 -119v-1190h16q51 0 86 30t35 93v1186h287l106 -119v-1180q0 -88 -24.5 -162.5t-73.5 -128t-125 -84t-178 -30.5q-84 0 -150.5 23.5t-113.5 64.5q-88 -88 -265 -88q-98 0 -177 33t-163 104 q-100 86 -140 177t-40 204zM133 346q0 -82 22.5 -150.5t68.5 -118.5t116 -78t164 -28q88 0 155.5 28t108.5 75q47 -47 112.5 -75t151.5 -28q94 0 164 28t116 78t68.5 118.5t22.5 150.5v1149h-41v-1149q0 -72 -20.5 -132t-62.5 -104t-103.5 -69t-143.5 -25q-164 0 -266 121 q-100 -121 -262 -121q-166 0 -248 93.5t-82 236.5v1149h-41v-1149zM217 346q0 -127 74 -208t213 -81q104 0 172.5 46.5t91.5 140.5q16 -86 89 -136.5t175 -50.5q141 0 213 81t72 208v1149h-43v-1149q0 -113 -62.5 -179.5t-179.5 -66.5t-180.5 66.5t-63.5 179.5v1149h-40 v-1149q0 -113 -63.5 -179.5t-180.5 -66.5t-179.5 66.5t-62.5 179.5v1149h-45v-1149zM303 346q0 -96 56.5 -149.5t144.5 -53.5q90 0 145.5 53.5t55.5 149.5v1149h-41v-1149q0 -82 -46.5 -121t-113.5 -39q-70 0 -115 39t-45 121v1149h-41v-1149zM829 346q0 -96 57.5 -149.5 t145.5 -53.5q90 0 144.5 53.5t54.5 149.5v1149h-41v-1149q0 -82 -45 -121t-113 -39q-70 0 -115 39t-45 121v1149h-43v-1149z" />
<glyph unicode="X" horiz-adv-x="911" d="M31 1532h288l109 -119l59 -176l109 295h285l104 -119l-278 -780l278 -776h-272l-117 106l-68 180l-100 -286h-276l-119 106l278 782zM82 1495l268 -750l-266 -745h41l268 745l-268 750h-43zM166 0h45l244 688l247 -688h46l-273 745l273 750h-46l-249 -684l-242 684h-45 l266 -741zM252 0h41l162 455l168 -455h39l-205 565zM252 1495l203 -571l207 571h-39l-168 -459l-162 459h-41zM520 745l266 -745h43l-268 745l268 750h-43z" />
<glyph unicode="Y" horiz-adv-x="1095" d="M84 1006v526h287l106 -119v-510q0 -41 12.5 -54t53.5 -13q92 0 135 48t43 122v526h289l108 -119v-520q0 -76 -23.5 -143.5t-65.5 -123t-99.5 -96.5t-122.5 -63v-610h-277l-118 106v555q-23 12 -48.5 32.5t-70.5 59.5q-104 92 -156.5 187.5t-52.5 208.5zM121 1006 q0 -74 23.5 -139.5t67.5 -119t104.5 -91.5t134.5 -56v-600h41v631q-70 10 -129.5 45t-103.5 87t-69.5 116.5t-25.5 136.5v479h-43v-489zM207 1006q0 -61 26.5 -120t71.5 -106t104.5 -75.5t125.5 -30.5v-674h40v674q66 4 122.5 33.5t98.5 76.5t66.5 106.5t24.5 125.5v479h-43 v-479q0 -59 -21.5 -114.5t-59.5 -96.5t-90 -65.5t-116 -24.5q-63 0 -118.5 24.5t-97.5 65.5t-66.5 96t-24.5 115v479h-43v-489zM291 1016q0 -53 19.5 -101.5t53 -83t78.5 -55t99 -20.5q55 0 103 20.5t84 55t55.5 83t19.5 101.5v479h-43v-489q0 -92 -53.5 -149.5 t-163.5 -57.5q-98 0 -153.5 59.5t-55.5 157.5v479h-43v-479zM618 0h44v604q66 18 123 55t99 89.5t65.5 118t23.5 139.5v489h-43v-496q0 -66 -24.5 -126t-67.5 -109t-99.5 -82t-120.5 -45v-637z" />
<glyph unicode="Z" horiz-adv-x="999" d="M74 -37l424 1174h-242l-117 106v289h787l104 -119l-422 -1165h275l106 -119v-272h-796zM125 0h721v39h-662l463 1284h-471v-43h412zM176 1366h524l-460 -1282h606v41h-547l461 1282h-584v-41zM176 1450h639l-463 -1282h494v43h-436l464 1284h-698v-45z" />
<glyph unicode="[" horiz-adv-x="645" d="M158 -188v1869h440l107 -118v-275h-154v-1188h47l107 -118v-277h-429zM195 -150h366v41h-323v1713h323v41h-366v-1795zM279 -66h282v41h-239v1543h239v43h-282v-1627zM365 20h196v41h-153v1371h153v41h-196v-1453z" />
<glyph unicode="\" horiz-adv-x="874" d="M14 1532h287l109 -119l555 -1556h-275l-117 106zM68 1495l532 -1495h39l-530 1495h-41zM150 1495l534 -1495h41l-532 1495h-43zM233 1495l531 -1495h45l-533 1495h-43z" />
<glyph unicode="]" horiz-adv-x="645" d="M49 100h152v1188h-35l-117 107v286h440l107 -118v-1858h-430l-117 107v288zM86 20h193v1453h-193v-41h152v-1371h-152v-41zM86 -25v-41h279v1627h-279v-43h238v-1543h-238zM86 -109v-41h367v1795h-367v-41h322v-1713h-322z" />
<glyph unicode="^" horiz-adv-x="919" d="M55 772l258 760h295l109 -119l250 -747h-308l-116 106l-13 39l-49 -145h-305zM106 809h50l231 686h-47zM203 809h51l205 616l209 -616h47l-232 686h-47zM299 809h47l113 334l110 -334h49l-159 471zM532 1495l232 -686h47l-229 686h-50z" />
<glyph unicode="_" horiz-adv-x="1269" d="M31 -27h1214l107 -116v-277h-1205l-116 107v286zM68 -63v-43h1138v43h-1138zM68 -147v-46h1138v46h-1138zM68 -233v-43h1138v43h-1138z" />
<glyph unicode="`" horiz-adv-x="608" d="M88 1933h287l108 -118l144 -398h-275l-116 107zM141 1894l121 -333h39l-119 333h-41zM223 1894l121 -333h43l-121 333h-43zM307 1894l121 -333h41l-121 333h-41z" />
<glyph unicode="a" d="M96 0zM96 -37v1137q0 98 36 182t98.5 145.5t145.5 96.5t179 35q117 0 219.5 -55.5t200.5 -166.5q76 -86 114.5 -172t38.5 -178v-1130h-276l-119 106v533h-244v-639h-276zM133 0h41v1104q0 76 33 144.5t86 120.5t122.5 83t141.5 31q76 0 144.5 -32t122 -84t85 -120.5 t31.5 -142.5v-1104h45v1100q0 88 -35 163.5t-93 133t-136 90.5t-166 33t-165 -32t-134 -88.5t-90 -133t-33 -166.5v-1100zM217 0h43v725h596v-725h41v1104q0 66 -26.5 127t-72.5 109.5t-108.5 77t-134.5 28.5q-68 0 -129 -26.5t-107.5 -75t-74 -112t-27.5 -136.5v-1096z M260 766v338q0 61 23.5 114.5t63.5 93.5t94.5 63.5t113.5 23.5q61 0 115.5 -23.5t96.5 -64.5t65.5 -96.5t23.5 -118.5v-330h-596zM303 0h41v639h426v-639h41v680h-508v-680zM303 809h508v287q0 55 -19.5 103t-53 83t-81 55.5t-102.5 20.5t-101 -20.5t-80 -55.5t-52.5 -83 t-18.5 -103v-287zM344 852v252q0 94 56.5 152.5t154.5 58.5q96 0 155.5 -56.5t59.5 -154.5v-252h-426zM489 891h244v213q0 41 -11 53t-54 12q-84 0 -131.5 -50t-47.5 -128v-100z" />
<glyph unicode="b" horiz-adv-x="1114" d="M102 0zM102 -37v1569h459q129 0 226.5 -46t189.5 -149q80 -92 115.5 -178t35.5 -192q0 -123 -35.5 -203t-95.5 -131q70 -68 103 -144.5t33 -187.5q0 -109 -33 -191.5t-93.5 -139t-144.5 -85t-188 -28.5h-453zM141 0h420q195 0 310.5 105.5t115.5 308.5q0 131 -43 207.5 t-113 123.5q70 47 112 125t42 209q0 203 -114.5 309.5t-309.5 106.5h-420v-1495zM182 41v1409h379q178 0 279.5 -96.5t101.5 -274.5q0 -117 -38 -198.5t-136 -135.5q98 -53 138 -135t40 -196q0 -176 -103.5 -274.5t-281.5 -98.5h-379zM223 86h338q160 0 254 88t94 240 q0 131 -62.5 218t-166.5 113q104 29 164.5 116t60.5 218q0 150 -92 239t-252 89h-338v-1321zM268 127v598h293q74 0 131.5 -23.5t96 -65.5t59 -99.5t20.5 -122.5q0 -129 -79.5 -208t-227.5 -79h-293zM268 766v600h293q147 0 226 -79t79 -208q0 -66 -19.5 -123t-58 -99 t-96 -66.5t-131.5 -24.5h-293zM309 168h252q129 0 198.5 66.5t69.5 179.5q0 135 -75.5 200.5t-192.5 65.5h-252v-512zM309 809h252q117 0 190.5 67.5t73.5 202.5q0 113 -67.5 178.5t-196.5 65.5h-252v-514zM352 211v430h209q98 0 162.5 -56.5t64.5 -170.5q0 -100 -60 -151.5 t-167 -51.5h-209zM352 852v428h209q106 0 165.5 -50t59.5 -151q0 -119 -63.5 -173t-161.5 -54h-209zM498 248h63q88 0 139.5 42t51.5 124q0 55 -15.5 69.5t-62.5 14.5h-176v-250zM498 889h63q80 0 133.5 46t53.5 144q0 33 -13.5 45.5t-60.5 12.5h-176v-248z" />
<glyph unicode="c" horiz-adv-x="1097" d="M88 0zM88 391v709q0 100 36 185t99.5 145.5t147.5 94.5t180 34q117 0 218 -52.5t198 -160.5q78 -86 115.5 -173.5t37.5 -185.5v-74h-276l-119 107v80q0 39 -12.5 51t-48.5 12q-86 0 -134.5 -46t-48.5 -130v-708q0 -35 12.5 -45.5t57.5 -10.5q80 0 127 45t47 123v76h289 l106 -119v-69q0 -98 -35.5 -181.5t-97 -143.5t-145.5 -93t-178 -33q-190 0 -365 156q-104 92 -157.5 190t-53.5 217zM125 391q0 -92 34 -169t91 -133t135 -87t166 -31t166 31t135 87t91 133t34 169v39h-43v-39q0 -84 -33 -153.5t-86 -118.5t-121.5 -76t-142.5 -27t-142.5 27 t-123 76t-87 118.5t-32.5 153.5v709q0 86 32.5 155.5t87 118.5t123 76t142.5 27t142.5 -27t121.5 -76t86 -118.5t33 -155.5v-43h43v43q0 92 -34 170t-91 133t-135 86t-166 31t-166 -31t-135 -86t-91 -133t-34 -170v-709zM211 391q0 -74 28.5 -135t75.5 -105.5t108.5 -69 t127.5 -24.5t127 24.5t108.5 69t76 105.5t28.5 135v39h-43v-39q0 -63 -22.5 -116.5t-61.5 -92.5t-94.5 -60.5t-118.5 -21.5q-66 0 -120 21.5t-93 60.5t-61.5 92.5t-22.5 116.5v709q0 66 22.5 120t61.5 92t93 59.5t120 21.5q63 0 118.5 -21.5t94.5 -59.5t61.5 -92.5 t22.5 -119.5v-43h43v43q0 76 -28.5 137t-76 105t-109 69t-126.5 25q-66 0 -127.5 -25t-108.5 -69t-75.5 -105t-28.5 -137v-709zM297 391q0 -57 20.5 -103t55.5 -78t81 -49.5t97 -17.5t97 17.5t81 49.5t56.5 78t21.5 103v39h-43v-39q0 -98 -57.5 -151.5t-155.5 -53.5 t-155.5 53.5t-57.5 151.5v709q0 98 57.5 153.5t155.5 55.5t155.5 -55.5t57.5 -153.5v-43h43v43q0 57 -21.5 104t-56.5 79t-81 49.5t-97 17.5t-97 -17.5t-81 -49.5t-55.5 -79t-20.5 -104v-709z" />
<glyph unicode="d" horiz-adv-x="1114" d="M102 0zM102 -37v1569h467q117 0 214.5 -52.5t185.5 -152.5q82 -92 123 -183t41 -194v-631q0 -100 -34 -185t-94.5 -146.5t-143.5 -96t-179 -34.5h-461zM141 0h428q90 0 167 33t132.5 90t87 137t31.5 172v631q0 92 -31.5 172t-87 137.5t-132.5 90t-167 32.5h-428v-1495z M182 43v1407h377q82 0 153.5 -29.5t123 -81t81 -120t29.5 -146.5v-653q0 -78 -29.5 -146.5t-81 -120t-123 -81t-153.5 -29.5h-377zM223 86h346q70 0 131.5 26.5t106.5 71.5t71.5 106.5t26.5 129.5v653q0 68 -26.5 129.5t-71.5 106.5t-106.5 71.5t-131.5 26.5h-346v-1321z M268 127v1239h291q66 0 121 -22.5t96 -62.5t63.5 -96.5t22.5 -121.5v-631q0 -68 -22.5 -123t-63.5 -96t-96 -63.5t-121 -22.5h-291zM309 170h260q106 0 178 71.5t72 190.5v631q0 57 -19.5 105.5t-53 83t-78.5 53t-99 18.5h-260v-1153zM352 211v1069h207q98 0 157.5 -53 t59.5 -154v-653q0 -98 -59.5 -153.5t-157.5 -55.5h-207zM498 250h61q82 0 131 45t49 125v653q0 43 -11 53.5t-56 10.5h-174v-887z" />
<glyph unicode="e" horiz-adv-x="1112" d="M102 0zM102 391v709q0 100 36 185t99.5 145.5t147.5 94.5t180 34q121 0 222.5 -54.5t195.5 -163.5q72 -86 112 -171t40 -183v-74h-277l-117 107v80q0 39 -9 51t-54 12q-86 0 -133 -46t-47 -130v-98h254l106 -119v-276h-360v-215q0 -35 11 -45.5t56 -10.5q82 0 129 45 t47 123v76h287l107 -119v-69q0 -98 -36 -181.5t-97.5 -143.5t-145.5 -93t-178 -33q-188 0 -367 160q-102 90 -155.5 187t-53.5 216zM141 391q0 -92 33 -169t90.5 -133t135 -87t165.5 -31t166 31t135.5 87t90 133t32.5 169v39h-41v-39q0 -84 -32.5 -153.5t-86 -118.5 t-122 -76t-142.5 -27t-142.5 27t-121.5 76t-86 118.5t-33 153.5v709q0 86 33 155.5t86 118.5t122 76t142 27q74 0 142.5 -27t122 -76t86 -118.5t32.5 -155.5v-43h41v43q0 92 -32.5 170t-90 133t-135.5 86t-166 31t-165.5 -31t-135 -86t-90.5 -133t-33 -170v-709zM225 391 q0 -74 29 -135t76 -105.5t108.5 -69t126.5 -24.5q66 0 127.5 24.5t108.5 69t75.5 105.5t28.5 135v39h-43v-39q0 -63 -21.5 -116.5t-61.5 -92.5t-94 -60.5t-120 -21.5t-119 21.5t-93 60.5t-61.5 92.5t-21.5 116.5v332h445v41h-445v336q0 66 21.5 120t61.5 92t93.5 59.5 t118.5 21.5q131 0 214 -81t83 -212v-43h43v43q0 76 -28.5 137t-75.5 105t-108.5 69t-127.5 25t-127 -25t-108 -69t-76 -105t-29 -137v-709zM311 391q0 -57 20.5 -103t56.5 -78t82 -49.5t95 -17.5t95.5 17.5t82 49.5t56 78t20.5 103v39h-41v-39q0 -98 -57 -151.5t-156 -53.5 q-98 0 -155.5 53.5t-57.5 151.5v246h363v43h-404v-289zM311 807h404v45h-363v248q0 98 57.5 153.5t155.5 55.5t155.5 -55.5t57.5 -153.5v-43h41v43q0 57 -20.5 104t-56 79t-82 49.5t-95.5 17.5t-95 -17.5t-82 -49.5t-56.5 -79t-20.5 -104v-293z" />
<glyph unicode="f" horiz-adv-x="1064" d="M96 0zM96 -37v1137q0 100 36 185t98.5 145.5t147.5 94.5t181 34q117 0 218.5 -52.5t199.5 -163.5q76 -86 113.5 -172t37.5 -184v-74h-276l-119 107v80q0 39 -9 51t-52 12q-86 0 -134.5 -46t-48.5 -130v-98h254l109 -119v-276h-363v-637h-276zM133 0h41v1100 q0 86 33 155.5t87 118.5t122.5 76t142.5 27q72 0 140.5 -27t121.5 -76t86 -118.5t33 -155.5v-43h45v43q0 92 -33.5 170t-91 133t-135.5 86t-166 31q-90 0 -167 -31t-135 -86t-91 -133t-33 -170v-1100zM217 0h45v723h445v41h-445v336q0 66 22.5 120t61.5 92t93.5 59.5 t119.5 21.5q63 0 117.5 -21.5t94.5 -59.5t61.5 -92.5t21.5 -119.5v-43h43v43q0 76 -28.5 137t-76 105t-107.5 69t-126 25t-127 -25t-109.5 -69t-77 -105t-28.5 -137v-1100zM303 0h41v637h363v43h-404v-680zM303 807h404v45h-363v248q0 98 58.5 153.5t156.5 55.5t154.5 -55.5 t56.5 -153.5v-43h41v43q0 57 -20.5 104t-55.5 79t-81 49.5t-95 17.5q-51 0 -97 -17.5t-82 -49.5t-56.5 -79t-20.5 -104v-293z" />
<glyph unicode="g" horiz-adv-x="1101" d="M88 0zM88 391v709q0 100 36 185t99.5 145.5t147.5 94.5t180 34q117 0 221.5 -50.5t194.5 -162.5q82 -82 117.5 -171.5t35.5 -187.5v-74h-276l-119 107v80q0 39 -9 51t-52 12q-86 0 -134.5 -46t-48.5 -130v-708q0 -39 12.5 -47.5t57.5 -8.5q80 0 127 45t47 123v27h-96 l-119 106v287h504l106 -117v-415q0 -98 -35.5 -181.5t-97 -143.5t-145.5 -93t-178 -33q-193 0 -363 154q-104 94 -158.5 192t-54.5 217zM125 391q0 -92 34 -169t91 -133t135 -87t166 -31t166 31t135 87t91 133t34 169v383h-430v-43h387v-340q0 -84 -33 -153.5t-86 -118.5 t-121.5 -76t-142.5 -27t-142.5 27t-123 76t-87 118.5t-32.5 153.5v709q0 86 32.5 155.5t87 118.5t123 76t142.5 27t142.5 -27t121.5 -76t86 -118.5t33 -155.5v-43h43v43q0 92 -34 170t-91 133t-135 86t-166 31t-166 -31t-135 -86t-91 -133t-34 -170v-709zM211 391 q0 -74 28.5 -135t75.5 -105.5t108.5 -69t127.5 -24.5t127 24.5t108.5 69t76 105.5t28.5 135v297h-344v-41h301v-256q0 -63 -22.5 -116.5t-61.5 -92.5t-94.5 -60.5t-118.5 -21.5q-66 0 -120 21.5t-93 60.5t-61.5 92.5t-22.5 116.5v709q0 66 22.5 120t61.5 92t93 59.5 t120 21.5q63 0 118.5 -21.5t94.5 -59.5t61.5 -92.5t22.5 -119.5v-43h43v43q0 76 -28.5 137t-76 105t-109 69t-126.5 25q-66 0 -127.5 -25t-108.5 -69t-75.5 -105t-28.5 -137v-709zM297 391q0 -57 20.5 -103t55.5 -78t81 -49.5t97 -17.5t97 17.5t81 49.5t56.5 78t21.5 103 v213h-260v-41h217v-172q0 -98 -57.5 -151.5t-155.5 -53.5t-155.5 53.5t-57.5 151.5v709q0 98 57.5 153.5t155.5 55.5t155.5 -55.5t57.5 -153.5v-43h43v43q0 57 -21.5 104t-56.5 79t-81 49.5t-97 17.5t-97 -17.5t-81 -49.5t-55.5 -79t-20.5 -104v-709z" />
<glyph unicode="h" horiz-adv-x="1130" d="M102 0zM102 -37v1569h287l109 -119v-524h243v643h287l107 -119v-1556h-277l-117 106v531h-243v-637h-277zM141 0h43v1495h-43v-1495zM225 0h45v723h594v-723h41v1495h-41v-731h-594v731h-45v-1495zM311 0h41v637h426v-637h43v680h-510v-680zM311 807h510v688h-43v-643 h-426v643h-41v-688zM948 0h41v1495h-41v-1495z" />
<glyph unicode="i" horiz-adv-x="493" d="M102 0zM102 -37v1569h287l109 -119v-1556h-277zM141 0h43v1495h-43v-1495zM225 0h45v1495h-45v-1495zM311 0h41v1495h-41v-1495z" />
<glyph unicode="j" horiz-adv-x="1122" d="M102 0zM102 391v76h287l109 -119v-69q0 -33 11 -44.5t56 -11.5q82 0 129 45t47 123v1141h287l107 -119v-1134q0 -98 -36 -181.5t-97.5 -143.5t-145.5 -93t-178 -33q-98 0 -189.5 39t-185.5 123q-98 86 -149.5 184t-51.5 217zM141 391q0 -92 33 -169t90.5 -133t135 -87 t165.5 -31t166 31t135.5 87t90 133t32.5 169v1104h-41v-1104q0 -84 -32.5 -153.5t-86 -118.5t-122 -76t-142.5 -27t-142.5 27t-121.5 76t-86 118.5t-33 153.5v39h-41v-39zM225 391q0 -74 29 -135t76 -105.5t108.5 -69t126.5 -24.5q66 0 127.5 24.5t108.5 69t75.5 105.5 t28.5 135v1104h-43v-1104q0 -63 -21.5 -116.5t-61.5 -92.5t-94 -60.5t-120 -21.5t-119 21.5t-93 60.5t-61.5 92.5t-21.5 116.5v39h-45v-39zM311 391q0 -57 20.5 -103t56.5 -78t82 -49.5t95 -17.5t95.5 17.5t82 49.5t56 78t20.5 103v1104h-41v-1104q0 -98 -57 -151.5 t-156 -53.5q-98 0 -155.5 53.5t-57.5 151.5v39h-41v-39z" />
<glyph unicode="k" horiz-adv-x="1128" d="M102 0zM102 -37v1569h287l109 -119v-524h63q80 0 128 46t48 144v453h287l106 -119v-446q0 -121 -36.5 -202t-96.5 -132q72 -70 108 -145.5t36 -186.5v-444h-277l-119 106v451q0 47 -9 65.5t-62 18.5h-176v-641h-277zM141 0h41v1495h-41v-1495zM223 0h45v725h293 q74 0 131.5 -23.5t96 -65.5t58 -99.5t19.5 -122.5v-414h45v414q0 131 -63.5 218t-167.5 113q104 29 162.5 116t58.5 218v416h-43v-416q0 -66 -18.5 -123t-55 -99t-93 -66.5t-130.5 -24.5h-293v729h-45v-1495zM309 0h43v641h209q98 0 160.5 -56.5t62.5 -170.5v-414h41v414 q0 135 -73.5 200.5t-190.5 65.5h-252v-680zM309 809h252q117 0 185.5 67.5t68.5 202.5v416h-41v-416q0 -119 -57.5 -173t-155.5 -54h-209v643h-43v-686zM768 745q98 -53 141 -135t43 -196v-414h43v414q0 131 -47 207.5t-117 123.5q70 47 112 125t42 209v416h-43v-416 q0 -117 -38 -198.5t-136 -135.5z" />
<glyph unicode="l" horiz-adv-x="849" d="M102 0zM102 -37v1569h287l109 -119v-1163h299l106 -119v-274h-682l-106 106h-13zM141 0h619v41h-576v1454h-43v-1495zM225 86h535v41h-492v1368h-43v-1409zM311 170h449v41h-408v1284h-41v-1325z" />
<glyph unicode="m" horiz-adv-x="1536" d="M96 0zM96 -37v1184q0 90 24.5 166t75 130t127 85t181.5 31q84 0 148.5 -23t113.5 -63q92 86 266 86q123 0 209 -45.5t168 -137.5q74 -86 105.5 -167t31.5 -175v-1177h-274l-119 106v1200h-8q-53 0 -91 -31.5t-38 -97.5v-1177h-273l-116 106v1200h-11q-55 0 -91 -31.5 t-36 -97.5v-1177h-276zM133 0h41v1147q0 143 82 236.5t248 93.5q86 0 148.5 -29t115.5 -90q53 61 116.5 90t147.5 29q82 0 143.5 -25t103.5 -69t62.5 -104t20.5 -132v-1147h41v1147q0 82 -22.5 150.5t-68.5 117.5t-116 77t-164 28q-86 0 -154.5 -27t-111.5 -72 q-45 45 -109.5 72t-152.5 27q-94 0 -164 -28t-116 -77t-68.5 -117.5t-22.5 -150.5v-1147zM217 0h45v1147q0 113 62.5 179.5t179.5 66.5t180.5 -66.5t63.5 -179.5v-1147h40v1147q0 113 63.5 179.5t180.5 66.5t179.5 -66.5t62.5 -179.5v-1147h43v1147q0 129 -71.5 209 t-213.5 80q-104 0 -171.5 -45t-94.5 -140q-14 86 -88 135.5t-174 49.5q-139 0 -213 -80t-74 -209v-1147zM303 0h41v1147q0 82 45 122t115 40q68 0 114 -40t46 -122v-1147h41v1147q0 96 -55.5 149.5t-145.5 53.5q-88 0 -144.5 -53.5t-56.5 -149.5v-1147zM829 0h43v1147 q0 82 45.5 122t114.5 40q68 0 113 -40t45 -122v-1147h41v1147q0 96 -54.5 149.5t-144.5 53.5q-88 0 -145.5 -53.5t-57.5 -149.5v-1147z" />
<glyph unicode="n" d="M96 0zM96 -37v1137q0 100 36 185t98.5 145.5t147.5 94.5t181 34q117 0 217.5 -52.5t194.5 -158.5q78 -90 117.5 -176.5t39.5 -184.5v-1130h-276l-119 106v1137q0 39 -9 51t-52 12q-86 0 -134.5 -46t-48.5 -130v-1130h-276zM133 0h41v1100q0 86 33 155.5t87 118.5 t122.5 76t142.5 27q72 0 140.5 -27t121.5 -76t86 -118.5t33 -155.5v-1100h45v1100q0 92 -33.5 170t-91 133t-135.5 86t-166 31q-90 0 -167 -31t-135 -86t-91 -133t-33 -170v-1100zM217 0h45v1100q0 66 22.5 120t61.5 92t93.5 59.5t119.5 21.5q63 0 117.5 -21.5t94.5 -59.5 t61.5 -92.5t21.5 -119.5v-1100h43v1100q0 76 -28.5 137t-76 105t-107.5 69t-126 25t-127 -25t-109.5 -69t-77 -105t-28.5 -137v-1100zM303 0h41v1100q0 98 58.5 153.5t156.5 55.5t154.5 -55.5t56.5 -153.5v-1100h41v1100q0 57 -20.5 104t-55.5 79t-81 49.5t-95 17.5 q-51 0 -97 -17.5t-82 -49.5t-56.5 -79t-20.5 -104v-1100z" />
<glyph unicode="o" horiz-adv-x="1101" d="M88 0zM88 391v709q0 100 36 185t99.5 145.5t147.5 94.5t180 34q117 0 223.5 -49.5t192.5 -157.5q74 -92 113.5 -179.5t39.5 -185.5v-708q0 -98 -35.5 -181.5t-97 -143.5t-145.5 -93t-178 -33q-98 0 -189.5 45t-208.5 143q-78 68 -128 162t-50 213zM125 391q0 -92 34 -169 t91 -133t135 -87t166 -31t166 31t135 87t91 133t34 169v709q0 92 -34 170t-91 133t-135 86t-166 31t-166 -31t-135 -86t-91 -133t-34 -170v-709zM166 391v709q0 86 32.5 155.5t87 118.5t123 76t142.5 27t142.5 -27t121.5 -76t86 -118.5t33 -155.5v-709q0 -84 -33 -153.5 t-86 -118.5t-121.5 -76t-142.5 -27t-142.5 27t-123 76t-87 118.5t-32.5 153.5zM211 391q0 -74 28.5 -135t75.5 -105.5t108.5 -69t127.5 -24.5t127 24.5t108.5 69t76 105.5t28.5 135v709q0 76 -28.5 137t-76 105t-109 69t-126.5 25q-66 0 -127.5 -25t-108.5 -69t-75.5 -105 t-28.5 -137v-709zM254 391v709q0 66 22.5 120t61.5 92t93 59.5t120 21.5q63 0 118.5 -21.5t94.5 -59.5t61.5 -92.5t22.5 -119.5v-709q0 -63 -22.5 -116.5t-61.5 -92.5t-94.5 -60.5t-118.5 -21.5q-66 0 -120 21.5t-93 60.5t-61.5 92.5t-22.5 116.5zM297 391q0 -57 20.5 -103 t55.5 -78t81 -49.5t97 -17.5t97 17.5t81 49.5t56.5 78t21.5 103v709q0 57 -21.5 104t-56.5 79t-81 49.5t-97 17.5t-97 -17.5t-81 -49.5t-55.5 -79t-20.5 -104v-709zM338 391v709q0 98 57.5 153.5t155.5 55.5t155.5 -55.5t57.5 -153.5v-709q0 -98 -57.5 -151.5t-155.5 -53.5 t-155.5 53.5t-57.5 151.5zM481 279q0 -33 12.5 -44.5t57.5 -11.5q80 0 127 45t47 123v709q0 39 -9 51t-52 12q-86 0 -134.5 -46t-48.5 -130v-708z" />
<glyph unicode="p" horiz-adv-x="1095" d="M102 0zM102 -37v1569h459q117 0 223.5 -56.5t190.5 -160.5q74 -92 117 -179t43 -180q0 -96 -38 -179t-102.5 -145.5t-147.5 -98t-173 -35.5h-176v-641h-277zM141 0h43v1450h377q80 0 150.5 -30.5t123 -83t83 -122t30.5 -145.5q0 -78 -32.5 -148.5t-87 -123t-124 -83 t-143.5 -30.5h-250v-684h41v643h209q84 0 161 33t136.5 91t95 135t35.5 167q0 86 -33.5 164t-91 136t-136.5 92t-167 34h-420v-1495zM225 0h43v729h293q68 0 130.5 25.5t109.5 70.5t75.5 107.5t28.5 136.5q0 70 -26.5 132.5t-72.5 107.5t-108.5 71.5t-136.5 26.5h-336v-1407 zM268 770v596h293q63 0 119.5 -23.5t96.5 -64.5t63.5 -95.5t23.5 -113.5q0 -61 -23.5 -116.5t-64.5 -95.5t-96 -63.5t-119 -23.5h-293zM313 809h248q113 0 186.5 68.5t73.5 191.5q0 53 -19.5 100.5t-54 81t-83 53t-103.5 19.5h-248v-514zM352 856v424h209q98 0 157.5 -56.5 t59.5 -154.5t-59.5 -155.5t-157.5 -57.5h-209zM498 895h63q82 0 131 47t49 127q0 43 -10 55.5t-57 12.5h-176v-242z" />
<glyph unicode="q" horiz-adv-x="1124" d="M88 0zM88 420v680q0 100 36 185t99.5 145.5t147.5 94.5t180 34q117 0 217 -52.5t195 -158.5q80 -90 118.5 -176.5t38.5 -184.5v-680q0 -74 -18 -135l41 -41v-274h-479q-98 0 -188.5 37.5t-180.5 117.5q-104 94 -155.5 191.5t-51.5 216.5zM125 420q0 -92 34 -170 t91 -133.5t135 -86t166 -30.5h448v43h-448q-74 0 -142.5 26.5t-123 76t-87 119t-32.5 155.5v680q0 86 32.5 155.5t87 118.5t123 76t142.5 27t142.5 -27t121.5 -76t86 -118.5t33 -155.5v-680q0 -74 -25.5 -138.5t-68.5 -111.5h159v41h-75q25 47 39 98t14 111v680 q0 92 -34 170t-91 133t-135 86t-166 31t-166 -31t-135 -86t-91 -133t-34 -170v-680zM211 420q0 -76 28.5 -137.5t75.5 -105.5t108.5 -67.5t127.5 -23.5h448v41h-282q74 41 124 115.5t50 177.5v680q0 76 -28.5 137t-76 105t-109 69t-126.5 25q-66 0 -127.5 -25t-108.5 -69 t-75.5 -105t-28.5 -137v-680zM254 420v680q0 66 22.5 120t61.5 92t93 59.5t120 21.5q63 0 118.5 -21.5t94.5 -59.5t61.5 -92.5t22.5 -119.5v-680q0 -63 -22.5 -117.5t-61.5 -93.5t-94.5 -60.5t-118.5 -21.5q-66 0 -120 21.5t-93 60.5t-61.5 93t-22.5 118zM297 420 q0 -57 20.5 -103.5t55.5 -79t81 -50t97 -17.5t97 17.5t81 50t56.5 78.5t21.5 104v680q0 57 -21.5 104t-56.5 79t-81 49.5t-97 17.5t-97 -17.5t-81 -49.5t-55.5 -79t-20.5 -104v-680zM338 420v680q0 98 57.5 153.5t155.5 55.5t155.5 -55.5t57.5 -153.5v-680 q0 -98 -57.5 -153.5t-155.5 -55.5t-155.5 55.5t-57.5 153.5zM481 307q0 -41 12.5 -49t57.5 -8q80 0 127 45t47 125v680q0 39 -9 51t-52 12q-86 0 -134.5 -46t-48.5 -130v-680z" />
<glyph unicode="r" horiz-adv-x="1128" d="M102 0zM102 -37v1569h459q129 0 227.5 -48t196.5 -157q74 -86 108.5 -170t34.5 -190q0 -123 -35.5 -203t-95.5 -131q78 -76 111 -158t33 -174v-444h-277l-119 106v451q0 53 -13 68.5t-58 15.5h-176v-641h-277zM141 0h41v1450h379q178 0 279.5 -96.5t101.5 -274.5 q0 -117 -38 -198.5t-136 -135.5q96 -57 140 -141t44 -190v-414h43v414q0 104 -41 190t-123 141q70 47 112 125t42 209q0 203 -114.5 309.5t-309.5 106.5h-420v-1495zM223 0h45v725h293q70 0 126 -24.5t96 -66.5t61.5 -98.5t21.5 -121.5v-414h45v414q0 117 -59 209t-172 122 q104 29 164.5 116t60.5 218q0 150 -92 239t-252 89h-338v-1407zM268 766v600h293q147 0 226 -79t79 -208q0 -66 -19.5 -123t-58 -99t-96 -66.5t-131.5 -24.5h-293zM309 0h43v641h209q104 0 163.5 -62.5t59.5 -164.5v-414h41v414q0 127 -69.5 196.5t-194.5 69.5h-252v-680z M309 809h252q117 0 190.5 67.5t73.5 202.5q0 113 -67.5 178.5t-196.5 65.5h-252v-514zM352 852v428h209q106 0 165.5 -50t59.5 -151q0 -119 -63.5 -173t-161.5 -54h-209zM498 889h63q80 0 133.5 46t53.5 144q0 35 -13.5 46.5t-60.5 11.5h-176v-248z" />
<glyph unicode="s" horiz-adv-x="1114" d="M82 0zM82 434h291l106 -117q0 -63 15.5 -80.5t62.5 -17.5q84 0 138.5 55.5t54.5 135.5q0 29 -4.5 51t-10.5 43q-55 23 -115.5 32.5t-123.5 32.5q-61 25 -109.5 62t-101.5 78q-43 35 -78 71.5t-59.5 81.5t-38 102.5t-13.5 131.5q0 102 36 187t98.5 146.5t148.5 95.5 t184 34q104 0 199.5 -49.5t187.5 -155.5q86 -98 130 -196.5t44 -211.5h-278l-119 107q0 53 -9 81.5t-42 28.5q-96 0 -146.5 -48t-50.5 -132v-25.5t4 -21.5q35 -10 61.5 -16.5t49.5 -12.5q63 -16 111.5 -34.5t91.5 -44t84 -60.5t88 -82q78 -78 123 -172t45 -215 q0 -96 -36 -181t-98.5 -149.5t-148.5 -102.5t-184 -38q-92 0 -179.5 39t-179.5 123q-111 98 -168 205.5t-61 238.5zM121 397q4 -92 40 -169.5t95 -135t137 -89.5t164 -32q92 0 171 35t137.5 95.5t92 139.5t33.5 169q0 127 -41 213t-129 151q-39 31 -81 48.5t-84 29.5 t-85 21.5t-84 23.5q-80 25 -115.5 72t-35.5 127q0 98 58.5 154.5t168.5 56.5q94 0 147.5 -58.5t53.5 -156.5h45q-6 113 -70.5 188.5t-175.5 75.5q-63 0 -112.5 -21.5t-84 -56.5t-53 -83t-18.5 -99q0 -176 176 -238q41 -14 83 -22.5t82 -19.5t80 -27.5t79 -47.5 q78 -59 116.5 -140t38.5 -191q0 -80 -29.5 -153t-82 -127t-125 -86t-156.5 -32q-78 0 -149.5 30t-125 82t-86 121.5t-32.5 151.5h-43zM133 1096q0 -80 17.5 -141.5t51.5 -106.5t82 -78t109 -57q29 -12 67 -19.5t80 -16.5t83 -22.5t73 -36.5q51 -37 70.5 -86t19.5 -122 q0 -49 -17 -90t-48 -72t-73 -48.5t-91 -17.5q-104 0 -162.5 58.5t-58.5 156.5h-45q0 -53 23.5 -101t61.5 -83t85 -55.5t96 -20.5q61 0 111.5 21.5t86.5 58.5t55 87t19 106q0 82 -24.5 140t-79.5 99q-35 27 -74 40t-80 21.5t-80.5 15.5t-78.5 22q-111 43 -174.5 126.5 t-63.5 221.5q0 82 29.5 152.5t82 121.5t123 80t154.5 29q78 0 146.5 -31t119 -84t79 -123t28.5 -149h45q0 92 -34 170.5t-90 136t-132 89.5t-162 32q-90 0 -169 -31t-137 -87t-91 -134t-33 -172zM207 397q2 -72 31.5 -134t78 -109.5t110.5 -75t130 -27.5q74 0 138.5 29 t113.5 78t77.5 114.5t28.5 137.5q0 102 -35.5 177t-107.5 128q-37 27 -76 42t-80 26.5t-81.5 19.5t-83.5 24q-92 33 -144.5 98.5t-52.5 170.5q0 68 22.5 122t63.5 93t97.5 60.5t123.5 21.5q61 0 114.5 -22.5t93.5 -63.5t62.5 -96.5t22.5 -118.5h43q-2 70 -28.5 133 t-71.5 111t-104.5 77t-129.5 29q-76 0 -140.5 -25.5t-111.5 -72t-73.5 -110t-26.5 -138.5q0 -119 60.5 -195t158.5 -115q41 -16 82 -24t82 -17.5t79 -23.5t72 -41q123 -96 123 -270q0 -63 -24.5 -121t-67.5 -101t-99 -68.5t-120 -25.5q-66 0 -121 23.5t-97 64.5t-65.5 96.5 t-23.5 118.5h-43z" />
<glyph unicode="t" horiz-adv-x="1019" d="M45 0zM45 1243v289h930l106 -119v-276h-319v-1280h-279l-118 106v1174h-201zM82 1280h321v-1280h43v1323h-364v-43zM82 1366h405v-1366h43v1366h408v41h-856v-41zM82 1450h856v45h-856v-45zM571 0h45v1280h322v43h-367v-1323z" />
<glyph unicode="u" d="M96 0zM96 391v1141h287l106 -119v-1134q0 -39 11.5 -47.5t58.5 -8.5q80 0 127 45t47 123v1141h289l106 -119v-1134q0 -98 -35.5 -181.5t-98 -143.5t-145.5 -93t-177 -33q-190 0 -367 158q-104 90 -156.5 188t-52.5 217zM133 391q0 -92 33 -169t91 -133t135 -87t167 -31 q88 0 166 31t135.5 87t91 133t33.5 169v1104h-45v-1104q0 -84 -33 -153.5t-86 -118.5t-121.5 -76t-140.5 -27q-74 0 -142.5 27t-122.5 76t-87 118.5t-33 153.5v1104h-41v-1104zM217 391q0 -74 28.5 -135t77 -105.5t110 -69t126.5 -24.5q66 0 126 24.5t107.5 69t76 105.5 t28.5 135v1104h-43v-1104q0 -63 -21.5 -116.5t-61.5 -92.5t-94 -60.5t-118 -21.5q-66 0 -120 21.5t-93 60.5t-61.5 92.5t-22.5 116.5v1104h-45v-1104zM303 391q0 -57 20.5 -103t56.5 -78t82 -49.5t97 -17.5q49 0 95 17.5t81 49.5t55.5 78t20.5 103v1104h-41v-1104 q0 -98 -56.5 -151.5t-154.5 -53.5t-156.5 53.5t-58.5 151.5v1104h-41v-1104z" />
<glyph unicode="v" horiz-adv-x="1001" d="M35 0zM35 1532h291l106 -119l111 -532l133 651h291l106 -119l-330 -1556h-262l-116 106zM82 1495l313 -1495h43l-313 1495h-43zM166 1495l315 -1495h39l318 1495h-45l-291 -1397l-291 1397h-45zM254 1495l248 -1196l250 1196h-43l-207 -1001l-207 1001h-41zM565 0h41 l314 1495h-43z" />
<glyph unicode="w" horiz-adv-x="1536" d="M96 0zM96 346v1186h287l106 -119v-1190h15q51 0 87 30t36 93v1186h282l107 -119v-1190h16q51 0 86 30t35 93v1186h287l106 -119v-1180q0 -88 -24.5 -162.5t-73.5 -128t-125 -84t-178 -30.5q-84 0 -150.5 23.5t-113.5 64.5q-88 -88 -265 -88q-98 0 -177 33t-163 104 q-100 86 -140 177t-40 204zM133 346q0 -82 22.5 -150.5t68.5 -118.5t116 -78t164 -28q88 0 155.5 28t108.5 75q47 -47 112.5 -75t151.5 -28q94 0 164 28t116 78t68.5 118.5t22.5 150.5v1149h-41v-1149q0 -72 -20.5 -132t-62.5 -104t-103.5 -69t-143.5 -25q-164 0 -266 121 q-100 -121 -262 -121q-166 0 -248 93.5t-82 236.5v1149h-41v-1149zM217 346q0 -127 74 -208t213 -81q104 0 172.5 46.5t91.5 140.5q16 -86 89 -136.5t175 -50.5q141 0 213 81t72 208v1149h-43v-1149q0 -113 -62.5 -179.5t-179.5 -66.5t-180.5 66.5t-63.5 179.5v1149h-40 v-1149q0 -113 -63.5 -179.5t-180.5 -66.5t-179.5 66.5t-62.5 179.5v1149h-45v-1149zM303 346q0 -96 56.5 -149.5t144.5 -53.5q90 0 145.5 53.5t55.5 149.5v1149h-41v-1149q0 -82 -46.5 -121t-113.5 -39q-70 0 -115 39t-45 121v1149h-41v-1149zM829 346q0 -96 57.5 -149.5 t145.5 -53.5q90 0 144.5 53.5t54.5 149.5v1149h-41v-1149q0 -82 -45 -121t-113 -39q-70 0 -115 39t-45 121v1149h-43v-1149z" />
<glyph unicode="x" horiz-adv-x="911" d="M31 0zM31 1532h288l109 -119l59 -176l109 295h285l104 -119l-278 -780l278 -776h-272l-117 106l-68 180l-100 -286h-276l-119 106l278 782zM82 1495l268 -750l-266 -745h41l268 745l-268 750h-43zM166 0h45l244 688l247 -688h46l-273 745l273 750h-46l-249 -684l-242 684 h-45l266 -741zM252 0h41l162 455l168 -455h39l-205 565zM252 1495l203 -571l207 571h-39l-168 -459l-162 459h-41zM520 745l266 -745h43l-268 745l268 750h-43z" />
<glyph unicode="y" horiz-adv-x="1095" d="M84 0zM84 1006v526h287l106 -119v-510q0 -41 12.5 -54t53.5 -13q92 0 135 48t43 122v526h289l108 -119v-520q0 -76 -23.5 -143.5t-65.5 -123t-99.5 -96.5t-122.5 -63v-610h-277l-118 106v555q-23 12 -48.5 32.5t-70.5 59.5q-104 92 -156.5 187.5t-52.5 208.5zM121 1006 q0 -74 23.5 -139.5t67.5 -119t104.5 -91.5t134.5 -56v-600h41v631q-70 10 -129.5 45t-103.5 87t-69.5 116.5t-25.5 136.5v479h-43v-489zM207 1006q0 -61 26.5 -120t71.5 -106t104.5 -75.5t125.5 -30.5v-674h40v674q66 4 122.5 33.5t98.5 76.5t66.5 106.5t24.5 125.5v479h-43 v-479q0 -59 -21.5 -114.5t-59.5 -96.5t-90 -65.5t-116 -24.5q-63 0 -118.5 24.5t-97.5 65.5t-66.5 96t-24.5 115v479h-43v-489zM291 1016q0 -53 19.5 -101.5t53 -83t78.5 -55t99 -20.5q55 0 103 20.5t84 55t55.5 83t19.5 101.5v479h-43v-489q0 -92 -53.5 -149.5 t-163.5 -57.5q-98 0 -153.5 59.5t-55.5 157.5v479h-43v-479zM618 0h44v604q66 18 123 55t99 89.5t65.5 118t23.5 139.5v489h-43v-496q0 -66 -24.5 -126t-67.5 -109t-99.5 -82t-120.5 -45v-637z" />
<glyph unicode="z" horiz-adv-x="999" d="M74 0zM74 -37l424 1174h-242l-117 106v289h787l104 -119l-422 -1165h275l106 -119v-272h-796zM125 0h721v39h-662l463 1284h-471v-43h412zM176 1366h524l-460 -1282h606v41h-547l461 1282h-584v-41zM176 1450h639l-463 -1282h494v43h-436l464 1284h-698v-45z" />
<glyph unicode="{" horiz-adv-x="739" d="M78 612v269q78 12 122 59t44 133v156q0 104 34.5 184t94 137.5t141.5 91t176 44.5l107 -119v-275q-74 -16 -116 -61t-42 -115v-155q0 -123 -38 -201t-97 -127q72 -59 103.5 -137t31.5 -187v-155q0 -25 9 -38.5t42 -19.5l107 -119v-276q-92 10 -175 50t-167 116 q-106 96 -158.5 191.5t-52.5 207.5v127q0 39 -8.5 61.5t-40.5 51.5zM115 647q78 -14 122 -67.5t44 -157.5v-156q0 -86 28.5 -158.5t78.5 -127t117.5 -88t147.5 -42.5v46q-66 8 -126 37.5t-105 77.5t-71.5 112.5t-26.5 142.5v156q0 121 -55.5 185.5t-153.5 76.5v-37zM115 727 q127 -16 189.5 -99t62.5 -206v-156q0 -68 23.5 -124t62.5 -99t91 -70.5t109 -35.5v40q-109 16 -176 94.5t-67 194.5v156q0 131 -59.5 214t-164.5 109q104 29 164 112t60 216v156q0 117 67.5 193.5t175.5 93.5v43q-57 -10 -109 -38t-91 -71t-62.5 -99.5t-23.5 -121.5v-156 q0 -123 -62.5 -207t-189.5 -100v-39zM115 809q98 14 153.5 78.5t55.5 185.5v156q0 76 26.5 140.5t71.5 112.5t105.5 77.5t125.5 39.5v46q-80 -8 -147.5 -43t-117.5 -89.5t-78.5 -127t-28.5 -156.5v-156q0 -104 -44 -158.5t-122 -66.5v-39zM276 745q94 -53 135.5 -130.5 t41.5 -192.5v-156q0 -100 58 -163.5t142 -79.5v40q-76 16 -116.5 66.5t-40.5 136.5v156q0 131 -44 203.5t-114 119.5q35 25 63.5 53.5t50 67.5t33 90.5t11.5 116.5v156q0 84 41 134t116 67v43q-84 -16 -142 -80t-58 -164v-156q0 -117 -41.5 -196t-135.5 -132z" />
<glyph unicode="|" horiz-adv-x="657" d="M184 -188v1869h289l107 -118v-1858h-279zM221 -150h45v1795h-45v-1795zM307 -150h43v1795h-43v-1795zM393 -150h41v1795h-41v-1795z" />
<glyph unicode="}" horiz-adv-x="739" d="M49 96q74 16 116 58.5t42 111.5v156q0 127 33.5 200.5t95.5 122.5q-53 49 -91 130t-38 198v137q0 29 -7 42.5t-24 29.5l-127 117v287q111 -10 206 -62.5t189 -157.5q156 -170 156 -350v-155q0 -47 10.5 -61.5t51.5 -18.5l106 -117v-258q-80 -14 -124 -61.5t-44 -135.5 v-155q0 -92 -34 -171t-92 -138.5t-137 -96.5t-171 -47l-117 109v286zM86 23q84 16 141.5 79.5t57.5 163.5v156q0 115 41 192.5t137 130.5q-96 53 -137 132t-41 196v156q0 100 -57.5 163.5t-141.5 80.5v-43q76 -16 117 -66.5t41 -134.5v-156q0 -66 11 -117t32.5 -90 t49.5 -67.5t62 -53.5q-68 -47 -111.5 -119.5t-43.5 -203.5v-156q0 -86 -41 -136t-117 -67v-40zM86 -23v-40q57 8 108.5 35.5t90.5 70.5t62.5 99.5t23.5 123.5v156q0 123 62.5 206t191.5 99v39q-127 16 -190.5 101t-63.5 206v156q0 66 -23.5 122t-62.5 99t-90.5 70.5 t-108.5 38.5v-43q109 -16 175.5 -93t66.5 -194v-156q0 -133 60.5 -216t164.5 -112q-104 -27 -164.5 -109.5t-60.5 -213.5v-156q0 -117 -66.5 -194.5t-175.5 -94.5zM86 -104v-46q80 8 147.5 42t116.5 88.5t77 127t28 158.5v156q0 104 45 157.5t125 67.5v37 q-98 -12 -154.5 -76.5t-56.5 -185.5v-156q0 -78 -27 -142.5t-72 -112.5t-104 -77.5t-125 -37.5zM86 1599q66 -10 125 -39.5t104 -77.5t72 -112.5t27 -140.5v-156q0 -121 56 -185.5t155 -78.5v39q-80 12 -125 66.5t-45 158.5v156q0 84 -28 156.5t-77 127t-116.5 89 t-147.5 43.5v-46z" />
<glyph unicode="~" horiz-adv-x="964" d="M102 502v395q100 63 215 64q57 0 104.5 -15.5t92.5 -38.5q39 -18 72.5 -30.5t66.5 -12.5q76 0 199 172l117 -116v-377q-47 -29 -100.5 -45.5t-106.5 -16.5q-55 0 -104.5 16.5t-92.5 39.5q-35 18 -71.5 30.5t-69.5 12.5q-80 0 -203 -172zM141 621q70 102 170 102 q41 0 81 -15.5t81 -33t84 -32.5t92 -15q100 0 176 47v47q-37 -23 -79 -37t-89 -14q-49 0 -92 14t-85 32.5t-83 33t-88 14.5q-51 0 -92 -23.5t-76 -64.5v-55zM141 727q35 35 83 55.5t102 20.5q43 0 80.5 -15.5t76.5 -33t78 -32.5t84 -15q104 0 180 57v59q-35 -35 -84 -56.5 t-102 -21.5q-41 0 -79 15.5t-76 34t-77.5 34t-84.5 15.5q-109 0 -181 -58v-59zM141 829q35 23 77 37.5t89 14.5q49 0 92 -14.5t84 -33t83 -33t89 -14.5q51 0 93.5 24t76.5 64v56q-37 -53 -80 -78t-92 -25q-41 0 -81 14.5t-79.5 33t-82.5 33t-93 14.5q-106 0 -176 -45v-48z " />
<glyph unicode="&#xa1;" horiz-adv-x="569" d="M143 1386q0 59 43 99.5t101 40.5q61 0 100 -39l88 -86q25 -27 46.5 -55.5t21.5 -71.5q0 -80 -66 -123l66 -55v-1246h-289l-109 117v1237h125l-84 86q-18 20 -30.5 44t-12.5 52zM176 1386q0 -45 33 -76.5t78 -31.5t75.5 31.5t30.5 76.5q0 47 -30.5 78t-75.5 31t-78 -30.5 t-33 -78.5zM178 0h43v1171h-43v-1171zM221 1386q0 29 18.5 46.5t47.5 17.5q27 0 45 -17.5t18 -46.5t-18.5 -47t-44.5 -18q-29 0 -47.5 18.5t-18.5 46.5zM260 1386q0 -27 27 -26q10 0 17 8t7 18q0 12 -7 18.5t-17 6.5q-27 0 -27 -25zM264 0h41v1171h-41v-1171zM350 0h41v1171 h-41v-1171z" />
<glyph unicode="&#xa2;" horiz-adv-x="1112" d="M92 610v273q0 82 23.5 152.5t66.5 128t102.5 97t129.5 60.5v211l286 -12l109 -107v-143q35 -23 73 -55.5t97 -96.5q145 -158 145 -348v-74h-276l-119 107v80q0 39 -9 51t-52 12q-86 0 -134.5 -46t-48.5 -130v-272q0 -41 12.5 -49.5t57.5 -8.5q80 0 127 45t47 125v74h289 l106 -119v-67q0 -82 -23.5 -152t-66.5 -125t-100 -95t-125 -60v-209h-277l-118 106v154q-20 12 -45 32.5t-72 61.5q-98 86 -151.5 184.5t-53.5 214.5zM129 610q0 -80 23.5 -147.5t66.5 -119.5t102.5 -89t131.5 -51v-203h43v238q-66 10 -125.5 41.5t-103.5 80t-70.5 112 t-26.5 138.5v273q0 76 26.5 140t70.5 111.5t103.5 78t125.5 40.5v242h-43v-203q-72 -16 -131.5 -52t-102.5 -89t-66.5 -120.5t-23.5 -147.5v-273zM215 610q0 -72 26.5 -132t70.5 -104t102.5 -69.5t122.5 -28.5v-276h43v276q61 4 118.5 31t100.5 70t69.5 102.5t26.5 130.5v37 h-43v-37q0 -63 -22.5 -116.5t-61.5 -92.5t-94.5 -60.5t-118.5 -21.5q-66 0 -120 21.5t-93 60.5t-61.5 92.5t-22.5 116.5v273q0 63 22.5 117.5t61.5 93.5t93 60.5t120 21.5q63 0 118.5 -21.5t94.5 -60.5t61.5 -93.5t22.5 -117.5v-43h43v43q0 72 -26.5 131t-69.5 103 t-100.5 68.5t-118.5 28.5v281h-43v-278q-63 -4 -122 -29t-103 -69t-70.5 -104.5t-26.5 -131.5v-273zM299 610q0 -59 20.5 -104t56.5 -78t82 -49.5t97 -16.5t97 16.5t81 49.5t55.5 78t20.5 104v37h-43v-37q0 -98 -56.5 -152.5t-154.5 -54.5t-155.5 54.5t-57.5 152.5v273 q0 98 57.5 153.5t155.5 55.5t154.5 -55.5t56.5 -153.5v-43h43v43q0 57 -20.5 103t-55.5 79t-81 50.5t-97 17.5t-97 -17.5t-82 -50.5t-56.5 -79t-20.5 -103v-273zM623 0h41v205q68 16 126 52t101 88t66.5 119.5t23.5 145.5v37h-43v-37q0 -76 -25.5 -138t-68.5 -110.5 t-100.5 -79t-120.5 -42.5v-240zM623 1251q63 -10 120.5 -40.5t100.5 -79t68.5 -111t25.5 -137.5v-43h43v43q0 78 -23.5 145.5t-66.5 119.5t-101.5 88t-125.5 52v207h-41v-244z" />
<glyph unicode="&#xa3;" horiz-adv-x="1169" d="M51 -37v287h125v213h-6l-117 106v287h123v244q0 100 36 185t98.5 145.5t146.5 94.5t180 34q117 0 218 -52.5t198 -160.5q78 -86 115.5 -173.5t37.5 -185.5v-74h-274l-119 107v80q0 41 -9 52t-54 11q-84 0 -132.5 -46t-48.5 -130v-131h260l107 -117v-276h-367v-213h494 l106 -119v-274h-1001zM88 0h938v43h-938v-43zM88 86h938v41h-684v565h449v45h-449v363q0 66 21.5 120t61.5 92t93 59.5t119 21.5q63 0 118.5 -21.5t94.5 -59.5t61.5 -92.5t22.5 -119.5v-43h45v43q0 76 -28.5 137t-77 105t-109.5 69t-127 25t-126 -25t-107.5 -69t-76 -105 t-28.5 -137v-363h-209v-45h209v-565h-211v-41zM88 170h168v481h-166v-43h123v-397h-125v-41zM90 778h166v322q0 86 33 155.5t86 118.5t121.5 76t140.5 27q74 0 142.5 -27t122.5 -76t87 -118.5t33 -155.5v-43h41v43q0 92 -33 170t-91 133t-136 86t-166 31t-166 -31t-135 -86 t-90 -133t-33 -170v-281h-123v-41zM385 170h641v41h-600v397h365v43h-406v-481zM385 778h406v41h-365v281q0 98 56.5 153.5t154.5 55.5t156.5 -55.5t58.5 -153.5v-43h41v43q0 57 -21.5 104t-56.5 79t-81 49.5t-97 17.5q-49 0 -95 -17.5t-81 -49.5t-55.5 -79t-20.5 -104v-322 z" />
<glyph unicode="&#xa5;" horiz-adv-x="1130" d="M102 1186v346h287l109 -119v-328q0 -41 8 -54t57 -13q90 0 134 48t44 120v346h287l107 -119v-340q0 -106 -46.5 -196.5t-123.5 -151.5h49l106 -117v-276h-49l49 -51v-277h-295v-147h-278l-117 106v41h-203l-118 107v288h51l-51 39v287h280q-10 10 -26.5 21.5t-55.5 46.5 q-104 98 -154.5 193t-50.5 200zM141 1186q0 -74 23.5 -139.5t66.5 -117.5t103.5 -90t132.5 -57v-94h-322v-41h365v164q-70 12 -129 47t-103.5 87t-70 116.5t-25.5 136.5v297h-41v-309zM145 147h322v-147h43v190h-365v-43zM145 233h408v-233h41v233h383v43h-383v287h383v43 h-383v248q66 6 122 36t98 77t66.5 106.5t24.5 124.5v297h-43v-297q0 -61 -21.5 -115.5t-59.5 -95.5t-91 -65.5t-117 -24.5q-61 0 -117.5 24.5t-97.5 65.5t-65.5 95.5t-24.5 115.5v297h-45v-309q0 -59 26.5 -118.5t72 -106t105.5 -76t126 -31.5v-248h-408v-43h408v-287h-408 v-43zM145 319h365v201h-365v-45h322v-113h-322v-43zM309 1198q0 -55 19.5 -102t53.5 -82t79 -55.5t98 -20.5q55 0 103.5 20.5t83 55.5t54 82t19.5 102v297h-41v-309q0 -90 -53 -147.5t-162 -57.5q-98 0 -154.5 59.5t-56.5 157.5v297h-43v-297zM635 0h45v147h297v43h-342 v-190zM635 319h342v43h-297v113h297v45h-342v-201zM635 647h342v41h-297v98q66 18 122 55.5t98 89.5t65.5 116.5t23.5 138.5v309h-41v-313q0 -66 -24.5 -126.5t-67.5 -109.5t-100.5 -82t-120.5 -45v-172z" />
<glyph unicode="&#xa6;" horiz-adv-x="657" d="M184 -188v739h289l107 -119v-727h-279zM184 952v729h289l107 -118v-717h-279zM221 -150h45v664h-45v-664zM221 989h45v656h-45v-656zM307 -150h43v664h-43v-664zM307 989h43v656h-43v-656zM393 -150h41v664h-41v-664zM393 989h41v656h-41v-656z" />
<glyph unicode="&#xa7;" horiz-adv-x="1339" d="M68 109h292l107 -119q0 -59 14.5 -79t61.5 -20q84 0 138 56.5t54 136.5q0 29 -5 49.5t-11 40.5q-31 12 -64.5 21.5t-62.5 15.5q-59 14 -107.5 31.5t-89.5 41t-77.5 54.5t-73.5 70q-33 33 -62.5 68.5t-52.5 78.5t-36 94t-13 117q0 141 67.5 250.5t178.5 165.5 q16 80 59 148.5t103.5 119.5t137 80t160.5 29q104 0 200.5 -50.5t195.5 -160.5q84 -92 126 -190.5t42 -211.5h-279l-119 107q0 66 -12 88t-41 22q-94 0 -143 -48t-49 -132v-28.5t2 -18.5q72 -20 130 -32.5t113.5 -35t112.5 -62.5t129 -116q94 -102 131 -191t37 -200 q0 -135 -67.5 -245.5t-178.5 -170.5q-14 -82 -55 -151.5t-102.5 -120.5t-139.5 -80t-166 -29q-178 0 -352 156q-113 102 -171 212t-62 239zM106 72q4 -92 40 -170t95.5 -135.5t137.5 -89t164 -31.5q82 0 155.5 28.5t130 79.5t94.5 118t50 144q111 53 178.5 159t67.5 235 q0 127 -42 213t-130 151q-41 31 -82 48.5t-83 29.5t-85 21.5t-84 23.5q-80 23 -115 71t-35 128q0 98 56.5 154.5t166.5 56.5q96 0 149.5 -58.5t53.5 -156.5h47q-8 113 -73.5 188.5t-176.5 75.5q-61 0 -110 -21.5t-84 -56.5t-53.5 -83t-18.5 -99q0 -176 176 -238 q43 -14 84 -22.5t82 -19.5t81 -27.5t77 -47.5q76 -59 116 -140t40 -191q0 -131 -64.5 -221.5t-179.5 -151.5q-8 -72 -41 -136.5t-84 -112.5t-118.5 -75.5t-145.5 -27.5t-148.5 29.5t-125 81.5t-86 123t-33.5 153h-44zM119 766q0 -158 68.5 -245t193.5 -136 q49 -20 115.5 -30.5t128 -36t104.5 -78t43 -156.5q0 -49 -17.5 -91t-48 -73t-72.5 -48t-91 -17q-104 0 -162.5 58t-58.5 159h-46q0 -55 23 -102.5t60.5 -83.5t86 -56t97.5 -20q61 0 111.5 21.5t86 58t55 87t19.5 107.5q0 80 -24.5 138.5t-79.5 99.5q-37 27 -76 40t-79 22 t-80 16.5t-79 21.5q-111 41 -174 125t-63 219q0 115 55 212t184 150q6 76 38 140.5t83 111.5t120 73t146 26q80 0 149 -31t119 -84t79.5 -123t29.5 -149h43q0 92 -33.5 170.5t-90 136t-133.5 89.5t-163 32q-84 0 -156.5 -27t-129 -74t-92 -114.5t-46.5 -149.5 q-111 -47 -177 -149.5t-66 -239.5zM190 72q4 -72 34 -135.5t78 -110.5t110.5 -74.5t130.5 -27.5q72 0 136 27.5t112.5 75.5t77 110.5t30.5 134.5q51 18 96 52t77 78t50.5 97t18.5 111q0 199 -144 305q-37 27 -76.5 42t-79.5 26.5t-82 19.5t-83 24q-92 33 -145.5 98.5 t-53.5 170.5q0 68 23.5 122t64.5 93t97.5 60.5t123.5 21.5q61 0 114.5 -22.5t93.5 -63.5t62.5 -96.5t22.5 -118.5h41q-2 70 -27.5 133t-70.5 111t-105.5 77t-130.5 29q-74 0 -138 -25.5t-110 -72t-74 -110t-28 -138.5q-109 -33 -174 -120t-65 -210q0 -117 59 -192.5 t158 -114.5q41 -16 82 -24.5t81.5 -16.5t79.5 -22.5t74 -41.5q59 -47 91 -113.5t32 -156.5q0 -66 -24.5 -123t-67.5 -100t-99.5 -68.5t-119.5 -25.5q-66 0 -122 23.5t-98 65.5t-66 97t-24 119h-43zM238 766q0 104 55 179t145 106q10 -100 68.5 -165t146.5 -100 q41 -16 83 -24t82 -17.5t79 -23.5t74 -41q125 -96 125 -270q0 -98 -56.5 -177t-142.5 -114q-8 170 -139 268q-37 27 -77 42t-81 26.5t-82 19.5t-84 25q-92 33 -144 98.5t-52 167.5zM279 766q0 -174 176 -234q43 -14 84 -22t82 -19.5t80.5 -28t78.5 -46.5q59 -47 96.5 -105.5 t49.5 -134.5q45 33 62.5 51.5t27.5 34.5q39 63 39 148q0 82 -24.5 140t-80.5 99q-37 27 -75.5 40t-78.5 22.5t-80 16.5t-79 20q-47 18 -83 39.5t-62.5 50t-47 66.5t-36.5 89q-61 -35 -95 -95t-34 -132zM322 766q0 104 63 158q29 -78 89.5 -127t146.5 -84q47 -20 114.5 -30.5 t129 -37.5t104.5 -79t43 -156q0 -90 -60 -156q-20 57 -56 104t-87 88q-41 31 -83 48.5t-84 30t-85 21.5t-84 21q-82 29 -116.5 75t-34.5 124zM467 629.5q0 -11.5 4 -21.5q45 -16 90 -25.5t90 -22.5t89 -32.5t91 -52.5q29 -23 56.5 -51.5t75.5 -81.5q4 16 8 33.5t4 34.5 q0 51 -17 90q-61 25 -119.5 36t-117.5 33q-72 29 -134.5 76t-103.5 96q-8 -18 -12 -38.5t-4 -49.5v-23.5z" />
<glyph unicode="&#xa8;" horiz-adv-x="950" d="M102 1706q0 59 42 102t104 43q41 0 71.5 -21.5t57.5 -49.5l82 -86q41 -41 41 -101q0 -59 -41 -99t-99 -40q-29 0 -55 12.5t-45 28.5l-92 82q-29 23 -47.5 54.5t-18.5 74.5zM141 1706q0 -45 31 -76t76 -31t76.5 31t31.5 76t-31.5 77t-76.5 32t-76 -32t-31 -77zM184 1706 q0 29 17.5 47.5t46.5 18.5q27 0 46 -18.5t19 -47.5q0 -27 -19.5 -45.5t-45.5 -18.5q-29 0 -46.5 18.5t-17.5 45.5zM221 1706q0 -25 27 -25t26 25q0 10 -8 19.5t-18 9.5t-18.5 -9.5t-8.5 -19.5zM557 1706q0 59 41 102t102 43q41 0 72 -21.5t57 -49.5l84 -86q41 -41 41 -101 q0 -59 -41 -99t-100 -40q-29 0 -54.5 12.5t-43.5 28.5l-92 82q-29 23 -47.5 54.5t-18.5 74.5zM594 1706q0 -45 30.5 -76t75.5 -31q47 0 78 31t31 76t-30.5 77t-78.5 32q-45 0 -75.5 -32t-30.5 -77zM637 1706q0 29 18.5 47.5t44.5 18.5q29 0 47.5 -18.5t18.5 -47.5 q0 -27 -18.5 -45.5t-47.5 -18.5q-27 0 -45 18.5t-18 45.5zM676 1706q0 -10 7 -17.5t17 -7.5q27 0 27 25q0 10 -7 19.5t-20 9.5q-10 0 -17 -9.5t-7 -19.5z" />
<glyph unicode="&#xaa;" horiz-adv-x="729" d="M82 569v654q0 61 22.5 112t60.5 88t89 57.5t108 20.5q76 0 144.5 -38t140.5 -124q53 -66 80 -120t27 -109v-647h-203l-119 106v246h-29v-352h-202zM121 608h43v617q0 39 17.5 75.5t45 63.5t64.5 43t74 16q39 0 75.5 -16t64 -44t44 -63.5t16.5 -74.5v-617h43v615 q0 51 -19.5 95t-53 76.5t-77.5 51t-96 18.5q-49 0 -93 -18.5t-76.5 -50t-52 -76.5t-19.5 -96v-615zM213 608h45v353h213v-353h45v396h-303v-396zM213 1053h303v168q0 66 -43 110.5t-111 44.5q-66 0 -107.5 -45t-41.5 -110v-168zM258 1096v129q0 47 28.5 76.5t75.5 29.5 t78 -28.5t31 -77.5v-129h-213zM403 1135h29v39q-18 -14 -29 -39z" />
<glyph unicode="&#xab;" horiz-adv-x="1060" d="M76 567v301l444 332l109 -125v-141l356 266l107 -125v-346l-146 -106l146 -144v-344l-463 348v-348l-436 322zM113 586l370 -275v54l-370 274v-53zM113 690l370 -276v55l-333 250l333 248v55l-370 -279v-53zM113 797l370 276v51l-370 -274v-53zM217 719l266 -199v55 l-188 142l188 141v60zM483 623l56 -56v95zM575 586l371 -275v54l-371 274v-53zM575 690l371 -276v55l-334 250l334 248v55l-371 -279v-53zM575 797l371 276v51l-371 -274v-53zM680 719l266 -199v55l-188 142l188 141v60z" />
<glyph unicode="&#xad;" horiz-adv-x="657" d="M76 623v286h506l106 -118v-275h-495zM113 659h430v41h-430v-41zM113 741h430v45h-430v-45zM113 829h430v43h-430v-43z" />
<glyph unicode="&#xaf;" horiz-adv-x="987" d="M102 1575v287h783l106 -119v-275h-770zM141 1612h707v41h-707v-41zM141 1694h707v45h-707v-45zM141 1782h707v43h-707v-43z" />
<glyph unicode="&#xb0;" horiz-adv-x="669" d="M102 1384q0 104 63.5 170t168.5 66q66 0 114 -26.5t87 -67.5l77 -82q31 -33 46.5 -77t15.5 -93q0 -100 -61.5 -162.5t-163.5 -62.5q-100 0 -173 61l-77 74q-41 37 -69 85.5t-28 114.5zM141 1384q0 -86 56.5 -139t138.5 -53q88 0 140 53t52 139t-52 142.5t-142 56.5 q-88 0 -140.5 -56.5t-52.5 -142.5zM182 1384q0 66 43 109t109 43q63 0 107 -43t44 -109t-44 -108.5t-107 -42.5q-66 0 -109 43t-43 108zM229 1384q0 -45 31 -76.5t74 -31.5q45 0 74.5 31.5t29.5 76.5t-29.5 77t-74.5 32q-43 0 -74 -31.5t-31 -77.5zM268 1382q0 29 18.5 48.5 t47.5 19.5q31 0 50 -19.5t19 -48.5q0 -33 -19 -49t-50 -16q-29 0 -47.5 16.5t-18.5 48.5z" />
<glyph unicode="&#xb1;" horiz-adv-x="964" d="M102 0zM102 -34v286h760l107 -118v-275h-748zM102 623v286h234v244h287l106 -119v-125h133l107 -118v-275h-240v-231h-274l-119 106v125h-115zM141 2h684v41h-684v-41zM141 84h684v45h-684v-45zM141 172h684v43h-684v-43zM141 659h232v-229h43v270h-275v-41zM141 741h316 v-311h43v311h325v45h-325v330h-43v-330h-316v-45zM141 829h275v287h-43v-244h-232v-43zM543 430h43v229h239v41h-282v-270zM543 829h282v43h-239v244h-43v-287z" />
<glyph unicode="&#xb2;" horiz-adv-x="720" d="M80 510zM80 616v305q0 66 25.5 115t74.5 92l-100 90q0 68 20.5 127.5t57.5 105.5t89 72.5t118 26.5q78 0 145.5 -37t144.5 -125q98 -113 99 -221q0 -82 -32 -136t-85 -89q-29 -18 -56.5 -27.5t-58.5 -15.5q-51 -10 -80.5 -22.5t-40.5 -47.5h226l106 -119v-200h-534z M119 653h469v45h-426v223q0 51 14 80t37 45q27 20 57.5 32.5t61 23t61.5 21.5t60 28q31 16 49 43.5t18 74.5q0 70 -45 111t-110 41q-70 0 -112 -48t-42 -116h47q0 53 26.5 85t80.5 32q47 0 78.5 -28.5t31.5 -78.5q0 -31 -13 -49t-36 -33q-31 -18 -62.5 -28t-63.5 -19.5 t-61.5 -21.5t-56.5 -33q-29 -27 -46 -65.5t-17 -96.5v-268zM119 1257h45q0 43 14.5 81t41 66.5t63 46t82.5 17.5q84 0 142 -52t58 -138q0 -55 -21.5 -95.5t-60.5 -66.5q-27 -18 -56.5 -26.5t-59 -14.5t-59 -15.5t-54.5 -27.5q-18 -16 -30.5 -42t-12.5 -65v-178h377v45h-332 v133q0 27 9 43.5t22 28.5q25 18 53.5 27.5t57 16.5t57 15.5t53.5 24.5q47 31 73.5 79t26.5 120q0 109 -71.5 170t-171.5 61q-55 0 -101.5 -20.5t-78 -55t-49 -81t-17.5 -97.5z" />
<glyph unicode="&#xb3;" horiz-adv-x="714" d="M70 494zM70 940h206l111 -123q29 12 39 49h-49l-119 109v129h-70l-118 106q0 76 20.5 139.5t57 107.5t89 68.5t115.5 24.5q82 0 147.5 -36t137.5 -120q59 -66 82.5 -124t23.5 -123q0 -66 -17 -111t-48 -76q31 -31 48 -74t17 -108q0 -129 -74.5 -207t-203.5 -78 q-57 0 -110.5 24.5t-116.5 80.5q-88 76 -128 155.5t-40 186.5zM106 903q0 -123 68 -193.5t178 -70.5q115 0 181.5 67.5t66.5 184.5q0 68 -22.5 111.5t-57.5 72.5q35 27 57.5 71t22.5 113q0 117 -66.5 184.5t-181.5 67.5q-111 0 -178.5 -71.5t-67.5 -192.5h46q0 98 54 157.5 t146 59.5t147.5 -56.5t55.5 -148.5q0 -119 -109 -184q109 -59 109 -184q0 -92 -55.5 -149.5t-147.5 -57.5t-146 60.5t-54 158.5h-46zM195 903q0 -72 40.5 -123t116.5 -51q78 0 119 48t41 114q0 80 -45 120.5t-115 40.5h-55v-41h55q51 0 83 -30.5t32 -89.5q0 -51 -30.5 -86 t-84.5 -35q-53 0 -83.5 39t-30.5 94h-43zM195 1247h43q0 55 30.5 94t83.5 39t84 -35t31 -86q0 -61 -32 -91t-83 -30h-55v-41h55q70 0 115 41t45 121q0 66 -41 114t-119 48q-76 0 -116.5 -52t-40.5 -122z" />
<glyph unicode="&#xb4;" horiz-adv-x="608" d="M88 1524l145 409h287l107 -118l-146 -398h-272zM141 1561h41l119 333h-41zM221 1561h45l121 333h-43zM307 1561h39l123 333h-41z" />
<glyph unicode="&#xb6;" horiz-adv-x="1228" d="M102 -37v1569h1022l107 -119v-1556h-1010zM141 0h946v1495h-946v-1495zM184 41v1409h860v-1409h-860zM225 86h776v1321h-776v-1321zM268 127v1239h693v-1239h-693zM311 170h607v1153h-607v-1153zM352 211v1069h522v-1069h-522zM498 250h338v887h-338v-887z" />
<glyph unicode="&#xb7;" horiz-adv-x="497" d="M102 496zM102 745q0 61 42 104.5t104 43.5q76 0 131 -66l80 -94q41 -47 41 -100q0 -59 -41 -98t-99 -39q-29 0 -54 11t-46 28l-92 79q-29 25 -47.5 57.5t-18.5 73.5zM141 745q0 -45 31 -75.5t76 -30.5t76.5 30.5t31.5 75.5t-31.5 77t-76.5 32t-76 -32t-31 -77zM184 745 q0 29 17.5 47.5t46.5 18.5q27 0 46 -18.5t19 -47.5q0 -27 -19.5 -45t-45.5 -18q-29 0 -46.5 18t-17.5 45zM221 745q0 -25 27 -24q27 0 26 24q0 10 -8 19.5t-18 9.5t-18.5 -9.5t-8.5 -19.5z" />
<glyph unicode="&#xb8;" horiz-adv-x="499" d="M102 -147q0 66 44 107.5t106 41.5q43 0 79 -24.5t97 -86.5q47 -49 61.5 -85.5t14.5 -65.5q0 -23 -6 -45.5t-23 -40.5l-119 -164l-209 172l41 57q-47 29 -66.5 62t-19.5 72zM141 -147q0 -76 72 -103l20 35q-18 4 -34.5 20.5t-16.5 44.5q0 37 19.5 53.5t48.5 16.5t47 -18.5 t18 -51.5q0 -20 -16 -47l-98 -131l35 -26l102 139q23 31 22 68q0 45 -30.5 78.5t-77.5 33.5t-79 -31.5t-32 -80.5zM219 -150q0 -12 9.5 -20t21.5 -8q27 0 26 28q0 10 -7 18.5t-19 8.5t-21.5 -8.5t-9.5 -18.5z" />
<glyph unicode="&#xb9;" horiz-adv-x="473" d="M33 510zM33 1343l166 191h188l107 -117v-907h-201l-119 106v600zM88 1349l33 -26l155 174h-61zM158 1286l37 -25l16 17v-625h43v745zM303 653h45v844h-45v-844z" />
<glyph unicode="&#xba;" horiz-adv-x="720" d="M78 834v389q0 61 22.5 112t60.5 88t89 57.5t110 20.5q74 0 140.5 -35.5t138.5 -115.5q59 -70 85 -125.5t26 -114.5v-389q0 -61 -21.5 -111.5t-59.5 -86.5t-88.5 -55t-107.5 -19q-59 0 -117.5 25t-132.5 91q-76 66 -110.5 128.5t-34.5 140.5zM117 834q0 -53 19.5 -98.5 t52 -77t76.5 -49t95 -17.5t96.5 17.5t78 49t52 76.5t19.5 99v389q0 53 -19.5 98t-52 77t-77.5 49t-97 17q-51 0 -95 -17t-76.5 -49t-52 -77t-19.5 -98v-389zM160 834v389q0 43 17.5 79.5t45 62.5t63.5 40t74 14q37 0 74 -14t64.5 -40t45 -62.5t17.5 -79.5v-389 q0 -43 -17.5 -80t-45 -62.5t-64.5 -40t-74 -14.5q-39 0 -74.5 14.5t-63 40t-45 62.5t-17.5 80zM211 834q0 -70 45 -110t104 -40t105.5 40t46.5 110v389q0 72 -46 110.5t-106 38.5q-59 0 -104 -39t-45 -110v-389zM254 834v389q0 49 29.5 76.5t76.5 27.5q49 0 78 -27.5 t29 -76.5v-389q0 -49 -28.5 -76t-78.5 -27q-47 0 -76.5 26.5t-29.5 76.5zM399 778q31 14 31 56v335q-31 -16 -31 -59v-332z" />
<glyph unicode="&#xbb;" horiz-adv-x="1060" d="M78 236v358l147 111l-147 135v360l463 -350v350l444 -332l109 -114v-297l-437 -322l-116 101v153l-346 -254zM115 311l370 275v53l-370 -274v-54zM115 414l370 276v53l-370 279v-55l336 -248l-336 -250v-55zM115 520l266 199l-266 199v-60l188 -141l-188 -142v-55z M115 1073l370 -276v53l-370 274v-51zM578 311l370 275v53l-370 -274v-54zM578 414l370 276v53l-370 279v-55l335 -248l-335 -250v-55zM578 520l266 199l-266 199v-60l188 -141l-188 -142v-55zM578 1073l370 -276v53l-370 274v-51zM631 662l57 43l-57 53v-96z" />
<glyph unicode="&#xbc;" horiz-adv-x="1587" d="M72 1341l164 193h188l106 -119v-760l498 877h281l102 -119l-885 -1556h-268l-121 106l309 545h-116l-119 106v600zM125 1348l35 -27l153 174h-59zM195 1286l38 -26l17 16v-623h43v746zM201 0h39l850 1495h-39zM279 0h38l848 1495h-39zM342 653h45v842h-45v-842zM356 0h39 l850 1495h-41zM879 133l340 748h194l107 -117v-447l88 -88v-202h-88v-170h-203l-117 106v64h-199zM938 170h299v-170h45v215h-274l282 629h-49zM1077 264h207v432zM1151 309l86 191v-191h-86zM1331 0h45v170h88v45h-133v-215zM1331 264h133v45h-88v535h-45v-580z" />
<glyph unicode="&#xbd;" horiz-adv-x="1669" d="M72 1341l164 193h188l106 -119v-760l498 877h281l102 -119l-885 -1556h-268l-121 106l309 545h-116l-119 106v600zM125 1348l35 -27l153 174h-59zM195 1286l38 -26l17 16v-623h43v746zM201 0h39l850 1495h-39zM279 0h38l848 1495h-39zM342 653h45v842h-45v-842zM356 0h39 l850 1495h-41zM1014 -37v305q0 66 25.5 115t74.5 92l-100 90q0 68 20.5 127.5t57 105.5t89 72.5t115.5 26.5q78 0 146.5 -37t146.5 -125q98 -113 99 -221q0 -82 -32 -136t-85 -89q-29 -18 -57.5 -27.5t-57.5 -15.5q-51 -10 -80.5 -22.5t-40.5 -47.5h226l106 -119v-200h-534z M1053 0h469v45h-426v223q0 51 14 80t37 45q27 20 57.5 32.5t61 23t61.5 21.5t57 28q33 16 51.5 43.5t18.5 74.5q0 70 -46 111t-112 41q-68 0 -109.5 -48t-41.5 -116h47q0 53 26.5 85t77.5 32q47 0 80 -28.5t33 -78.5q0 -31 -13.5 -49t-35.5 -33q-31 -18 -63.5 -28 t-64.5 -19.5t-61.5 -21.5t-54.5 -33q-29 -27 -46 -65.5t-17 -96.5v-268zM1053 604h43q0 43 14 81t41 66.5t63.5 46t81.5 17.5q86 0 144.5 -52t58.5 -138q0 -55 -21.5 -95.5t-60.5 -66.5q-27 -18 -56.5 -26.5t-59 -14.5t-59.5 -15.5t-54 -27.5q-18 -16 -30.5 -42t-12.5 -65 v-178h377v45h-332v133q0 27 9 43.5t22 28.5q25 18 53.5 27.5t57 16.5t57 15.5t53.5 24.5q47 31 73.5 79t26.5 120q0 53 -19.5 96t-53 72.5t-77.5 46t-96 16.5q-55 0 -100 -20.5t-77 -55t-49 -81t-17 -97.5z" />
<glyph unicode="&#xbe;" horiz-adv-x="1810" d="M88 0zM88 940h206l111 -123q29 12 39 49h-49l-119 109v129h-70l-118 106q0 76 20.5 139.5t57 107.5t89 68.5t115.5 24.5q82 0 147.5 -36t137.5 -120q59 -66 82.5 -124t23.5 -123q0 -66 -17 -111t-48 -76q31 -31 48 -74t17 -108q0 -129 -74.5 -207t-203.5 -78 q-57 0 -110.5 24.5t-116.5 80.5q-88 76 -128 155.5t-40 186.5zM124 903q0 -123 68 -193.5t178 -70.5q115 0 181.5 67.5t66.5 184.5q0 68 -22.5 111.5t-57.5 72.5q35 27 57.5 71t22.5 113q0 117 -66.5 184.5t-181.5 67.5q-111 0 -178.5 -71.5t-67.5 -192.5h46q0 98 54 157.5 t146 59.5t147.5 -56.5t55.5 -148.5q0 -119 -109 -184q109 -59 109 -184q0 -92 -55.5 -149.5t-147.5 -57.5t-146 60.5t-54 158.5h-46zM213 903q0 -72 40.5 -123t116.5 -51q78 0 119 48t41 114q0 80 -45 120.5t-115 40.5h-55v-41h55q51 0 83 -30.5t32 -89.5q0 -51 -30.5 -86 t-84.5 -35q-53 0 -83.5 39t-30.5 94h-43zM213 1247h43q0 55 30.5 94t83.5 39t84 -35t31 -86q0 -61 -32 -91t-83 -30h-55v-41h55q70 0 115 41t45 121q0 66 -41 114t-119 48q-76 0 -116.5 -52t-40.5 -122zM358 -37l891 1569h281l102 -119l-884 -1556h-269zM422 0h39l850 1495 h-39zM500 0h39l847 1495h-38zM578 0h38l850 1495h-41zM1100 133l340 748h194l107 -117v-447l88 -88v-202h-88v-170h-201l-119 106v64h-198zM1159 170h299v-170h45v215h-274l282 629h-49zM1298 264h207v432zM1372 309l86 191v-191h-86zM1552 0h45v170h89v45h-134v-215z M1552 264h134v45h-89v535h-45v-580z" />
<glyph unicode="&#xbf;" horiz-adv-x="1052" d="M59 412q0 166 90.5 279.5t243.5 158.5q37 10 66.5 39t29.5 88q0 23 -9 52.5t-40 84.5h301l115 -106q14 -45 19.5 -80t5.5 -64q0 -150 -77 -254t-218 -145q-66 -18 -104 -62.5t-38 -103.5q0 -43 14.5 -61.5t61.5 -18.5q39 0 73 14.5t59.5 38t40 55t14.5 66.5q0 16 -5.5 44 t-15.5 57l264 71l117 -106q16 -53 23.5 -94t7.5 -76q0 -106 -39 -191.5t-103.5 -143.5t-148.5 -90t-176 -32q-117 0 -215.5 53.5t-196.5 161.5q-80 90 -120 177t-40 188zM98 408q0 -92 33 -171t89 -137.5t134 -91.5t170 -33q82 0 160 29t138.5 83t96 132t35.5 176 q0 59 -18 125l-39 -12q14 -49 14 -105q0 -88 -31.5 -159.5t-85 -122.5t-124 -80t-146.5 -29q-84 0 -153.5 31t-119.5 83t-79 122.5t-29 150.5q0 137 78 236.5t199 134.5q66 20 107.5 71.5t41.5 131.5q0 25 -4 50.5t-18 51.5h-45q16 -27 20 -52.5t4 -51.5q0 -72 -35.5 -109 t-80.5 -49q-143 -43 -227.5 -148.5t-84.5 -256.5zM184 391q0 -66 24.5 -128t70 -109.5t108 -76t135.5 -28.5q66 0 129.5 27.5t112.5 74t78.5 109t29.5 129.5q0 23 -5 49.5t-15 57.5l-41 -13q10 -20 14 -42.5t4 -47.5q0 -63 -24.5 -116.5t-66.5 -92.5t-97 -61.5t-117 -22.5 q-66 0 -121 22.5t-96 61.5t-63.5 92.5t-22.5 116.5q0 104 58.5 186.5t162.5 110.5q96 23 153.5 99.5t57.5 193.5q0 23 -3 46.5t-13 45.5h-43q10 -25 12 -50.5t2 -47.5q0 -94 -47 -160.5t-129 -87.5q-115 -29 -181.5 -120t-66.5 -218zM262 401q0 -113 70.5 -188.5 t191.5 -75.5q49 0 96.5 20.5t84 55.5t59 81t22.5 99q0 20 -2 39t-12 39l-41 -10q12 -41 12 -74q0 -41 -16 -78t-46 -65.5t-70 -45t-87 -16.5q-96 0 -160.5 62.5t-64.5 163.5q0 72 46 125t124 75q129 35 198.5 131.5t69.5 231.5q0 29 -3 55.5t-11 48.5h-43q6 -23 10 -45 t4 -45q0 -131 -64.5 -219t-174.5 -117q-82 -23 -137.5 -90t-55.5 -158zM438 1395q0 59 41 99t101 40q29 0 54 -11.5t44 -27.5l92 -82q29 -23 47.5 -55.5t18.5 -75.5q0 -59 -41 -102t-103 -43q-41 0 -73.5 17t-57.5 46l-82 94q-41 47 -41 101zM477 1389q0 -45 32 -77t77 -32 q47 0 77.5 32t30.5 77q0 47 -30.5 76.5t-77.5 29.5q-45 0 -77 -29.5t-32 -76.5zM520 1389q0 29 18.5 46t47.5 17t47 -17t18 -46t-18.5 -47.5t-46.5 -18.5q-29 0 -47.5 18.5t-18.5 47.5zM561 1389q0 -27 25 -27q24 0 24 27q0 25 -24 24q-25 0 -25 -24z" />
<glyph unicode="&#xc0;" d="M96 -37v1137q0 82 24.5 153.5t68.5 129t105.5 98.5t133.5 59l-141 393h286l109 -118l119 -328q88 -55 174 -150q76 -86 114.5 -172t38.5 -178v-1130h-276l-119 106v533h-244v-639h-276zM133 0h41v1104q0 76 33 144.5t86 120.5t122.5 83t141.5 31q76 0 144.5 -32t122 -84 t85 -120.5t31.5 -142.5v-1104h45v1100q0 88 -35 163.5t-93 133t-136 90.5t-166 33t-165 -32t-134 -88.5t-90 -133t-33 -166.5v-1100zM217 0h43v725h596v-725h41v1104q0 66 -26.5 127t-72.5 109.5t-108.5 77t-134.5 28.5q-68 0 -129 -26.5t-107.5 -75t-74 -112t-27.5 -136.5 v-1096zM260 766v338q0 61 23.5 114.5t63.5 93.5t94.5 63.5t113.5 23.5q61 0 115.5 -23.5t96.5 -64.5t65.5 -96.5t23.5 -118.5v-330h-596zM303 0h41v639h426v-639h41v680h-508v-680zM303 809h508v287q0 55 -19.5 103t-53 83t-81 55.5t-102.5 20.5t-101 -20.5t-80 -55.5 t-52.5 -83t-18.5 -103v-287zM340 1894l121 -333h39l-119 333h-41zM344 852v252q0 94 56.5 152.5t154.5 58.5q96 0 155.5 -56.5t59.5 -154.5v-252h-426zM422 1894l121 -333h43l-121 333h-43zM489 891h244v213q0 41 -11 53t-54 12q-84 0 -131.5 -50t-47.5 -128v-100zM506 1894 l121 -333h41l-121 333h-41z" />
<glyph unicode="&#xc1;" d="M96 -37v1137q0 76 22.5 144.5t62.5 124.5t95.5 98t120.5 65l146 401h286l105 -118l-123 -336q70 -45 128 -102.5t100 -122t65.5 -133t23.5 -134.5v-1130h-276l-119 106v533h-244v-639h-276zM133 0h41v1104q0 76 33 144.5t86 120.5t122.5 83t141.5 31q76 0 144.5 -32 t122 -84t85 -120.5t31.5 -142.5v-1104h45v1100q0 88 -35 163.5t-93 133t-136 90.5t-166 33t-165 -32t-134 -88.5t-90 -133t-33 -166.5v-1100zM217 0h43v725h596v-725h41v1104q0 66 -26.5 127t-72.5 109.5t-108.5 77t-134.5 28.5q-68 0 -129 -26.5t-107.5 -75t-74 -112 t-27.5 -136.5v-1096zM260 766v338q0 61 23.5 114.5t63.5 93.5t94.5 63.5t113.5 23.5q61 0 115.5 -23.5t96.5 -64.5t65.5 -96.5t23.5 -118.5v-330h-596zM303 0h41v639h426v-639h41v680h-508v-680zM303 809h508v287q0 55 -19.5 103t-53 83t-81 55.5t-102.5 20.5t-101 -20.5 t-80 -55.5t-52.5 -83t-18.5 -103v-287zM344 852v252q0 94 56.5 152.5t154.5 58.5q96 0 155.5 -56.5t59.5 -154.5v-252h-426zM449 1561h40l119 333h-41zM489 891h244v213q0 41 -11 53t-54 12q-84 0 -131.5 -50t-47.5 -128v-100zM528 1561h45l121 333h-43zM614 1561h39 l123 333h-41z" />
<glyph unicode="&#xc2;" d="M96 -37v1137q0 129 58.5 230.5t156.5 160.5l-37 33l138 409h295l108 -118l133 -398h-53q115 -109 174 -211t59 -219v-1130h-276l-119 106v533h-244v-639h-276zM133 0h41v1104q0 76 33 144.5t86 120.5t122.5 83t141.5 31q76 0 144.5 -32t122 -84t85 -120.5t31.5 -142.5 v-1104h45v1100q0 88 -35 163.5t-93 133t-136 90.5t-166 33t-165 -32t-134 -88.5t-90 -133t-33 -166.5v-1100zM217 0h43v725h596v-725h41v1104q0 66 -26.5 127t-72.5 109.5t-108.5 77t-134.5 28.5q-68 0 -129 -26.5t-107.5 -75t-74 -112t-27.5 -136.5v-1096zM260 766v338 q0 61 23.5 114.5t63.5 93.5t94.5 63.5t113.5 23.5q61 0 115.5 -23.5t96.5 -64.5t65.5 -96.5t23.5 -118.5v-330h-596zM303 0h41v639h426v-639h41v680h-508v-680zM303 809h508v287q0 55 -19.5 103t-53 83t-81 55.5t-102.5 20.5t-101 -20.5t-80 -55.5t-52.5 -83t-18.5 -103 v-287zM324 1561h47l112 333h-45zM344 852v252q0 94 56.5 152.5t154.5 58.5q96 0 155.5 -56.5t59.5 -154.5v-252h-426zM420 1561h49l90 266l88 -266h49l-114 333h-47zM489 891h244v213q0 41 -11 53t-54 12q-84 0 -131.5 -50t-47.5 -128v-100zM518 1561h80l-39 122zM631 1894 l112 -333h50l-113 333h-49z" />
<glyph unicode="&#xc3;" d="M96 -37v1137q0 92 30 169t83 136l-31 31v379q49 29 103.5 44t109.5 15q51 0 97.5 -14.5t87 -33t78.5 -32.5t75 -14q39 0 87 40t110 128l118 -113v-381q-70 -39 -135 -51q109 -111 164 -205t55 -211v-1130h-276l-119 106v533h-244v-639h-276zM133 0h41v1104q0 76 33 144.5 t86 120.5t122.5 83t141.5 31q76 0 144.5 -32t122 -84t85 -120.5t31.5 -142.5v-1104h45v1100q0 88 -35 163.5t-93 133t-136 90.5t-166 33t-165 -32t-134 -88.5t-90 -133t-33 -166.5v-1100zM215 1534q37 53 80 77.5t92 24.5q41 0 81 -15t80 -32.5t83 -33t92 -15.5 q51 0 96 12.5t80 32.5v49q-35 -23 -77 -37t-89 -14q-49 0 -92 15.5t-85 33t-83 32.5t-88 15q-51 0 -93 -24.5t-77 -65.5v-55zM215 1640q35 35 84 55.5t102 20.5q43 0 81 -14t76 -32.5t78 -33t83 -14.5q53 0 98 13.5t82 43.5v60q-35 -35 -83 -56.5t-101 -21.5q-41 0 -79 15.5 t-76 32.5t-79 32.5t-86 15.5q-106 0 -180 -59v-58zM215 1743q37 23 79 38t89 15q49 0 92 -15.5t84 -33.5t83 -33.5t89 -15.5q51 0 92 24.5t76 65.5v57q-70 -104 -170 -104q-43 0 -82 15.5t-80 32.5t-84 32.5t-92 15.5q-98 0 -176 -45v-49zM217 0h43v725h596v-725h41v1104 q0 66 -26.5 127t-72.5 109.5t-108.5 77t-134.5 28.5q-68 0 -129 -26.5t-107.5 -75t-74 -112t-27.5 -136.5v-1096zM260 766v338q0 61 23.5 114.5t63.5 93.5t94.5 63.5t113.5 23.5q61 0 115.5 -23.5t96.5 -64.5t65.5 -96.5t23.5 -118.5v-330h-596zM303 0h41v639h426v-639h41 v680h-508v-680zM303 809h508v287q0 55 -19.5 103t-53 83t-81 55.5t-102.5 20.5t-101 -20.5t-80 -55.5t-52.5 -83t-18.5 -103v-287zM344 852v252q0 94 56.5 152.5t154.5 58.5q96 0 155.5 -56.5t59.5 -154.5v-252h-426zM489 891h244v213q0 41 -11 53t-54 12q-84 0 -131.5 -50 t-47.5 -128v-100z" />
<glyph unicode="&#xc4;" d="M96 -37v1137q0 135 64.5 240.5t171.5 162.5l-80 74q-29 23 -47.5 54.5t-18.5 74.5q0 59 41 102t103 43q41 0 71.5 -21.5t57.5 -49.5l84 -86q18 -20 29.5 -46t11.5 -55q0 -23 -6 -37q109 -6 206 -60t191 -159q76 -86 114.5 -172t38.5 -178v-1130h-276l-119 106v533h-244 v-639h-276zM133 0h41v1104q0 76 33 144.5t86 120.5t122.5 83t141.5 31q76 0 144.5 -32t122 -84t85 -120.5t31.5 -142.5v-1104h45v1100q0 88 -35 163.5t-93 133t-136 90.5t-166 33t-165 -32t-134 -88.5t-90 -133t-33 -166.5v-1100zM217 0h43v725h596v-725h41v1104 q0 66 -26.5 127t-72.5 109.5t-108.5 77t-134.5 28.5q-68 0 -129 -26.5t-107.5 -75t-74 -112t-27.5 -136.5v-1096zM223 1706q0 -45 31 -76t76 -31t76.5 31t31.5 76t-31.5 77t-76.5 32t-76 -32t-31 -77zM260 766v338q0 61 23.5 114.5t63.5 93.5t94.5 63.5t113.5 23.5 q61 0 115.5 -23.5t96.5 -64.5t65.5 -96.5t23.5 -118.5v-330h-596zM266 1706q0 29 18.5 47.5t45.5 18.5t46 -18.5t19 -47.5q0 -27 -19.5 -45.5t-45.5 -18.5q-27 0 -45.5 18.5t-18.5 45.5zM303 0h41v639h426v-639h41v680h-508v-680zM303 809h508v287q0 55 -19.5 103t-53 83 t-81 55.5t-102.5 20.5t-101 -20.5t-80 -55.5t-52.5 -83t-18.5 -103v-287zM303 1706q0 -25 27 -25t26 25q0 10 -8 19.5t-18 9.5t-18.5 -9.5t-8.5 -19.5zM344 852v252q0 94 56.5 152.5t154.5 58.5q96 0 155.5 -56.5t59.5 -154.5v-252h-426zM489 891h244v213q0 41 -11 53 t-54 12q-84 0 -131.5 -50t-47.5 -128v-100zM639 1706q0 59 41 102t104 43q41 0 71 -21.5t58 -49.5l82 -86q41 -41 41 -101q0 -59 -41 -99t-98 -40q-31 0 -56.5 12.5t-43.5 28.5l-92 82q-29 23 -47.5 54.5t-18.5 74.5zM676 1706q0 -45 30.5 -76t77.5 -31q45 0 77 31t32 76 t-32 77t-77 32q-47 0 -77.5 -32t-30.5 -77zM719 1706q0 29 18.5 47.5t46.5 18.5q29 0 47.5 -18.5t18.5 -47.5q0 -27 -18.5 -45.5t-47.5 -18.5t-47 18.5t-18 45.5zM760 1706q0 -25 24 -25q25 0 25 25q0 10 -7 19.5t-18 9.5q-10 0 -17 -9.5t-7 -19.5z" />
<glyph unicode="&#xc5;" d="M96 -37v1137q0 76 22.5 143.5t61.5 122.5t93.5 97t119.5 67q-29 31 -48 76t-19 90q0 104 64.5 170.5t168.5 66.5q66 0 111 -27.5t86 -66.5l80 -80q31 -31 46 -77t15 -97q0 -76 -43 -135q23 -20 50.5 -44t68.5 -69q156 -168 155 -350v-1130h-276l-119 106v533h-244v-639 h-276zM133 0h41v1104q0 76 33 144.5t86 120.5t122.5 83t141.5 31q76 0 144.5 -32t122 -84t85 -120.5t31.5 -142.5v-1104h45v1100q0 78 -27.5 147.5t-75.5 124.5t-114 92t-139 49q55 18 89 67.5t34 117.5q0 86 -52.5 141t-140.5 55t-141 -55t-53 -143q0 -66 34.5 -114 t92.5 -66q-78 -10 -143.5 -46t-113 -91.5t-75 -126t-27.5 -152.5v-1100zM217 0h43v725h596v-725h41v1104q0 66 -26.5 127t-72.5 109.5t-108.5 77t-134.5 28.5q-68 0 -129 -26.5t-107.5 -75t-74 -112t-27.5 -136.5v-1096zM260 766v338q0 61 23.5 114.5t63.5 93.5t94.5 63.5 t113.5 23.5q61 0 115.5 -23.5t96.5 -64.5t65.5 -96.5t23.5 -118.5v-330h-596zM303 0h41v639h426v-639h41v680h-508v-680zM303 809h508v287q0 55 -19.5 103t-53 83t-81 55.5t-102.5 20.5t-101 -20.5t-80 -55.5t-52.5 -83t-18.5 -103v-287zM344 852v252q0 94 56.5 152.5 t154.5 58.5q96 0 155.5 -56.5t59.5 -154.5v-252h-426zM406 1696q0 66 43 109.5t108 43.5q63 0 107.5 -43.5t44.5 -109.5q0 -63 -44 -106.5t-108 -43.5q-66 0 -108.5 43t-42.5 107zM453 1696q0 -43 29.5 -75t74.5 -32t75 32t30 75q0 47 -30 77.5t-75 30.5t-74.5 -30.5 t-29.5 -77.5zM489 891h244v213q0 41 -11 53t-54 12q-84 0 -131.5 -50t-47.5 -128v-100zM492 1694q0 29 18 48t47 19q31 0 51.5 -19t20.5 -48q0 -31 -20.5 -48.5t-51.5 -17.5q-29 0 -47 17.5t-18 48.5z" />
<glyph unicode="&#xc6;" horiz-adv-x="1761" d="M96 -37v1137q0 98 36 182t98.5 145.5t145.5 96.5t179 35q184 0 317 -123q129 123 324 123q117 0 218.5 -52.5t195.5 -158.5q80 -88 117.5 -175.5t37.5 -185.5v-74h-276l-119 107v80q0 39 -9 51t-52 12q-84 0 -132.5 -46t-48.5 -130v-98h254l107 -119v-276h-361v-215 q0 -39 10.5 -47.5t57.5 -8.5q80 0 127 45t47 123v76h289l106 -119v-69q0 -98 -35.5 -181.5t-98 -143.5t-145.5 -93t-177 -33q-188 0 -371 162q-98 88 -151.5 185t-53.5 216v105h-244v-639h-276zM133 0h41v1104q0 76 33 144.5t86 120.5t122.5 83t141.5 31q94 0 178 -48.5 t137 -123.5l9 8q55 76 139 117t176 41q74 0 142.5 -27t121.5 -76t86 -118.5t33 -155.5v-43h43v43q0 92 -34 170t-91 133t-135 86t-166 31q-98 0 -181 -36t-143 -102q-59 63 -141 100.5t-176 37.5q-88 0 -165 -32t-134 -88.5t-90 -133t-33 -166.5v-1100zM217 0h43v725h596 v-334q0 -74 28.5 -135t76 -105.5t108.5 -69t127 -24.5t127 24.5t108.5 69t76 105.5t28.5 135v39h-43v-39q0 -63 -22.5 -116.5t-61.5 -92.5t-94 -60.5t-119 -21.5q-66 0 -120 21.5t-93 60.5t-61.5 92.5t-22.5 116.5v332h444v41h-444v336q0 66 22.5 120t62.5 92t94.5 59.5 t117.5 21.5t118.5 -21.5t94.5 -59.5t61.5 -92.5t22.5 -119.5v-43h43v43q0 76 -28.5 137t-76 105t-108.5 69t-127 25q-51 0 -100 -15.5t-92 -43t-76 -67.5t-51 -89q-18 47 -50 88t-74 71.5t-92.5 48t-105.5 17.5q-68 0 -129 -26.5t-107.5 -75t-74 -112t-27.5 -136.5v-1096z M260 766v338q0 61 23.5 114.5t63.5 93.5t94.5 63.5t113.5 23.5t113.5 -22.5t96.5 -62.5t66.5 -95.5t24.5 -118.5v-334h-596zM303 0h41v639h426v-248q0 -92 34 -169t91 -133t135 -87t166 -31t166 31t135 87t91 133t34 169v39h-43v-39q0 -84 -33 -153.5t-86 -118.5t-121.5 -76 t-142.5 -27t-142.5 27t-122.5 76t-87 118.5t-33 153.5v289h-508v-680zM303 809h508v291q0 53 -19.5 100t-53 82t-81 55.5t-102.5 20.5t-101 -20.5t-80 -55.5t-52.5 -83t-18.5 -103v-287zM344 852v252q0 94 56.5 152.5t154.5 58.5q96 0 155.5 -56.5t59.5 -154.5v-252h-426z M489 891h244v213q0 41 -11 53t-54 12q-84 0 -131.5 -50t-47.5 -128v-100zM940 391q0 -57 20.5 -103t56.5 -78t82 -49.5t97 -17.5t97 17.5t81 49.5t55.5 78t20.5 103v39h-43v-39q0 -98 -56.5 -151.5t-154.5 -53.5t-154.5 53.5t-56.5 151.5v246h358v43h-403v-289zM940 807h403 v45h-358v248q0 98 56.5 153.5t154.5 55.5t154.5 -55.5t56.5 -153.5v-43h43v43q0 57 -20.5 104t-55.5 79t-81 49.5t-97 17.5t-97 -17.5t-82 -49.5t-56.5 -79t-20.5 -104v-293z" />
<glyph unicode="&#xc7;" horiz-adv-x="1097" d="M88 391v709q0 100 36 185t99.5 145.5t147.5 94.5t180 34q117 0 218 -52.5t198 -160.5q78 -86 115.5 -173.5t37.5 -185.5v-74h-276l-119 107v80q0 39 -12.5 51t-48.5 12q-86 0 -134.5 -46t-48.5 -130v-708q0 -35 12.5 -45.5t57.5 -10.5q80 0 127 45t47 123v76h289 l106 -119v-69q0 -84 -26.5 -157t-72.5 -129t-109.5 -96t-137.5 -57q20 -31 27.5 -55.5t7.5 -44.5q0 -47 -29 -86l-121 -164l-206 172l39 57q-45 29 -64.5 62t-19.5 72q0 12 1 24t3 23q-158 94 -241 223t-83 268zM125 391q0 -92 34 -169t91 -133t135 -87t166 -31t166 31 t135 87t91 133t34 169v39h-43v-39q0 -84 -33 -153.5t-86 -118.5t-121.5 -76t-142.5 -27t-142.5 27t-123 76t-87 118.5t-32.5 153.5v709q0 86 32.5 155.5t87 118.5t123 76t142.5 27t142.5 -27t121.5 -76t86 -118.5t33 -155.5v-43h43v43q0 92 -34 170t-91 133t-135 86t-166 31 t-166 -31t-135 -86t-91 -133t-34 -170v-709zM211 391q0 -74 28.5 -135t75.5 -105.5t108.5 -69t127.5 -24.5t127 24.5t108.5 69t76 105.5t28.5 135v39h-43v-39q0 -63 -22.5 -116.5t-61.5 -92.5t-94.5 -60.5t-118.5 -21.5q-66 0 -120 21.5t-93 60.5t-61.5 92.5t-22.5 116.5 v709q0 66 22.5 120t61.5 92t93 59.5t120 21.5q63 0 118.5 -21.5t94.5 -59.5t61.5 -92.5t22.5 -119.5v-43h43v43q0 76 -28.5 137t-76 105t-109 69t-126.5 25q-66 0 -127.5 -25t-108.5 -69t-75.5 -105t-28.5 -137v-709zM297 391q0 -57 20.5 -103t55.5 -78t81 -49.5t97 -17.5 t97 17.5t81 49.5t56.5 78t21.5 103v39h-43v-39q0 -98 -57.5 -151.5t-155.5 -53.5t-155.5 53.5t-57.5 151.5v709q0 98 57.5 153.5t155.5 55.5t155.5 -55.5t57.5 -153.5v-43h43v43q0 57 -21.5 104t-56.5 79t-81 49.5t-97 17.5t-97 -17.5t-81 -49.5t-55.5 -79t-20.5 -104v-709z M444 -147q0 -76 74 -103l21 35q-20 4 -37 20.5t-17 44.5q0 37 19.5 53.5t48.5 16.5t47 -18.5t18 -51.5q0 -20 -16 -47l-98 -131l37 -26l100 139q23 31 23 68q0 45 -31 78.5t-78 33.5q-45 0 -78 -31.5t-33 -80.5zM522 -150q0 -12 9.5 -20t21.5 -8q29 0 29 28q0 10 -8.5 18.5 t-20.5 8.5t-21.5 -8.5t-9.5 -18.5z" />
<glyph unicode="&#xc8;" horiz-adv-x="1112" d="M102 391v709q0 84 26 156.5t70 129t105.5 96.5t134.5 58l-139 393h287l108 -118l115 -324q66 -41 125 -97.5t103 -124t71 -140t27 -142.5v-74h-277l-117 107v80q0 39 -9 51t-54 12q-86 0 -133 -46t-47 -130v-98h254l106 -119v-276h-360v-215q0 -35 11 -45.5t56 -10.5 q82 0 129 45t47 123v76h287l107 -119v-69q0 -98 -36 -181.5t-97.5 -143.5t-145.5 -93t-178 -33q-188 0 -367 160q-102 90 -155.5 187t-53.5 216zM141 391q0 -92 33 -169t90.5 -133t135 -87t165.5 -31t166 31t135.5 87t90 133t32.5 169v39h-41v-39q0 -84 -32.5 -153.5 t-86 -118.5t-122 -76t-142.5 -27t-142.5 27t-121.5 76t-86 118.5t-33 153.5v709q0 86 33 155.5t86 118.5t122 76t142 27q74 0 142.5 -27t122 -76t86 -118.5t32.5 -155.5v-43h41v43q0 92 -32.5 170t-90 133t-135.5 86t-166 31t-165.5 -31t-135 -86t-90.5 -133t-33 -170v-709z M225 391q0 -74 29 -135t76 -105.5t108.5 -69t126.5 -24.5q66 0 127.5 24.5t108.5 69t75.5 105.5t28.5 135v39h-43v-39q0 -63 -21.5 -116.5t-61.5 -92.5t-94 -60.5t-120 -21.5t-119 21.5t-93 60.5t-61.5 92.5t-21.5 116.5v332h445v41h-445v336q0 66 21.5 120t61.5 92 t93.5 59.5t118.5 21.5q131 0 214 -81t83 -212v-43h43v43q0 76 -28.5 137t-75.5 105t-108.5 69t-127.5 25t-127 -25t-108 -69t-76 -105t-29 -137v-709zM311 391q0 -57 20.5 -103t56.5 -78t82 -49.5t95 -17.5t95.5 17.5t82 49.5t56 78t20.5 103v39h-41v-39q0 -98 -57 -151.5 t-156 -53.5q-98 0 -155.5 53.5t-57.5 151.5v246h363v43h-404v-289zM311 807h404v45h-363v248q0 98 57.5 153.5t155.5 55.5t155.5 -55.5t57.5 -153.5v-43h41v43q0 57 -20.5 104t-56 79t-82 49.5t-95.5 17.5t-95 -17.5t-82 -49.5t-56.5 -79t-20.5 -104v-293zM350 1894 l123 -333h39l-121 333h-41zM432 1894l121 -333h45l-123 333h-43zM518 1894l119 -333h41l-119 333h-41z" />
<glyph unicode="&#xc9;" horiz-adv-x="1112" d="M102 391v709q0 162 87 275.5t223 158.5l143 399h287l104 -118l-121 -334q63 -41 121 -97.5t98.5 -122t65.5 -136t25 -138.5v-74h-277l-117 107v80q0 39 -9 51t-54 12q-86 0 -133 -46t-47 -130v-98h254l106 -119v-276h-360v-215q0 -35 11 -45.5t56 -10.5q82 0 129 45 t47 123v76h287l107 -119v-69q0 -98 -36 -181.5t-97.5 -143.5t-145.5 -93t-178 -33q-188 0 -367 160q-102 90 -155.5 187t-53.5 216zM141 391q0 -92 33 -169t90.5 -133t135 -87t165.5 -31t166 31t135.5 87t90 133t32.5 169v39h-41v-39q0 -84 -32.5 -153.5t-86 -118.5 t-122 -76t-142.5 -27t-142.5 27t-121.5 76t-86 118.5t-33 153.5v709q0 86 33 155.5t86 118.5t122 76t142 27q74 0 142.5 -27t122 -76t86 -118.5t32.5 -155.5v-43h41v43q0 92 -32.5 170t-90 133t-135.5 86t-166 31t-165.5 -31t-135 -86t-90.5 -133t-33 -170v-709zM225 391 q0 -74 29 -135t76 -105.5t108.5 -69t126.5 -24.5q66 0 127.5 24.5t108.5 69t75.5 105.5t28.5 135v39h-43v-39q0 -63 -21.5 -116.5t-61.5 -92.5t-94 -60.5t-120 -21.5t-119 21.5t-93 60.5t-61.5 92.5t-21.5 116.5v332h445v41h-445v336q0 66 21.5 120t61.5 92t93.5 59.5 t118.5 21.5q131 0 214 -81t83 -212v-43h43v43q0 76 -28.5 137t-75.5 105t-108.5 69t-127.5 25t-127 -25t-108 -69t-76 -105t-29 -137v-709zM311 391q0 -57 20.5 -103t56.5 -78t82 -49.5t95 -17.5t95.5 17.5t82 49.5t56 78t20.5 103v39h-41v-39q0 -98 -57 -151.5t-156 -53.5 q-98 0 -155.5 53.5t-57.5 151.5v246h363v43h-404v-289zM311 807h404v45h-363v248q0 98 57.5 153.5t155.5 55.5t155.5 -55.5t57.5 -153.5v-43h41v43q0 57 -20.5 104t-56 79t-82 49.5t-95.5 17.5t-95 -17.5t-82 -49.5t-56.5 -79t-20.5 -104v-293zM461 1561h41l121 333h-41z M543 1561h43l121 333h-43zM629 1561h39l120 333h-40z" />
<glyph unicode="&#xca;" horiz-adv-x="1112" d="M102 391v709q0 131 59.5 232.5t160.5 160.5l-35 31l139 409h293l110 -118l134 -398h-54q109 -98 167.5 -204.5t58.5 -225.5v-74h-277l-117 107v80q0 39 -9 51t-54 12q-86 0 -133 -46t-47 -130v-98h254l106 -119v-276h-360v-215q0 -35 11 -45.5t56 -10.5q82 0 129 45 t47 123v76h287l107 -119v-69q0 -98 -36 -181.5t-97.5 -143.5t-145.5 -93t-178 -33q-188 0 -367 160q-102 90 -155.5 187t-53.5 216zM141 391q0 -92 33 -169t90.5 -133t135 -87t165.5 -31t166 31t135.5 87t90 133t32.5 169v39h-41v-39q0 -84 -32.5 -153.5t-86 -118.5 t-122 -76t-142.5 -27t-142.5 27t-121.5 76t-86 118.5t-33 153.5v709q0 86 33 155.5t86 118.5t122 76t142 27q74 0 142.5 -27t122 -76t86 -118.5t32.5 -155.5v-43h41v43q0 92 -32.5 170t-90 133t-135.5 86t-166 31t-165.5 -31t-135 -86t-90.5 -133t-33 -170v-709zM225 391 q0 -74 29 -135t76 -105.5t108.5 -69t126.5 -24.5q66 0 127.5 24.5t108.5 69t75.5 105.5t28.5 135v39h-43v-39q0 -63 -21.5 -116.5t-61.5 -92.5t-94 -60.5t-120 -21.5t-119 21.5t-93 60.5t-61.5 92.5t-21.5 116.5v332h445v41h-445v336q0 66 21.5 120t61.5 92t93.5 59.5 t118.5 21.5q131 0 214 -81t83 -212v-43h43v43q0 76 -28.5 137t-75.5 105t-108.5 69t-127.5 25t-127 -25t-108 -69t-76 -105t-29 -137v-709zM311 391q0 -57 20.5 -103t56.5 -78t82 -49.5t95 -17.5t95.5 17.5t82 49.5t56 78t20.5 103v39h-41v-39q0 -98 -57 -151.5t-156 -53.5 q-98 0 -155.5 53.5t-57.5 151.5v246h363v43h-404v-289zM311 807h404v45h-363v248q0 98 57.5 153.5t155.5 55.5t155.5 -55.5t57.5 -153.5v-43h41v43q0 57 -20.5 104t-56 79t-82 49.5t-95.5 17.5t-95 -17.5t-82 -49.5t-56.5 -79t-20.5 -104v-293zM338 1561h47l113 333h-45z M432 1561h49l90 266l88 -266h50l-115 333h-47zM530 1561h80l-39 122zM645 1894l113 -333h49l-113 333h-49z" />
<glyph unicode="&#xcb;" horiz-adv-x="1112" d="M102 391v709q0 139 65.5 243.5t174.5 159.5l-80 74q-27 23 -46 52.5t-19 70.5q0 63 39.5 107t105.5 44q41 0 70.5 -21.5t58.5 -49.5l82 -86q41 -41 41 -101q0 -20 -6 -34q61 -4 115.5 -21.5t107.5 -48.5l-2 6l-92 82q-31 25 -48.5 54.5t-17.5 74.5q0 59 41 102t103 43 q41 0 71.5 -21.5t57.5 -49.5l84 -86q18 -20 29.5 -46t11.5 -55q0 -59 -41 -99t-101 -40q-35 0 -63 16q63 -47 116.5 -103t92.5 -118.5t60.5 -129t21.5 -132.5v-74h-277l-117 107v80q0 39 -9 51t-54 12q-86 0 -133 -46t-47 -130v-98h254l106 -119v-276h-360v-215 q0 -35 11 -45.5t56 -10.5q82 0 129 45t47 123v76h287l107 -119v-69q0 -98 -36 -181.5t-97.5 -143.5t-145.5 -93t-178 -33q-188 0 -367 160q-102 90 -155.5 187t-53.5 216zM141 391q0 -92 33 -169t90.5 -133t135 -87t165.5 -31t166 31t135.5 87t90 133t32.5 169v39h-41v-39 q0 -84 -32.5 -153.5t-86 -118.5t-122 -76t-142.5 -27t-142.5 27t-121.5 76t-86 118.5t-33 153.5v709q0 86 33 155.5t86 118.5t122 76t142 27q74 0 142.5 -27t122 -76t86 -118.5t32.5 -155.5v-43h41v43q0 92 -32.5 170t-90 133t-135.5 86t-166 31t-165.5 -31t-135 -86 t-90.5 -133t-33 -170v-709zM225 391q0 -74 29 -135t76 -105.5t108.5 -69t126.5 -24.5q66 0 127.5 24.5t108.5 69t75.5 105.5t28.5 135v39h-43v-39q0 -63 -21.5 -116.5t-61.5 -92.5t-94 -60.5t-120 -21.5t-119 21.5t-93 60.5t-61.5 92.5t-21.5 116.5v332h445v41h-445v336 q0 66 21.5 120t61.5 92t93.5 59.5t118.5 21.5q131 0 214 -81t83 -212v-43h43v43q0 76 -28.5 137t-75.5 105t-108.5 69t-127.5 25t-127 -25t-108 -69t-76 -105t-29 -137v-709zM233 1706q0 -45 31 -76t78 -31q45 0 77 31t32 76t-32 77t-77 32q-47 0 -78 -32t-31 -77zM276 1706 q0 29 18.5 47.5t47.5 18.5q27 0 46.5 -18.5t19.5 -47.5q0 -27 -19.5 -45.5t-46.5 -18.5q-29 0 -47.5 18.5t-18.5 45.5zM311 391q0 -57 20.5 -103t56.5 -78t82 -49.5t95 -17.5t95.5 17.5t82 49.5t56 78t20.5 103v39h-41v-39q0 -98 -57 -151.5t-156 -53.5q-98 0 -155.5 53.5 t-57.5 151.5v246h363v43h-404v-289zM311 807h404v45h-363v248q0 98 57.5 153.5t155.5 55.5t155.5 -55.5t57.5 -153.5v-43h41v43q0 57 -20.5 104t-56 79t-82 49.5t-95.5 17.5t-95 -17.5t-82 -49.5t-56.5 -79t-20.5 -104v-293zM315 1706q0 -25 27 -25q25 0 25 25 q0 10 -7.5 19.5t-17.5 9.5q-12 0 -19.5 -9.5t-7.5 -19.5zM688 1706q0 -45 31 -76t76 -31t76.5 31t31.5 76t-31.5 77t-76.5 32t-76 -32t-31 -77zM731 1706q0 29 18.5 47.5t45.5 18.5q29 0 47 -18.5t18 -47.5q0 -27 -18.5 -45.5t-46.5 -18.5q-27 0 -45.5 18.5t-18.5 45.5z M770 1706q0 -10 7 -17.5t18 -7.5q27 0 26 25q0 10 -8 19.5t-18 9.5t-17.5 -9.5t-7.5 -19.5z" />
<glyph unicode="&#xcc;" horiz-adv-x="493" d="M-25 1933h287l109 -118l127 -351v-1607h-277l-119 106v1569h19zM29 1894l121 -333h38l-118 333h-41zM111 1894l120 -333h45l-122 333h-43zM141 0h43v1495h-43v-1495zM195 1894l120 -333h41l-120 333h-41zM225 0h45v1495h-45v-1495zM311 0h41v1495h-41v-1495z" />
<glyph unicode="&#xcd;" horiz-adv-x="493" d="M84 1524l147 409h287l105 -118l-142 -388l17 -14v-1556h-277l-119 106v1544zM137 1561h41l121 333h-43zM141 0h43v1495h-43v-1495zM217 1561h45l121 333h-43zM225 0h45v1495h-45v-1495zM303 1561h41l121 333h-41zM311 0h41v1495h-41v-1495z" />
<glyph unicode="&#xce;" horiz-adv-x="493" d="M-37 1524l137 409h295l109 -118l133 -398h-143l4 -4v-1556h-277l-119 106v1454h-20zM12 1561h47l113 333h-45zM109 1561h49l90 266l88 -266h49l-115 333h-47zM141 0h43v1495h-43v-1495zM207 1561h80l-39 122zM225 0h45v1495h-45v-1495zM311 0h41v1495h-41v-1495z M322 1894l110 -333h49l-112 333h-47z" />
<glyph unicode="&#xcf;" horiz-adv-x="493" d="M-125 1706q0 59 41 102t102 43q41 0 72 -21.5t57 -49.5l84 -86q18 -20 29.5 -46t11.5 -55q0 -33 -16 -61h133l109 -119v-1556h-277l-119 106v1493q-41 8 -69 39l-92 82q-29 25 -48.5 54.5t-17.5 74.5zM-88 1706q0 -45 30.5 -76t75.5 -31t77 31t32 76t-32 77t-77 32 t-75.5 -32t-30.5 -77zM-45 1706q0 29 18.5 47.5t44.5 18.5q29 0 47.5 -18.5t18.5 -47.5q0 -27 -18.5 -45.5t-47.5 -18.5q-27 0 -45 18.5t-18 45.5zM-8 1706q0 -25 26 -25q27 0 27 25q0 10 -8 19.5t-19 9.5q-10 0 -18 -9.5t-8 -19.5zM141 0h43v1495h-43v-1495zM225 0h45v1495 h-45v-1495zM311 0h41v1495h-41v-1495zM328 1706q0 59 41 102t104 43q41 0 70.5 -21.5t58.5 -49.5l82 -86q41 -41 41 -101q0 -59 -41 -99t-98 -40q-31 0 -56.5 12.5t-44.5 28.5l-92 82q-29 25 -48 54.5t-17 74.5zM365 1706q0 -45 30.5 -76t77.5 -31q45 0 77 31t32 76t-32 77 t-77 32q-47 0 -77.5 -32t-30.5 -77zM410 1706q0 29 17 47.5t46 18.5t47.5 -18.5t18.5 -47.5q0 -27 -18.5 -45.5t-47.5 -18.5t-46 18.5t-17 45.5zM449 1706q0 -25 24 -25q25 0 25 25q0 10 -7.5 19.5t-17.5 9.5t-17 -9.5t-7 -19.5z" />
<glyph unicode="&#xd0;" horiz-adv-x="1120" d="M39 600v289h72v643h467q100 0 200.5 -52.5t181 -135t131 -186t50.5 -208.5v-631q0 -100 -35 -185t-95.5 -146.5t-142.5 -96t-178 -34.5h-461l-118 106v578zM78 637h69v-637h431q88 0 164.5 33t133 90t88 137t31.5 172v631q0 92 -31.5 172t-88 137.5t-133 90t-164.5 32.5 h-431v-643h-69v-45h110v643h377q82 0 154 -29.5t124 -81t81.5 -120t29.5 -146.5v-653q0 -78 -29.5 -146.5t-81.5 -120t-124 -81t-154 -29.5h-377v637h-110v-43zM78 723h153v-637h347q70 0 131 26.5t106 71.5t71.5 106.5t26.5 129.5v653q0 68 -26.5 129.5t-71.5 106.5 t-106.5 71.5t-130.5 26.5h-347v-643h-153v-41zM276 127v596h429v41h-429v602h289q66 0 122 -22.5t96 -62.5t62.5 -96.5t22.5 -121.5v-631q0 -68 -22.5 -123t-62.5 -96t-96 -63.5t-122 -22.5h-289zM317 170h261q106 0 177.5 71.5t71.5 190.5v631q0 57 -19.5 105.5t-53 83 t-78.5 53t-98 18.5h-261v-516h388v45h-345v428h205q98 0 158.5 -53t60.5 -154v-653q0 -98 -60 -153.5t-159 -55.5h-205v426h345v43h-388v-510zM504 250h61q82 0 131 45t49 125v74h-241v-244zM504 889h241v184q0 63 -67 64h-174v-248z" />
<glyph unicode="&#xd1;" d="M96 -37v1137q0 92 30 169t83 136l-31 31v379q49 29 103.5 44t109.5 15q51 0 97.5 -14.5t87 -33t78.5 -32.5t75 -14q39 0 87 40t110 128l118 -113v-381q-31 -16 -62.5 -29.5t-66.5 -19.5q213 -195 213 -418v-1130h-276l-119 106v1137q0 39 -9 51t-52 12q-86 0 -134.5 -46 t-48.5 -130v-1130h-276zM133 0h41v1100q0 86 33 155.5t87 118.5t122.5 76t142.5 27q72 0 140.5 -27t121.5 -76t86 -118.5t33 -155.5v-1100h45v1100q0 92 -33.5 170t-91 133t-135.5 86t-166 31q-90 0 -167 -31t-135 -86t-91 -133t-33 -170v-1100zM215 1534q37 53 80 77.5 t92 24.5q41 0 81 -15t80 -32.5t83 -33t92 -15.5q51 0 96 12.5t80 32.5v49q-35 -23 -77 -37t-89 -14q-49 0 -92 15.5t-85 33t-83 32.5t-88 15q-51 0 -93 -24.5t-77 -65.5v-55zM215 1640q35 35 84 55.5t102 20.5q43 0 81 -14t76 -32.5t78 -33t83 -14.5q53 0 98 13.5t82 43.5 v60q-35 -35 -83 -56.5t-101 -21.5q-41 0 -79 15.5t-76 32.5t-79 32.5t-86 15.5q-106 0 -180 -59v-58zM215 1743q37 23 79 38t89 15q49 0 92 -15.5t84 -33.5t83 -33.5t89 -15.5q51 0 92 24.5t76 65.5v57q-70 -104 -170 -104q-43 0 -82 15.5t-80 32.5t-84 32.5t-92 15.5 q-98 0 -176 -45v-49zM217 0h45v1100q0 66 22.5 120t61.5 92t93.5 59.5t119.5 21.5q63 0 117.5 -21.5t94.5 -59.5t61.5 -92.5t21.5 -119.5v-1100h43v1100q0 76 -28.5 137t-76 105t-107.5 69t-126 25t-127 -25t-109.5 -69t-77 -105t-28.5 -137v-1100zM303 0h41v1100 q0 98 58.5 153.5t156.5 55.5t154.5 -55.5t56.5 -153.5v-1100h41v1100q0 57 -20.5 104t-55.5 79t-81 49.5t-95 17.5q-51 0 -97 -17.5t-82 -49.5t-56.5 -79t-20.5 -104v-1100z" />
<glyph unicode="&#xd2;" horiz-adv-x="1101" d="M88 391v709q0 84 24.5 155.5t69.5 129t106.5 97.5t133.5 58l-143 393h286l111 -118l110 -314q72 -37 133.5 -96t105.5 -130t69.5 -145.5t25.5 -142.5v-708q0 -98 -35.5 -181.5t-97 -143.5t-145.5 -93t-178 -33q-98 0 -189.5 45t-208.5 143q-78 68 -128 162t-50 213z M125 391q0 -92 34 -169t91 -133t135 -87t166 -31t166 31t135 87t91 133t34 169v709q0 92 -34 170t-91 133t-135 86t-166 31t-166 -31t-135 -86t-91 -133t-34 -170v-709zM166 391v709q0 86 32.5 155.5t87 118.5t123 76t142.5 27t142.5 -27t121.5 -76t86 -118.5t33 -155.5 v-709q0 -84 -33 -153.5t-86 -118.5t-121.5 -76t-142.5 -27t-142.5 27t-123 76t-87 118.5t-32.5 153.5zM211 391q0 -74 28.5 -135t75.5 -105.5t108.5 -69t127.5 -24.5t127 24.5t108.5 69t76 105.5t28.5 135v709q0 76 -28.5 137t-76 105t-109 69t-126.5 25q-66 0 -127.5 -25 t-108.5 -69t-75.5 -105t-28.5 -137v-709zM254 391v709q0 66 22.5 120t61.5 92t93 59.5t120 21.5q63 0 118.5 -21.5t94.5 -59.5t61.5 -92.5t22.5 -119.5v-709q0 -63 -22.5 -116.5t-61.5 -92.5t-94.5 -60.5t-118.5 -21.5q-66 0 -120 21.5t-93 60.5t-61.5 92.5t-22.5 116.5z M297 391q0 -57 20.5 -103t55.5 -78t81 -49.5t97 -17.5t97 17.5t81 49.5t56.5 78t21.5 103v709q0 57 -21.5 104t-56.5 79t-81 49.5t-97 17.5t-97 -17.5t-81 -49.5t-55.5 -79t-20.5 -104v-709zM332 1894l123 -333h39l-121 333h-41zM338 391v709q0 98 57.5 153.5t155.5 55.5 t155.5 -55.5t57.5 -153.5v-709q0 -98 -57.5 -151.5t-155.5 -53.5t-155.5 53.5t-57.5 151.5zM414 1894l121 -333h45l-123 333h-43zM481 279q0 -33 12.5 -44.5t57.5 -11.5q80 0 127 45t47 123v709q0 39 -9 51t-52 12q-86 0 -134.5 -46t-48.5 -130v-708zM498 1894l120 -333h41 l-118 333h-43z" />
<glyph unicode="&#xd3;" horiz-adv-x="1101" d="M88 391v709q0 160 84 273.5t217 158.5l146 401h286l105 -118l-117 -324q68 -41 125 -100.5t98 -127t64.5 -139t23.5 -137.5v-708q0 -98 -35.5 -181.5t-97 -143.5t-145.5 -93t-178 -33q-98 0 -189.5 45t-208.5 143q-78 68 -128 162t-50 213zM125 391q0 -92 34 -169 t91 -133t135 -87t166 -31t166 31t135 87t91 133t34 169v709q0 92 -34 170t-91 133t-135 86t-166 31t-166 -31t-135 -86t-91 -133t-34 -170v-709zM166 391v709q0 86 32.5 155.5t87 118.5t123 76t142.5 27t142.5 -27t121.5 -76t86 -118.5t33 -155.5v-709q0 -84 -33 -153.5 t-86 -118.5t-121.5 -76t-142.5 -27t-142.5 27t-123 76t-87 118.5t-32.5 153.5zM211 391q0 -74 28.5 -135t75.5 -105.5t108.5 -69t127.5 -24.5t127 24.5t108.5 69t76 105.5t28.5 135v709q0 76 -28.5 137t-76 105t-109 69t-126.5 25q-66 0 -127.5 -25t-108.5 -69t-75.5 -105 t-28.5 -137v-709zM254 391v709q0 66 22.5 120t61.5 92t93 59.5t120 21.5q63 0 118.5 -21.5t94.5 -59.5t61.5 -92.5t22.5 -119.5v-709q0 -63 -22.5 -116.5t-61.5 -92.5t-94.5 -60.5t-118.5 -21.5q-66 0 -120 21.5t-93 60.5t-61.5 92.5t-22.5 116.5zM297 391q0 -57 20.5 -103 t55.5 -78t81 -49.5t97 -17.5t97 17.5t81 49.5t56.5 78t21.5 103v709q0 57 -21.5 104t-56.5 79t-81 49.5t-97 17.5t-97 -17.5t-81 -49.5t-55.5 -79t-20.5 -104v-709zM338 391v709q0 98 57.5 153.5t155.5 55.5t155.5 -55.5t57.5 -153.5v-709q0 -98 -57.5 -151.5t-155.5 -53.5 t-155.5 53.5t-57.5 151.5zM440 1561h41l121 333h-41zM481 279q0 -33 12.5 -44.5t57.5 -11.5q80 0 127 45t47 123v709q0 39 -9 51t-52 12q-86 0 -134.5 -46t-48.5 -130v-708zM520 1561h45l121 333h-43zM608 1561h39l121 333h-41z" />
<glyph unicode="&#xd4;" horiz-adv-x="1101" d="M88 391v709q0 131 57.5 231.5t155.5 159.5l-35 33l140 409h292l111 -118l131 -398h-35q104 -96 159.5 -208.5t55.5 -221.5v-708q0 -98 -35.5 -181.5t-97 -143.5t-145.5 -93t-178 -33q-98 0 -189.5 45t-208.5 143q-78 68 -128 162t-50 213zM125 391q0 -92 34 -169t91 -133 t135 -87t166 -31t166 31t135 87t91 133t34 169v709q0 92 -34 170t-91 133t-135 86t-166 31t-166 -31t-135 -86t-91 -133t-34 -170v-709zM166 391v709q0 86 32.5 155.5t87 118.5t123 76t142.5 27t142.5 -27t121.5 -76t86 -118.5t33 -155.5v-709q0 -84 -33 -153.5t-86 -118.5 t-121.5 -76t-142.5 -27t-142.5 27t-123 76t-87 118.5t-32.5 153.5zM211 391q0 -74 28.5 -135t75.5 -105.5t108.5 -69t127.5 -24.5t127 24.5t108.5 69t76 105.5t28.5 135v709q0 76 -28.5 137t-76 105t-109 69t-126.5 25q-66 0 -127.5 -25t-108.5 -69t-75.5 -105t-28.5 -137 v-709zM254 391v709q0 66 22.5 120t61.5 92t93 59.5t120 21.5q63 0 118.5 -21.5t94.5 -59.5t61.5 -92.5t22.5 -119.5v-709q0 -63 -22.5 -116.5t-61.5 -92.5t-94.5 -60.5t-118.5 -21.5q-66 0 -120 21.5t-93 60.5t-61.5 92.5t-22.5 116.5zM297 391q0 -57 20.5 -103t55.5 -78 t81 -49.5t97 -17.5t97 17.5t81 49.5t56.5 78t21.5 103v709q0 57 -21.5 104t-56.5 79t-81 49.5t-97 17.5t-97 -17.5t-81 -49.5t-55.5 -79t-20.5 -104v-709zM317 1561h48l110 333h-43zM338 391v709q0 98 57.5 153.5t155.5 55.5t155.5 -55.5t57.5 -153.5v-709 q0 -98 -57.5 -151.5t-155.5 -53.5t-155.5 53.5t-57.5 151.5zM412 1561h49l90 266l88 -266h49l-115 333h-47zM481 279q0 -33 12.5 -44.5t57.5 -11.5q80 0 127 45t47 123v709q0 39 -9 51t-52 12q-86 0 -134.5 -46t-48.5 -130v-708zM510 1561h80l-39 122zM625 1894l112 -333h49 l-112 333h-49z" />
<glyph unicode="&#xd5;" horiz-adv-x="1101" d="M88 391v709q0 92 29.5 169t83.5 136l-31 31v379q49 29 103.5 44t111.5 15q51 0 96 -14.5t87 -33t79 -32.5t74 -14q39 0 87 40t112 128l116 -113v-381q-53 -29 -118 -49q109 -111 155.5 -215.5t46.5 -202.5v-708q0 -98 -35.5 -181.5t-97 -143.5t-145.5 -93t-178 -33 q-98 0 -189.5 45t-208.5 143q-78 68 -128 162t-50 213zM125 391q0 -92 34 -169t91 -133t135 -87t166 -31t166 31t135 87t91 133t34 169v709q0 92 -34 170t-91 133t-135 86t-166 31t-166 -31t-135 -86t-91 -133t-34 -170v-709zM166 391v709q0 86 32.5 155.5t87 118.5t123 76 t142.5 27t142.5 -27t121.5 -76t86 -118.5t33 -155.5v-709q0 -84 -33 -153.5t-86 -118.5t-121.5 -76t-142.5 -27t-142.5 27t-123 76t-87 118.5t-32.5 153.5zM209 1534q35 53 78 77.5t92 24.5q41 0 81 -15t81 -32.5t84 -33t92 -15.5q51 0 95 12.5t81 32.5v49q-37 -23 -79 -37 t-89 -14q-49 0 -92 15.5t-85 33t-83 32.5t-88 15q-51 0 -92 -24.5t-76 -65.5v-55zM209 1640q35 35 83 55.5t101 20.5q43 0 81 -14t77 -32.5t78 -33t84 -14.5q53 0 97 13.5t83 43.5v60q-35 -35 -84 -56.5t-102 -21.5q-41 0 -79 15.5t-76 32.5t-79 32.5t-86 15.5 q-106 0 -178 -59v-58zM209 1743q35 23 77 38t89 15q49 0 92 -15.5t84 -33.5t83 -33.5t89 -15.5q51 0 93 24.5t77 65.5v57q-72 -104 -172 -104q-43 0 -82 15.5t-79 32.5t-83 32.5t-92 15.5q-102 0 -176 -45v-49zM211 391q0 -74 28.5 -135t75.5 -105.5t108.5 -69t127.5 -24.5 t127 24.5t108.5 69t76 105.5t28.5 135v709q0 76 -28.5 137t-76 105t-109 69t-126.5 25q-66 0 -127.5 -25t-108.5 -69t-75.5 -105t-28.5 -137v-709zM254 391v709q0 66 22.5 120t61.5 92t93 59.5t120 21.5q63 0 118.5 -21.5t94.5 -59.5t61.5 -92.5t22.5 -119.5v-709 q0 -63 -22.5 -116.5t-61.5 -92.5t-94.5 -60.5t-118.5 -21.5q-66 0 -120 21.5t-93 60.5t-61.5 92.5t-22.5 116.5zM297 391q0 -57 20.5 -103t55.5 -78t81 -49.5t97 -17.5t97 17.5t81 49.5t56.5 78t21.5 103v709q0 57 -21.5 104t-56.5 79t-81 49.5t-97 17.5t-97 -17.5 t-81 -49.5t-55.5 -79t-20.5 -104v-709zM338 391v709q0 98 57.5 153.5t155.5 55.5t155.5 -55.5t57.5 -153.5v-709q0 -98 -57.5 -151.5t-155.5 -53.5t-155.5 53.5t-57.5 151.5zM481 279q0 -33 12.5 -44.5t57.5 -11.5q80 0 127 45t47 123v709q0 39 -9 51t-52 12 q-86 0 -134.5 -46t-48.5 -130v-708z" />
<glyph unicode="&#xd6;" horiz-adv-x="1101" d="M88 391v709q0 139 65.5 242.5t170.5 160.5l-80 74q-29 23 -47.5 52.5t-18.5 70.5q0 61 39 106t105 45q41 0 71.5 -21.5t59.5 -49.5l82 -86q41 -41 40 -101q0 -20 -6 -34q109 -6 203 -50l-74 68q-29 25 -48 54.5t-19 74.5q0 59 42 102t103 43q41 0 72 -21.5t57 -49.5 l82 -86q43 -43 43 -101q0 -59 -42 -99t-99 -40q-20 0 -31 2q61 -45 109.5 -102.5t82 -118.5t52 -126t18.5 -122v-708q0 -98 -35.5 -181.5t-97 -143.5t-145.5 -93t-178 -33q-98 0 -189.5 45t-208.5 143q-78 68 -128 162t-50 213zM125 391q0 -92 34 -169t91 -133t135 -87 t166 -31t166 31t135 87t91 133t34 169v709q0 92 -34 170t-91 133t-135 86t-166 31t-166 -31t-135 -86t-91 -133t-34 -170v-709zM166 391v709q0 86 32.5 155.5t87 118.5t123 76t142.5 27t142.5 -27t121.5 -76t86 -118.5t33 -155.5v-709q0 -84 -33 -153.5t-86 -118.5 t-121.5 -76t-142.5 -27t-142.5 27t-123 76t-87 118.5t-32.5 153.5zM211 391q0 -74 28.5 -135t75.5 -105.5t108.5 -69t127.5 -24.5t127 24.5t108.5 69t76 105.5t28.5 135v709q0 76 -28.5 137t-76 105t-109 69t-126.5 25q-66 0 -127.5 -25t-108.5 -69t-75.5 -105t-28.5 -137 v-709zM215 1706q0 -45 30.5 -76t76.5 -31q47 0 78.5 31t31.5 76t-31.5 77t-78.5 32q-45 0 -76 -32t-31 -77zM254 391v709q0 66 22.5 120t61.5 92t93 59.5t120 21.5q63 0 118.5 -21.5t94.5 -59.5t61.5 -92.5t22.5 -119.5v-709q0 -63 -22.5 -116.5t-61.5 -92.5t-94.5 -60.5 t-118.5 -21.5q-66 0 -120 21.5t-93 60.5t-61.5 92.5t-22.5 116.5zM258 1706q0 29 18.5 47.5t45.5 18.5q29 0 47 -18.5t18 -47.5q0 -27 -18.5 -45.5t-46.5 -18.5q-27 0 -45.5 18.5t-18.5 45.5zM297 391q0 -57 20.5 -103t55.5 -78t81 -49.5t97 -17.5t97 17.5t81 49.5t56.5 78 t21.5 103v709q0 57 -21.5 104t-56.5 79t-81 49.5t-97 17.5t-97 -17.5t-81 -49.5t-55.5 -79t-20.5 -104v-709zM297 1706q0 -25 25 -25q27 0 26 25q0 10 -7 19.5t-19 9.5q-10 0 -17.5 -9.5t-7.5 -19.5zM338 391v709q0 98 57.5 153.5t155.5 55.5t155.5 -55.5t57.5 -153.5v-709 q0 -98 -57.5 -151.5t-155.5 -53.5t-155.5 53.5t-57.5 151.5zM481 279q0 -33 12.5 -44.5t57.5 -11.5q80 0 127 45t47 123v709q0 39 -9 51t-52 12q-86 0 -134.5 -46t-48.5 -130v-708zM670 1706q0 -45 30.5 -76t75.5 -31t77 31t32 76t-32 77t-77 32t-75.5 -32t-30.5 -77z M713 1706q0 29 18.5 47.5t44.5 18.5q29 0 47.5 -18.5t18.5 -47.5q0 -27 -18.5 -45.5t-47.5 -18.5q-27 0 -45 18.5t-18 45.5zM752 1706q0 -10 7 -17.5t17 -7.5q27 0 27 25q0 10 -8.5 19.5t-18.5 9.5t-17 -9.5t-7 -19.5z" />
<glyph unicode="&#xd7;" horiz-adv-x="964" d="M55 985l205 203l215 -217l223 225l310 -315l-222 -219l220 -226l-197 -196l-225 217l-211 -209l-316 307l217 215zM109 985l217 -215l-215 -215l32 -31l244 244l-248 248zM166 1044l278 -276l-274 -272l31 -31l274 276l281 -284l30 32l-280 281l282 283l-28 30l-285 -284 l-276 276zM229 1104l246 -246l254 254l-31 31l-223 -223l-215 217zM231 434l29 -28l215 215l221 -224l29 31l-250 250zM565 768l250 -250l33 31l-221 221l223 223l-31 31z" />
<glyph unicode="&#xd8;" horiz-adv-x="1130" d="M102 391v709q0 100 36 185t99.5 145.5t147.5 94.5t180 34q84 0 152 -21l37 84h278l107 -119l-90 -252q39 -53 62.5 -119.5t23.5 -144.5v-708q0 -98 -36 -181.5t-97.5 -143.5t-145.5 -93t-178 -33q-29 0 -56.5 4t-56.5 8q-6 -18 -14 -39.5t-12 -33.5h-275l-121 106l70 209 q-53 61 -82 139t-29 170zM141 391q0 -92 31 -168t86 -131l-61 -182h41l67 203q-66 66 -94.5 133t-28.5 145v709q0 86 33 155.5t86 118.5t122 76t142 27q47 0 94.5 -11.5t96.5 -38.5l53 156h-31l-41 -94q-80 31 -172 31q-88 0 -165.5 -31t-135 -86t-90.5 -133t-33 -170v-709z M225 391q0 -86 35 -151.5t92 -110.5l-76 -219h46l67 194q41 -23 85 -35t91 -12q66 0 127.5 24.5t108.5 69t75.5 105.5t28.5 135v709q0 72 -26.5 131t-69.5 104l86 248h-43l-76 -221q-92 74 -211 74q-66 0 -127 -25t-108 -69t-76 -105t-29 -137v-709zM270 391v709 q0 66 21.5 120t61.5 92t93.5 59.5t118.5 21.5q119 0 199 -68l-397 -1157q-96 80 -97 223zM311 391q0 -35 9.5 -65.5t31.5 -77.5l363 1057q-76 45 -150 45q-49 0 -95 -17.5t-82 -49.5t-56.5 -79t-20.5 -104v-709zM352 360v740q0 98 57.5 153.5t155.5 55.5q29 0 53.5 -5.5 t47.5 -15.5zM365 -90h38l29 80q33 -8 65.5 -13.5t67.5 -5.5q88 0 166 31t135.5 87t90 133t32.5 169v709q0 78 -24.5 143.5t-65.5 118.5l80 221h-43l-80 -231q41 -59 66.5 -113.5t25.5 -138.5v-709q0 -84 -32.5 -153.5t-86 -118.5t-122 -76t-142.5 -27q-35 0 -70.5 6.5 t-84.5 22.5zM401 143l394 1151q68 -80 67 -194v-709q0 -63 -21.5 -116.5t-61.5 -92.5t-94 -60.5t-120 -21.5q-94 0 -164 43zM453 166q23 -10 53 -16.5t59 -6.5q49 0 95.5 17.5t82 49.5t56 78t20.5 103v709q0 31 -5 56.5t-9 47.5zM498 901l80 240q-80 -41 -80 -154v-86z M500 190l278 818v-617q0 -98 -57 -151.5t-156 -53.5h-33.5t-31.5 4z" />
<glyph unicode="&#xd9;" d="M96 391v1141h287l106 -119v-1134q0 -39 11.5 -47.5t58.5 -8.5q80 0 127 45t47 123v1026h-182l-117 107l-147 409h286l109 -118l102 -283h238l106 -119v-1134q0 -98 -35.5 -181.5t-98 -143.5t-145.5 -93t-177 -33q-190 0 -367 158q-104 90 -156.5 188t-52.5 217zM133 391 q0 -92 33 -169t91 -133t135 -87t167 -31q88 0 166 31t135.5 87t91 133t33.5 169v1104h-45v-1104q0 -84 -33 -153.5t-86 -118.5t-121.5 -76t-140.5 -27q-74 0 -142.5 27t-122.5 76t-87 118.5t-33 153.5v1104h-41v-1104zM217 391q0 -74 28.5 -135t77 -105.5t110 -69 t126.5 -24.5q66 0 126 24.5t107.5 69t76 105.5t28.5 135v1104h-43v-1104q0 -63 -21.5 -116.5t-61.5 -92.5t-94 -60.5t-118 -21.5q-66 0 -120 21.5t-93 60.5t-61.5 92.5t-22.5 116.5v1104h-45v-1104zM303 391q0 -57 20.5 -103t56.5 -78t82 -49.5t97 -17.5q49 0 95 17.5 t81 49.5t55.5 78t20.5 103v1104h-41v-1104q0 -98 -56.5 -151.5t-154.5 -53.5t-156.5 53.5t-58.5 151.5v1104h-41v-1104zM340 1894l121 -333h39l-119 333h-41zM422 1894l121 -333h43l-121 333h-43zM506 1894l121 -333h41l-121 333h-41z" />
<glyph unicode="&#xda;" d="M96 391v1141h287l106 -119v-1134q0 -39 11.5 -47.5t58.5 -8.5q80 0 127 45t47 123v1026h-217l-113 123l140 393h286l105 -118l-105 -283h193l106 -119v-1134q0 -98 -35.5 -181.5t-98 -143.5t-145.5 -93t-177 -33q-190 0 -367 158q-104 90 -156.5 188t-52.5 217zM133 391 q0 -92 33 -169t91 -133t135 -87t167 -31q88 0 166 31t135.5 87t91 133t33.5 169v1104h-45v-1104q0 -84 -33 -153.5t-86 -118.5t-121.5 -76t-140.5 -27q-74 0 -142.5 27t-122.5 76t-87 118.5t-33 153.5v1104h-41v-1104zM217 391q0 -74 28.5 -135t77 -105.5t110 -69 t126.5 -24.5q66 0 126 24.5t107.5 69t76 105.5t28.5 135v1104h-43v-1104q0 -63 -21.5 -116.5t-61.5 -92.5t-94 -60.5t-118 -21.5q-66 0 -120 21.5t-93 60.5t-61.5 92.5t-22.5 116.5v1104h-45v-1104zM303 391q0 -57 20.5 -103t56.5 -78t82 -49.5t97 -17.5q49 0 95 17.5 t81 49.5t55.5 78t20.5 103v1104h-41v-1104q0 -98 -56.5 -151.5t-154.5 -53.5t-156.5 53.5t-58.5 151.5v1104h-41v-1104zM449 1561h40l119 333h-41zM528 1561h45l121 333h-43zM614 1561h39l123 333h-41z" />
<glyph unicode="&#xdb;" d="M96 391v1141h180l136 401h295l108 -118l94 -283h113l106 -119v-1134q0 -98 -35.5 -181.5t-98 -143.5t-145.5 -93t-177 -33q-190 0 -367 158q-104 90 -156.5 188t-52.5 217zM133 391q0 -92 33 -169t91 -133t135 -87t167 -31q88 0 166 31t135.5 87t91 133t33.5 169v1104 h-45v-1104q0 -84 -33 -153.5t-86 -118.5t-121.5 -76t-140.5 -27q-74 0 -142.5 27t-122.5 76t-87 118.5t-33 153.5v1104h-41v-1104zM217 391q0 -74 28.5 -135t77 -105.5t110 -69t126.5 -24.5q66 0 126 24.5t107.5 69t76 105.5t28.5 135v1104h-43v-1104q0 -63 -21.5 -116.5 t-61.5 -92.5t-94 -60.5t-118 -21.5q-66 0 -120 21.5t-93 60.5t-61.5 92.5t-22.5 116.5v1104h-45v-1104zM303 391q0 -57 20.5 -103t56.5 -78t82 -49.5t97 -17.5q49 0 95 17.5t81 49.5t55.5 78t20.5 103v1104h-41v-1104q0 -98 -56.5 -151.5t-154.5 -53.5t-156.5 53.5 t-58.5 151.5v1104h-41v-1104zM324 1561h47l112 333h-45zM420 1561h49l90 266l88 -266h49l-114 333h-47zM485 1417l4 -4v-1134q0 -39 11.5 -47.5t58.5 -8.5q80 0 127 45t47 123v1026h-248zM518 1561h80l-39 122zM631 1894l112 -333h50l-113 333h-49z" />
<glyph unicode="&#xdc;" d="M96 391v1141h203l-47 45q-29 25 -47.5 55.5t-18.5 73.5q0 59 41 102t103 43q41 0 71.5 -21.5t57.5 -49.5l84 -86q18 -20 29.5 -46t11.5 -55q0 -57 -39 -96t-92 -43l36 -41v-1134q0 -39 11.5 -47.5t58.5 -8.5q80 0 127 45t47 123v1141h21l-49 45q-27 23 -46.5 52.5 t-19.5 70.5q0 63 40 107t105 44q41 0 71 -21.5t58 -49.5l82 -86q41 -41 41 -101q0 -31 -14 -63l106 -117v-1134q0 -98 -35.5 -181.5t-98 -143.5t-145.5 -93t-177 -33q-190 0 -367 158q-104 90 -156.5 188t-52.5 217zM133 391q0 -92 33 -169t91 -133t135 -87t167 -31 q88 0 166 31t135.5 87t91 133t33.5 169v1104h-45v-1104q0 -84 -33 -153.5t-86 -118.5t-121.5 -76t-140.5 -27q-74 0 -142.5 27t-122.5 76t-87 118.5t-33 153.5v1104h-41v-1104zM217 391q0 -74 28.5 -135t77 -105.5t110 -69t126.5 -24.5q66 0 126 24.5t107.5 69t76 105.5 t28.5 135v1104h-43v-1104q0 -63 -21.5 -116.5t-61.5 -92.5t-94 -60.5t-118 -21.5q-66 0 -120 21.5t-93 60.5t-61.5 92.5t-22.5 116.5v1104h-45v-1104zM223 1706q0 -45 31 -76t76 -31t76.5 31t31.5 76t-31.5 77t-76.5 32t-76 -32t-31 -77zM266 1706q0 29 18.5 47.5t45.5 18.5 t46 -18.5t19 -47.5q0 -27 -19.5 -45.5t-45.5 -18.5q-27 0 -45.5 18.5t-18.5 45.5zM303 391q0 -57 20.5 -103t56.5 -78t82 -49.5t97 -17.5q49 0 95 17.5t81 49.5t55.5 78t20.5 103v1104h-41v-1104q0 -98 -56.5 -151.5t-154.5 -53.5t-156.5 53.5t-58.5 151.5v1104h-41v-1104z M303 1706q0 -25 27 -25t26 25q0 10 -8 19.5t-18 9.5t-18.5 -9.5t-8.5 -19.5zM676 1706q0 -45 30.5 -76t77.5 -31q45 0 77 31t32 76t-32 77t-77 32q-47 0 -77.5 -32t-30.5 -77zM719 1706q0 29 18.5 47.5t46.5 18.5q29 0 47.5 -18.5t18.5 -47.5q0 -27 -18.5 -45.5t-47.5 -18.5 t-47 18.5t-18 45.5zM760 1706q0 -25 24 -25q25 0 25 25q0 10 -7 19.5t-18 9.5q-10 0 -17 -9.5t-7 -19.5z" />
<glyph unicode="&#xdd;" horiz-adv-x="1095" d="M84 1006v526h287l106 -119v-510q0 -41 12.5 -54t53.5 -13q92 0 135 48t43 122v411h-217l-117 119l143 397h287l105 -118l-103 -283h191l108 -119v-520q0 -76 -23.5 -143.5t-65.5 -123t-99.5 -96.5t-122.5 -63v-610h-277l-118 106v555q-23 12 -48.5 32.5t-70.5 59.5 q-104 92 -156.5 187.5t-52.5 208.5zM121 1006q0 -74 23.5 -139.5t67.5 -119t104.5 -91.5t134.5 -56v-600h41v631q-70 10 -129.5 45t-103.5 87t-69.5 116.5t-25.5 136.5v479h-43v-489zM207 1006q0 -61 26.5 -120t71.5 -106t104.5 -75.5t125.5 -30.5v-674h40v674 q66 4 122.5 33.5t98.5 76.5t66.5 106.5t24.5 125.5v479h-43v-479q0 -59 -21.5 -114.5t-59.5 -96.5t-90 -65.5t-116 -24.5q-63 0 -118.5 24.5t-97.5 65.5t-66.5 96t-24.5 115v479h-43v-489zM291 1016q0 -53 19.5 -101.5t53 -83t78.5 -55t99 -20.5q55 0 103 20.5t84 55 t55.5 83t19.5 101.5v479h-43v-489q0 -92 -53.5 -149.5t-163.5 -57.5q-98 0 -153.5 59.5t-55.5 157.5v479h-43v-479zM436 1561h41l121 333h-41zM518 1561h45l119 333h-43zM604 1561h39l121 333h-41zM618 0h44v604q66 18 123 55t99 89.5t65.5 118t23.5 139.5v489h-43v-496 q0 -66 -24.5 -126t-67.5 -109t-99.5 -82t-120.5 -45v-637z" />
<glyph unicode="&#xde;" horiz-adv-x="1071" d="M102 -37v1569h287l109 -119v-190h63q111 0 210 -60.5t216 -187.5q59 -66 97 -149t38 -179t-36.5 -179t-98 -145.5t-142.5 -98.5t-171 -36h-176v-331h-277zM141 0h43v1495h-43v-1495zM225 0h43v420h293q68 0 128.5 25.5t105.5 70.5t71.5 107.5t26.5 136.5t-26.5 136 t-71.5 107.5t-105.5 70t-128.5 24.5h-293v397h-43v-1495zM268 461v596h293q63 0 116.5 -23.5t92.5 -63.5t60.5 -94.5t21.5 -115.5t-21.5 -116.5t-60.5 -95.5t-92 -63.5t-117 -23.5h-293zM311 0h41v334h209q84 0 160 32.5t133 91t91 135.5t34 167q0 88 -34 166t-91 135 t-133 90t-160 33h-209v311h-41v-352h250q74 0 141.5 -31t119.5 -83t83 -121.5t31 -147.5t-31 -147.5t-83 -122t-119.5 -83t-141.5 -30.5h-250v-377zM313 500h248q113 0 180.5 69.5t67.5 190.5t-67.5 190.5t-180.5 69.5h-248v-520zM352 547v426h209q98 0 150.5 -57.5 t52.5 -155.5t-52.5 -155.5t-150.5 -57.5h-209zM498 586h63q80 0 123 47t43 127q0 39 -11 54t-42 15h-176v-243z" />
<glyph unicode="&#xdf;" horiz-adv-x="2226" d="M82 0zM82 434h291l106 -117q0 -63 15.5 -80.5t62.5 -17.5q84 0 138.5 55.5t54.5 135.5q0 29 -4.5 51t-10.5 43q-55 23 -115.5 32.5t-123.5 32.5q-61 25 -109.5 62t-101.5 78q-43 35 -78 71.5t-59.5 81.5t-38 102.5t-13.5 131.5q0 102 36 187t98.5 146.5t148.5 95.5 t184 34q104 0 199.5 -49.5t187.5 -155.5q86 -98 130 -196.5t44 -211.5h-278l-119 107q0 53 -9 81.5t-42 28.5q-96 0 -146.5 -48t-50.5 -132v-25.5t4 -21.5q35 -10 61.5 -16.5t49.5 -12.5q63 -16 111.5 -34.5t91.5 -44t84 -60.5t88 -82q78 -78 123 -172t45 -215 q0 -96 -36 -181t-98.5 -149.5t-148.5 -102.5t-184 -38q-92 0 -179.5 39t-179.5 123q-111 98 -168 205.5t-61 238.5zM121 397q4 -92 40 -169.5t95 -135t137 -89.5t164 -32q92 0 171 35t137.5 95.5t92 139.5t33.5 169q0 127 -41 213t-129 151q-39 31 -81 48.5t-84 29.5 t-85 21.5t-84 23.5q-80 25 -115.5 72t-35.5 127q0 98 58.5 154.5t168.5 56.5q94 0 147.5 -58.5t53.5 -156.5h45q-6 113 -70.5 188.5t-175.5 75.5q-63 0 -112.5 -21.5t-84 -56.5t-53 -83t-18.5 -99q0 -176 176 -238q41 -14 83 -22.5t82 -19.5t80 -27.5t79 -47.5 q78 -59 116.5 -140t38.5 -191q0 -80 -29.5 -153t-82 -127t-125 -86t-156.5 -32q-78 0 -149.5 30t-125 82t-86 121.5t-32.5 151.5h-43zM133 1096q0 -80 17.5 -141.5t51.5 -106.5t82 -78t109 -57q29 -12 67 -19.5t80 -16.5t83 -22.5t73 -36.5q51 -37 70.5 -86t19.5 -122 q0 -49 -17 -90t-48 -72t-73 -48.5t-91 -17.5q-104 0 -162.5 58.5t-58.5 156.5h-45q0 -53 23.5 -101t61.5 -83t85 -55.5t96 -20.5q61 0 111.5 21.5t86.5 58.5t55 87t19 106q0 82 -24.5 140t-79.5 99q-35 27 -74 40t-80 21.5t-80.5 15.5t-78.5 22q-111 43 -174.5 126.5 t-63.5 221.5q0 82 29.5 152.5t82 121.5t123 80t154.5 29q78 0 146.5 -31t119 -84t79 -123t28.5 -149h45q0 92 -34 170.5t-90 136t-132 89.5t-162 32q-90 0 -169 -31t-137 -87t-91 -134t-33 -172zM207 397q2 -72 31.5 -134t78 -109.5t110.5 -75t130 -27.5q74 0 138.5 29 t113.5 78t77.5 114.5t28.5 137.5q0 102 -35.5 177t-107.5 128q-37 27 -76 42t-80 26.5t-81.5 19.5t-83.5 24q-92 33 -144.5 98.5t-52.5 170.5q0 68 22.5 122t63.5 93t97.5 60.5t123.5 21.5q61 0 114.5 -22.5t93.5 -63.5t62.5 -96.5t22.5 -118.5h43q-2 70 -28.5 133 t-71.5 111t-104.5 77t-129.5 29q-76 0 -140.5 -25.5t-111.5 -72t-73.5 -110t-26.5 -138.5q0 -119 60.5 -195t158.5 -115q41 -16 82 -24t82 -17.5t79 -23.5t72 -41q123 -96 123 -270q0 -63 -24.5 -121t-67.5 -101t-99 -68.5t-120 -25.5q-66 0 -121 23.5t-97 64.5t-65.5 96.5 t-23.5 118.5h-43zM1196 434h291l106 -117q0 -63 15.5 -80.5t62.5 -17.5q84 0 138.5 55.5t54.5 135.5q0 29 -4.5 51t-10.5 43q-55 23 -115.5 32.5t-123.5 32.5q-61 25 -109.5 62t-101.5 78q-43 35 -78 71.5t-59.5 81.5t-38 102.5t-13.5 131.5q0 102 36 187t98.5 146.5 t148.5 95.5t184 34q104 0 199.5 -49.5t187.5 -155.5q86 -98 130 -196.5t44 -211.5h-278l-119 107q0 53 -9 81.5t-42 28.5q-96 0 -146.5 -48t-50.5 -132v-25.5t4 -21.5q35 -10 61.5 -16.5t49.5 -12.5q63 -16 111.5 -34.5t91.5 -44t84 -60.5t88 -82q78 -78 123 -172t45 -215 q0 -96 -36 -181t-98.5 -149.5t-148.5 -102.5t-184 -38q-92 0 -179.5 39t-179.5 123q-111 98 -168 205.5t-61 238.5zM1235 397q4 -92 40 -169.5t95 -135t137 -89.5t164 -32q92 0 171 35t137.5 95.5t92 139.5t33.5 169q0 127 -41 213t-129 151q-39 31 -81 48.5t-84 29.5 t-85 21.5t-84 23.5q-80 25 -115.5 72t-35.5 127q0 98 58.5 154.5t168.5 56.5q94 0 147.5 -58.5t53.5 -156.5h45q-6 113 -70.5 188.5t-175.5 75.5q-63 0 -112.5 -21.5t-84 -56.5t-53 -83t-18.5 -99q0 -176 176 -238q41 -14 83 -22.5t82 -19.5t80 -27.5t79 -47.5 q78 -59 116.5 -140t38.5 -191q0 -80 -29.5 -153t-82 -127t-125 -86t-156.5 -32q-78 0 -149.5 30t-125 82t-86 121.5t-32.5 151.5h-43zM1247 1096q0 -80 17.5 -141.5t51.5 -106.5t82 -78t109 -57q29 -12 67 -19.5t80 -16.5t83 -22.5t73 -36.5q51 -37 70.5 -86t19.5 -122 q0 -49 -17 -90t-48 -72t-73 -48.5t-91 -17.5q-104 0 -162.5 58.5t-58.5 156.5h-45q0 -53 23.5 -101t61.5 -83t85 -55.5t96 -20.5q61 0 111.5 21.5t86.5 58.5t55 87t19 106q0 82 -24.5 140t-79.5 99q-35 27 -74 40t-80 21.5t-80.5 15.5t-78.5 22q-111 43 -174.5 126.5 t-63.5 221.5q0 82 29.5 152.5t82 121.5t123 80t154.5 29q78 0 146.5 -31t119 -84t79 -123t28.5 -149h45q0 92 -34 170.5t-90 136t-132 89.5t-162 32q-90 0 -169 -31t-137 -87t-91 -134t-33 -172zM1321 397q2 -72 31.5 -134t78 -109.5t110.5 -75t130 -27.5q74 0 138.5 29 t113.5 78t77.5 114.5t28.5 137.5q0 102 -35.5 177t-107.5 128q-37 27 -76 42t-80 26.5t-81.5 19.5t-83.5 24q-92 33 -144.5 98.5t-52.5 170.5q0 68 22.5 122t63.5 93t97.5 60.5t123.5 21.5q61 0 114.5 -22.5t93.5 -63.5t62.5 -96.5t22.5 -118.5h43q-2 70 -28.5 133 t-71.5 111t-104.5 77t-129.5 29q-76 0 -140.5 -25.5t-111.5 -72t-73.5 -110t-26.5 -138.5q0 -119 60.5 -195t158.5 -115q41 -16 82 -24t82 -17.5t79 -23.5t72 -41q123 -96 123 -270q0 -63 -24.5 -121t-67.5 -101t-99 -68.5t-120 -25.5q-66 0 -121 23.5t-97 64.5t-65.5 96.5 t-23.5 118.5h-43z" />
<glyph unicode="&#xe0;" d="M96 0zM96 -37v1137q0 82 24.5 153.5t68.5 129t105.5 98.5t133.5 59l-141 393h286l109 -118l119 -328q88 -55 174 -150q76 -86 114.5 -172t38.5 -178v-1130h-276l-119 106v533h-244v-639h-276zM133 0h41v1104q0 76 33 144.5t86 120.5t122.5 83t141.5 31q76 0 144.5 -32 t122 -84t85 -120.5t31.5 -142.5v-1104h45v1100q0 88 -35 163.5t-93 133t-136 90.5t-166 33t-165 -32t-134 -88.5t-90 -133t-33 -166.5v-1100zM217 0h43v725h596v-725h41v1104q0 66 -26.5 127t-72.5 109.5t-108.5 77t-134.5 28.5q-68 0 -129 -26.5t-107.5 -75t-74 -112 t-27.5 -136.5v-1096zM260 766v338q0 61 23.5 114.5t63.5 93.5t94.5 63.5t113.5 23.5q61 0 115.5 -23.5t96.5 -64.5t65.5 -96.5t23.5 -118.5v-330h-596zM303 0h41v639h426v-639h41v680h-508v-680zM303 809h508v287q0 55 -19.5 103t-53 83t-81 55.5t-102.5 20.5t-101 -20.5 t-80 -55.5t-52.5 -83t-18.5 -103v-287zM340 1894l121 -333h39l-119 333h-41zM344 852v252q0 94 56.5 152.5t154.5 58.5q96 0 155.5 -56.5t59.5 -154.5v-252h-426zM422 1894l121 -333h43l-121 333h-43zM489 891h244v213q0 41 -11 53t-54 12q-84 0 -131.5 -50t-47.5 -128v-100 zM506 1894l121 -333h41l-121 333h-41z" />
<glyph unicode="&#xe1;" d="M96 0zM96 -37v1137q0 76 22.5 144.5t62.5 124.5t95.5 98t120.5 65l146 401h286l105 -118l-123 -336q70 -45 128 -102.5t100 -122t65.5 -133t23.5 -134.5v-1130h-276l-119 106v533h-244v-639h-276zM133 0h41v1104q0 76 33 144.5t86 120.5t122.5 83t141.5 31 q76 0 144.5 -32t122 -84t85 -120.5t31.5 -142.5v-1104h45v1100q0 88 -35 163.5t-93 133t-136 90.5t-166 33t-165 -32t-134 -88.5t-90 -133t-33 -166.5v-1100zM217 0h43v725h596v-725h41v1104q0 66 -26.5 127t-72.5 109.5t-108.5 77t-134.5 28.5q-68 0 -129 -26.5t-107.5 -75 t-74 -112t-27.5 -136.5v-1096zM260 766v338q0 61 23.5 114.5t63.5 93.5t94.5 63.5t113.5 23.5q61 0 115.5 -23.5t96.5 -64.5t65.5 -96.5t23.5 -118.5v-330h-596zM303 0h41v639h426v-639h41v680h-508v-680zM303 809h508v287q0 55 -19.5 103t-53 83t-81 55.5t-102.5 20.5 t-101 -20.5t-80 -55.5t-52.5 -83t-18.5 -103v-287zM344 852v252q0 94 56.5 152.5t154.5 58.5q96 0 155.5 -56.5t59.5 -154.5v-252h-426zM449 1561h40l119 333h-41zM489 891h244v213q0 41 -11 53t-54 12q-84 0 -131.5 -50t-47.5 -128v-100zM528 1561h45l121 333h-43z M614 1561h39l123 333h-41z" />
<glyph unicode="&#xe2;" d="M96 0zM96 -37v1137q0 129 58.5 230.5t156.5 160.5l-37 33l138 409h295l108 -118l133 -398h-53q115 -109 174 -211t59 -219v-1130h-276l-119 106v533h-244v-639h-276zM133 0h41v1104q0 76 33 144.5t86 120.5t122.5 83t141.5 31q76 0 144.5 -32t122 -84t85 -120.5 t31.5 -142.5v-1104h45v1100q0 88 -35 163.5t-93 133t-136 90.5t-166 33t-165 -32t-134 -88.5t-90 -133t-33 -166.5v-1100zM217 0h43v725h596v-725h41v1104q0 66 -26.5 127t-72.5 109.5t-108.5 77t-134.5 28.5q-68 0 -129 -26.5t-107.5 -75t-74 -112t-27.5 -136.5v-1096z M260 766v338q0 61 23.5 114.5t63.5 93.5t94.5 63.5t113.5 23.5q61 0 115.5 -23.5t96.5 -64.5t65.5 -96.5t23.5 -118.5v-330h-596zM303 0h41v639h426v-639h41v680h-508v-680zM303 809h508v287q0 55 -19.5 103t-53 83t-81 55.5t-102.5 20.5t-101 -20.5t-80 -55.5t-52.5 -83 t-18.5 -103v-287zM324 1561h47l112 333h-45zM344 852v252q0 94 56.5 152.5t154.5 58.5q96 0 155.5 -56.5t59.5 -154.5v-252h-426zM420 1561h49l90 266l88 -266h49l-114 333h-47zM489 891h244v213q0 41 -11 53t-54 12q-84 0 -131.5 -50t-47.5 -128v-100zM518 1561h80l-39 122 zM631 1894l112 -333h50l-113 333h-49z" />
<glyph unicode="&#xe3;" d="M96 0zM96 -37v1137q0 92 30 169t83 136l-31 31v379q49 29 103.5 44t109.5 15q51 0 97.5 -14.5t87 -33t78.5 -32.5t75 -14q39 0 87 40t110 128l118 -113v-381q-70 -39 -135 -51q109 -111 164 -205t55 -211v-1130h-276l-119 106v533h-244v-639h-276zM133 0h41v1104 q0 76 33 144.5t86 120.5t122.5 83t141.5 31q76 0 144.5 -32t122 -84t85 -120.5t31.5 -142.5v-1104h45v1100q0 88 -35 163.5t-93 133t-136 90.5t-166 33t-165 -32t-134 -88.5t-90 -133t-33 -166.5v-1100zM215 1534q37 53 80 77.5t92 24.5q41 0 81 -15t80 -32.5t83 -33 t92 -15.5q51 0 96 12.5t80 32.5v49q-35 -23 -77 -37t-89 -14q-49 0 -92 15.5t-85 33t-83 32.5t-88 15q-51 0 -93 -24.5t-77 -65.5v-55zM215 1640q35 35 84 55.5t102 20.5q43 0 81 -14t76 -32.5t78 -33t83 -14.5q53 0 98 13.5t82 43.5v60q-35 -35 -83 -56.5t-101 -21.5 q-41 0 -79 15.5t-76 32.5t-79 32.5t-86 15.5q-106 0 -180 -59v-58zM215 1743q37 23 79 38t89 15q49 0 92 -15.5t84 -33.5t83 -33.5t89 -15.5q51 0 92 24.5t76 65.5v57q-70 -104 -170 -104q-43 0 -82 15.5t-80 32.5t-84 32.5t-92 15.5q-98 0 -176 -45v-49zM217 0h43v725h596 v-725h41v1104q0 66 -26.5 127t-72.5 109.5t-108.5 77t-134.5 28.5q-68 0 -129 -26.5t-107.5 -75t-74 -112t-27.5 -136.5v-1096zM260 766v338q0 61 23.5 114.5t63.5 93.5t94.5 63.5t113.5 23.5q61 0 115.5 -23.5t96.5 -64.5t65.5 -96.5t23.5 -118.5v-330h-596zM303 0h41v639 h426v-639h41v680h-508v-680zM303 809h508v287q0 55 -19.5 103t-53 83t-81 55.5t-102.5 20.5t-101 -20.5t-80 -55.5t-52.5 -83t-18.5 -103v-287zM344 852v252q0 94 56.5 152.5t154.5 58.5q96 0 155.5 -56.5t59.5 -154.5v-252h-426zM489 891h244v213q0 41 -11 53t-54 12 q-84 0 -131.5 -50t-47.5 -128v-100z" />
<glyph unicode="&#xe4;" d="M96 0zM96 -37v1137q0 135 64.5 240.5t171.5 162.5l-80 74q-29 23 -47.5 54.5t-18.5 74.5q0 59 41 102t103 43q41 0 71.5 -21.5t57.5 -49.5l84 -86q18 -20 29.5 -46t11.5 -55q0 -23 -6 -37q109 -6 206 -60t191 -159q76 -86 114.5 -172t38.5 -178v-1130h-276l-119 106v533 h-244v-639h-276zM133 0h41v1104q0 76 33 144.5t86 120.5t122.5 83t141.5 31q76 0 144.5 -32t122 -84t85 -120.5t31.5 -142.5v-1104h45v1100q0 88 -35 163.5t-93 133t-136 90.5t-166 33t-165 -32t-134 -88.5t-90 -133t-33 -166.5v-1100zM217 0h43v725h596v-725h41v1104 q0 66 -26.5 127t-72.5 109.5t-108.5 77t-134.5 28.5q-68 0 -129 -26.5t-107.5 -75t-74 -112t-27.5 -136.5v-1096zM223 1706q0 -45 31 -76t76 -31t76.5 31t31.5 76t-31.5 77t-76.5 32t-76 -32t-31 -77zM260 766v338q0 61 23.5 114.5t63.5 93.5t94.5 63.5t113.5 23.5 q61 0 115.5 -23.5t96.5 -64.5t65.5 -96.5t23.5 -118.5v-330h-596zM266 1706q0 29 18.5 47.5t45.5 18.5t46 -18.5t19 -47.5q0 -27 -19.5 -45.5t-45.5 -18.5q-27 0 -45.5 18.5t-18.5 45.5zM303 0h41v639h426v-639h41v680h-508v-680zM303 809h508v287q0 55 -19.5 103t-53 83 t-81 55.5t-102.5 20.5t-101 -20.5t-80 -55.5t-52.5 -83t-18.5 -103v-287zM303 1706q0 -25 27 -25t26 25q0 10 -8 19.5t-18 9.5t-18.5 -9.5t-8.5 -19.5zM344 852v252q0 94 56.5 152.5t154.5 58.5q96 0 155.5 -56.5t59.5 -154.5v-252h-426zM489 891h244v213q0 41 -11 53 t-54 12q-84 0 -131.5 -50t-47.5 -128v-100zM639 1706q0 59 41 102t104 43q41 0 71 -21.5t58 -49.5l82 -86q41 -41 41 -101q0 -59 -41 -99t-98 -40q-31 0 -56.5 12.5t-43.5 28.5l-92 82q-29 23 -47.5 54.5t-18.5 74.5zM676 1706q0 -45 30.5 -76t77.5 -31q45 0 77 31t32 76 t-32 77t-77 32q-47 0 -77.5 -32t-30.5 -77zM719 1706q0 29 18.5 47.5t46.5 18.5q29 0 47.5 -18.5t18.5 -47.5q0 -27 -18.5 -45.5t-47.5 -18.5t-47 18.5t-18 45.5zM760 1706q0 -25 24 -25q25 0 25 25q0 10 -7 19.5t-18 9.5q-10 0 -17 -9.5t-7 -19.5z" />
<glyph unicode="&#xe5;" d="M96 0zM96 -37v1137q0 76 22.5 143.5t61.5 122.5t93.5 97t119.5 67q-29 31 -48 76t-19 90q0 104 64.5 170.5t168.5 66.5q66 0 111 -27.5t86 -66.5l80 -80q31 -31 46 -77t15 -97q0 -76 -43 -135q23 -20 50.5 -44t68.5 -69q156 -168 155 -350v-1130h-276l-119 106v533h-244 v-639h-276zM133 0h41v1104q0 76 33 144.5t86 120.5t122.5 83t141.5 31q76 0 144.5 -32t122 -84t85 -120.5t31.5 -142.5v-1104h45v1100q0 78 -27.5 147.5t-75.5 124.5t-114 92t-139 49q55 18 89 67.5t34 117.5q0 86 -52.5 141t-140.5 55t-141 -55t-53 -143q0 -66 34.5 -114 t92.5 -66q-78 -10 -143.5 -46t-113 -91.5t-75 -126t-27.5 -152.5v-1100zM217 0h43v725h596v-725h41v1104q0 66 -26.5 127t-72.5 109.5t-108.5 77t-134.5 28.5q-68 0 -129 -26.5t-107.5 -75t-74 -112t-27.5 -136.5v-1096zM260 766v338q0 61 23.5 114.5t63.5 93.5t94.5 63.5 t113.5 23.5q61 0 115.5 -23.5t96.5 -64.5t65.5 -96.5t23.5 -118.5v-330h-596zM303 0h41v639h426v-639h41v680h-508v-680zM303 809h508v287q0 55 -19.5 103t-53 83t-81 55.5t-102.5 20.5t-101 -20.5t-80 -55.5t-52.5 -83t-18.5 -103v-287zM344 852v252q0 94 56.5 152.5 t154.5 58.5q96 0 155.5 -56.5t59.5 -154.5v-252h-426zM406 1696q0 66 43 109.5t108 43.5q63 0 107.5 -43.5t44.5 -109.5q0 -63 -44 -106.5t-108 -43.5q-66 0 -108.5 43t-42.5 107zM453 1696q0 -43 29.5 -75t74.5 -32t75 32t30 75q0 47 -30 77.5t-75 30.5t-74.5 -30.5 t-29.5 -77.5zM489 891h244v213q0 41 -11 53t-54 12q-84 0 -131.5 -50t-47.5 -128v-100zM492 1694q0 29 18 48t47 19q31 0 51.5 -19t20.5 -48q0 -31 -20.5 -48.5t-51.5 -17.5q-29 0 -47 17.5t-18 48.5z" />
<glyph unicode="&#xe6;" horiz-adv-x="1761" d="M96 0zM96 -37v1137q0 98 36 182t98.5 145.5t145.5 96.5t179 35q184 0 317 -123q129 123 324 123q117 0 218.5 -52.5t195.5 -158.5q80 -88 117.5 -175.5t37.5 -185.5v-74h-276l-119 107v80q0 39 -9 51t-52 12q-84 0 -132.5 -46t-48.5 -130v-98h254l107 -119v-276h-361 v-215q0 -39 10.5 -47.5t57.5 -8.5q80 0 127 45t47 123v76h289l106 -119v-69q0 -98 -35.5 -181.5t-98 -143.5t-145.5 -93t-177 -33q-188 0 -371 162q-98 88 -151.5 185t-53.5 216v105h-244v-639h-276zM133 0h41v1104q0 76 33 144.5t86 120.5t122.5 83t141.5 31 q94 0 178 -48.5t137 -123.5l9 8q55 76 139 117t176 41q74 0 142.5 -27t121.5 -76t86 -118.5t33 -155.5v-43h43v43q0 92 -34 170t-91 133t-135 86t-166 31q-98 0 -181 -36t-143 -102q-59 63 -141 100.5t-176 37.5q-88 0 -165 -32t-134 -88.5t-90 -133t-33 -166.5v-1100z M217 0h43v725h596v-334q0 -74 28.5 -135t76 -105.5t108.5 -69t127 -24.5t127 24.5t108.5 69t76 105.5t28.5 135v39h-43v-39q0 -63 -22.5 -116.5t-61.5 -92.5t-94 -60.5t-119 -21.5q-66 0 -120 21.5t-93 60.5t-61.5 92.5t-22.5 116.5v332h444v41h-444v336q0 66 22.5 120 t62.5 92t94.5 59.5t117.5 21.5t118.5 -21.5t94.5 -59.5t61.5 -92.5t22.5 -119.5v-43h43v43q0 76 -28.5 137t-76 105t-108.5 69t-127 25q-51 0 -100 -15.5t-92 -43t-76 -67.5t-51 -89q-18 47 -50 88t-74 71.5t-92.5 48t-105.5 17.5q-68 0 -129 -26.5t-107.5 -75t-74 -112 t-27.5 -136.5v-1096zM260 766v338q0 61 23.5 114.5t63.5 93.5t94.5 63.5t113.5 23.5t113.5 -22.5t96.5 -62.5t66.5 -95.5t24.5 -118.5v-334h-596zM303 0h41v639h426v-248q0 -92 34 -169t91 -133t135 -87t166 -31t166 31t135 87t91 133t34 169v39h-43v-39q0 -84 -33 -153.5 t-86 -118.5t-121.5 -76t-142.5 -27t-142.5 27t-122.5 76t-87 118.5t-33 153.5v289h-508v-680zM303 809h508v291q0 53 -19.5 100t-53 82t-81 55.5t-102.5 20.5t-101 -20.5t-80 -55.5t-52.5 -83t-18.5 -103v-287zM344 852v252q0 94 56.5 152.5t154.5 58.5q96 0 155.5 -56.5 t59.5 -154.5v-252h-426zM489 891h244v213q0 41 -11 53t-54 12q-84 0 -131.5 -50t-47.5 -128v-100zM940 391q0 -57 20.5 -103t56.5 -78t82 -49.5t97 -17.5t97 17.5t81 49.5t55.5 78t20.5 103v39h-43v-39q0 -98 -56.5 -151.5t-154.5 -53.5t-154.5 53.5t-56.5 151.5v246h358v43 h-403v-289zM940 807h403v45h-358v248q0 98 56.5 153.5t154.5 55.5t154.5 -55.5t56.5 -153.5v-43h43v43q0 57 -20.5 104t-55.5 79t-81 49.5t-97 17.5t-97 -17.5t-82 -49.5t-56.5 -79t-20.5 -104v-293z" />
<glyph unicode="&#xe7;" horiz-adv-x="1097" d="M88 0zM88 391v709q0 100 36 185t99.5 145.5t147.5 94.5t180 34q117 0 218 -52.5t198 -160.5q78 -86 115.5 -173.5t37.5 -185.5v-74h-276l-119 107v80q0 39 -12.5 51t-48.5 12q-86 0 -134.5 -46t-48.5 -130v-708q0 -35 12.5 -45.5t57.5 -10.5q80 0 127 45t47 123v76h289 l106 -119v-69q0 -84 -26.5 -157t-72.5 -129t-109.5 -96t-137.5 -57q20 -31 27.5 -55.5t7.5 -44.5q0 -47 -29 -86l-121 -164l-206 172l39 57q-45 29 -64.5 62t-19.5 72q0 12 1 24t3 23q-158 94 -241 223t-83 268zM125 391q0 -92 34 -169t91 -133t135 -87t166 -31t166 31 t135 87t91 133t34 169v39h-43v-39q0 -84 -33 -153.5t-86 -118.5t-121.5 -76t-142.5 -27t-142.5 27t-123 76t-87 118.5t-32.5 153.5v709q0 86 32.5 155.5t87 118.5t123 76t142.5 27t142.5 -27t121.5 -76t86 -118.5t33 -155.5v-43h43v43q0 92 -34 170t-91 133t-135 86t-166 31 t-166 -31t-135 -86t-91 -133t-34 -170v-709zM211 391q0 -74 28.5 -135t75.5 -105.5t108.5 -69t127.5 -24.5t127 24.5t108.5 69t76 105.5t28.5 135v39h-43v-39q0 -63 -22.5 -116.5t-61.5 -92.5t-94.5 -60.5t-118.5 -21.5q-66 0 -120 21.5t-93 60.5t-61.5 92.5t-22.5 116.5 v709q0 66 22.5 120t61.5 92t93 59.5t120 21.5q63 0 118.5 -21.5t94.5 -59.5t61.5 -92.5t22.5 -119.5v-43h43v43q0 76 -28.5 137t-76 105t-109 69t-126.5 25q-66 0 -127.5 -25t-108.5 -69t-75.5 -105t-28.5 -137v-709zM297 391q0 -57 20.5 -103t55.5 -78t81 -49.5t97 -17.5 t97 17.5t81 49.5t56.5 78t21.5 103v39h-43v-39q0 -98 -57.5 -151.5t-155.5 -53.5t-155.5 53.5t-57.5 151.5v709q0 98 57.5 153.5t155.5 55.5t155.5 -55.5t57.5 -153.5v-43h43v43q0 57 -21.5 104t-56.5 79t-81 49.5t-97 17.5t-97 -17.5t-81 -49.5t-55.5 -79t-20.5 -104v-709z M444 -147q0 -76 74 -103l21 35q-20 4 -37 20.5t-17 44.5q0 37 19.5 53.5t48.5 16.5t47 -18.5t18 -51.5q0 -20 -16 -47l-98 -131l37 -26l100 139q23 31 23 68q0 45 -31 78.5t-78 33.5q-45 0 -78 -31.5t-33 -80.5zM522 -150q0 -12 9.5 -20t21.5 -8q29 0 29 28q0 10 -8.5 18.5 t-20.5 8.5t-21.5 -8.5t-9.5 -18.5z" />
<glyph unicode="&#xe8;" horiz-adv-x="1112" d="M102 0zM102 391v709q0 84 26 156.5t70 129t105.5 96.5t134.5 58l-139 393h287l108 -118l115 -324q66 -41 125 -97.5t103 -124t71 -140t27 -142.5v-74h-277l-117 107v80q0 39 -9 51t-54 12q-86 0 -133 -46t-47 -130v-98h254l106 -119v-276h-360v-215q0 -35 11 -45.5 t56 -10.5q82 0 129 45t47 123v76h287l107 -119v-69q0 -98 -36 -181.5t-97.5 -143.5t-145.5 -93t-178 -33q-188 0 -367 160q-102 90 -155.5 187t-53.5 216zM141 391q0 -92 33 -169t90.5 -133t135 -87t165.5 -31t166 31t135.5 87t90 133t32.5 169v39h-41v-39 q0 -84 -32.5 -153.5t-86 -118.5t-122 -76t-142.5 -27t-142.5 27t-121.5 76t-86 118.5t-33 153.5v709q0 86 33 155.5t86 118.5t122 76t142 27q74 0 142.5 -27t122 -76t86 -118.5t32.5 -155.5v-43h41v43q0 92 -32.5 170t-90 133t-135.5 86t-166 31t-165.5 -31t-135 -86 t-90.5 -133t-33 -170v-709zM225 391q0 -74 29 -135t76 -105.5t108.5 -69t126.5 -24.5q66 0 127.5 24.5t108.5 69t75.5 105.5t28.5 135v39h-43v-39q0 -63 -21.5 -116.5t-61.5 -92.5t-94 -60.5t-120 -21.5t-119 21.5t-93 60.5t-61.5 92.5t-21.5 116.5v332h445v41h-445v336 q0 66 21.5 120t61.5 92t93.5 59.5t118.5 21.5q131 0 214 -81t83 -212v-43h43v43q0 76 -28.5 137t-75.5 105t-108.5 69t-127.5 25t-127 -25t-108 -69t-76 -105t-29 -137v-709zM311 391q0 -57 20.5 -103t56.5 -78t82 -49.5t95 -17.5t95.5 17.5t82 49.5t56 78t20.5 103v39h-41 v-39q0 -98 -57 -151.5t-156 -53.5q-98 0 -155.5 53.5t-57.5 151.5v246h363v43h-404v-289zM311 807h404v45h-363v248q0 98 57.5 153.5t155.5 55.5t155.5 -55.5t57.5 -153.5v-43h41v43q0 57 -20.5 104t-56 79t-82 49.5t-95.5 17.5t-95 -17.5t-82 -49.5t-56.5 -79t-20.5 -104 v-293zM350 1894l123 -333h39l-121 333h-41zM432 1894l121 -333h45l-123 333h-43zM518 1894l119 -333h41l-119 333h-41z" />
<glyph unicode="&#xe9;" horiz-adv-x="1112" d="M102 0zM102 391v709q0 162 87 275.5t223 158.5l143 399h287l104 -118l-121 -334q63 -41 121 -97.5t98.5 -122t65.5 -136t25 -138.5v-74h-277l-117 107v80q0 39 -9 51t-54 12q-86 0 -133 -46t-47 -130v-98h254l106 -119v-276h-360v-215q0 -35 11 -45.5t56 -10.5 q82 0 129 45t47 123v76h287l107 -119v-69q0 -98 -36 -181.5t-97.5 -143.5t-145.5 -93t-178 -33q-188 0 -367 160q-102 90 -155.5 187t-53.5 216zM141 391q0 -92 33 -169t90.5 -133t135 -87t165.5 -31t166 31t135.5 87t90 133t32.5 169v39h-41v-39q0 -84 -32.5 -153.5 t-86 -118.5t-122 -76t-142.5 -27t-142.5 27t-121.5 76t-86 118.5t-33 153.5v709q0 86 33 155.5t86 118.5t122 76t142 27q74 0 142.5 -27t122 -76t86 -118.5t32.5 -155.5v-43h41v43q0 92 -32.5 170t-90 133t-135.5 86t-166 31t-165.5 -31t-135 -86t-90.5 -133t-33 -170v-709z M225 391q0 -74 29 -135t76 -105.5t108.5 -69t126.5 -24.5q66 0 127.5 24.5t108.5 69t75.5 105.5t28.5 135v39h-43v-39q0 -63 -21.5 -116.5t-61.5 -92.5t-94 -60.5t-120 -21.5t-119 21.5t-93 60.5t-61.5 92.5t-21.5 116.5v332h445v41h-445v336q0 66 21.5 120t61.5 92 t93.5 59.5t118.5 21.5q131 0 214 -81t83 -212v-43h43v43q0 76 -28.5 137t-75.5 105t-108.5 69t-127.5 25t-127 -25t-108 -69t-76 -105t-29 -137v-709zM311 391q0 -57 20.5 -103t56.5 -78t82 -49.5t95 -17.5t95.5 17.5t82 49.5t56 78t20.5 103v39h-41v-39q0 -98 -57 -151.5 t-156 -53.5q-98 0 -155.5 53.5t-57.5 151.5v246h363v43h-404v-289zM311 807h404v45h-363v248q0 98 57.5 153.5t155.5 55.5t155.5 -55.5t57.5 -153.5v-43h41v43q0 57 -20.5 104t-56 79t-82 49.5t-95.5 17.5t-95 -17.5t-82 -49.5t-56.5 -79t-20.5 -104v-293zM461 1561h41 l121 333h-41zM543 1561h43l121 333h-43zM629 1561h39l120 333h-40z" />
<glyph unicode="&#xea;" horiz-adv-x="1112" d="M102 0zM102 391v709q0 131 59.5 232.5t160.5 160.5l-35 31l139 409h293l110 -118l134 -398h-54q109 -98 167.5 -204.5t58.5 -225.5v-74h-277l-117 107v80q0 39 -9 51t-54 12q-86 0 -133 -46t-47 -130v-98h254l106 -119v-276h-360v-215q0 -35 11 -45.5t56 -10.5 q82 0 129 45t47 123v76h287l107 -119v-69q0 -98 -36 -181.5t-97.5 -143.5t-145.5 -93t-178 -33q-188 0 -367 160q-102 90 -155.5 187t-53.5 216zM141 391q0 -92 33 -169t90.5 -133t135 -87t165.5 -31t166 31t135.5 87t90 133t32.5 169v39h-41v-39q0 -84 -32.5 -153.5 t-86 -118.5t-122 -76t-142.5 -27t-142.5 27t-121.5 76t-86 118.5t-33 153.5v709q0 86 33 155.5t86 118.5t122 76t142 27q74 0 142.5 -27t122 -76t86 -118.5t32.5 -155.5v-43h41v43q0 92 -32.5 170t-90 133t-135.5 86t-166 31t-165.5 -31t-135 -86t-90.5 -133t-33 -170v-709z M225 391q0 -74 29 -135t76 -105.5t108.5 -69t126.5 -24.5q66 0 127.5 24.5t108.5 69t75.5 105.5t28.5 135v39h-43v-39q0 -63 -21.5 -116.5t-61.5 -92.5t-94 -60.5t-120 -21.5t-119 21.5t-93 60.5t-61.5 92.5t-21.5 116.5v332h445v41h-445v336q0 66 21.5 120t61.5 92 t93.5 59.5t118.5 21.5q131 0 214 -81t83 -212v-43h43v43q0 76 -28.5 137t-75.5 105t-108.5 69t-127.5 25t-127 -25t-108 -69t-76 -105t-29 -137v-709zM311 391q0 -57 20.5 -103t56.5 -78t82 -49.5t95 -17.5t95.5 17.5t82 49.5t56 78t20.5 103v39h-41v-39q0 -98 -57 -151.5 t-156 -53.5q-98 0 -155.5 53.5t-57.5 151.5v246h363v43h-404v-289zM311 807h404v45h-363v248q0 98 57.5 153.5t155.5 55.5t155.5 -55.5t57.5 -153.5v-43h41v43q0 57 -20.5 104t-56 79t-82 49.5t-95.5 17.5t-95 -17.5t-82 -49.5t-56.5 -79t-20.5 -104v-293zM338 1561h47 l113 333h-45zM432 1561h49l90 266l88 -266h50l-115 333h-47zM530 1561h80l-39 122zM645 1894l113 -333h49l-113 333h-49z" />
<glyph unicode="&#xeb;" horiz-adv-x="1112" d="M102 0zM102 391v709q0 139 65.5 243.5t174.5 159.5l-80 74q-27 23 -46 52.5t-19 70.5q0 63 39.5 107t105.5 44q41 0 70.5 -21.5t58.5 -49.5l82 -86q41 -41 41 -101q0 -20 -6 -34q61 -4 115.5 -21.5t107.5 -48.5l-2 6l-92 82q-31 25 -48.5 54.5t-17.5 74.5q0 59 41 102 t103 43q41 0 71.5 -21.5t57.5 -49.5l84 -86q18 -20 29.5 -46t11.5 -55q0 -59 -41 -99t-101 -40q-35 0 -63 16q63 -47 116.5 -103t92.5 -118.5t60.5 -129t21.5 -132.5v-74h-277l-117 107v80q0 39 -9 51t-54 12q-86 0 -133 -46t-47 -130v-98h254l106 -119v-276h-360v-215 q0 -35 11 -45.5t56 -10.5q82 0 129 45t47 123v76h287l107 -119v-69q0 -98 -36 -181.5t-97.5 -143.5t-145.5 -93t-178 -33q-188 0 -367 160q-102 90 -155.5 187t-53.5 216zM141 391q0 -92 33 -169t90.5 -133t135 -87t165.5 -31t166 31t135.5 87t90 133t32.5 169v39h-41v-39 q0 -84 -32.5 -153.5t-86 -118.5t-122 -76t-142.5 -27t-142.5 27t-121.5 76t-86 118.5t-33 153.5v709q0 86 33 155.5t86 118.5t122 76t142 27q74 0 142.5 -27t122 -76t86 -118.5t32.5 -155.5v-43h41v43q0 92 -32.5 170t-90 133t-135.5 86t-166 31t-165.5 -31t-135 -86 t-90.5 -133t-33 -170v-709zM225 391q0 -74 29 -135t76 -105.5t108.5 -69t126.5 -24.5q66 0 127.5 24.5t108.5 69t75.5 105.5t28.5 135v39h-43v-39q0 -63 -21.5 -116.5t-61.5 -92.5t-94 -60.5t-120 -21.5t-119 21.5t-93 60.5t-61.5 92.5t-21.5 116.5v332h445v41h-445v336 q0 66 21.5 120t61.5 92t93.5 59.5t118.5 21.5q131 0 214 -81t83 -212v-43h43v43q0 76 -28.5 137t-75.5 105t-108.5 69t-127.5 25t-127 -25t-108 -69t-76 -105t-29 -137v-709zM233 1706q0 -45 31 -76t78 -31q45 0 77 31t32 76t-32 77t-77 32q-47 0 -78 -32t-31 -77zM276 1706 q0 29 18.5 47.5t47.5 18.5q27 0 46.5 -18.5t19.5 -47.5q0 -27 -19.5 -45.5t-46.5 -18.5q-29 0 -47.5 18.5t-18.5 45.5zM311 391q0 -57 20.5 -103t56.5 -78t82 -49.5t95 -17.5t95.5 17.5t82 49.5t56 78t20.5 103v39h-41v-39q0 -98 -57 -151.5t-156 -53.5q-98 0 -155.5 53.5 t-57.5 151.5v246h363v43h-404v-289zM311 807h404v45h-363v248q0 98 57.5 153.5t155.5 55.5t155.5 -55.5t57.5 -153.5v-43h41v43q0 57 -20.5 104t-56 79t-82 49.5t-95.5 17.5t-95 -17.5t-82 -49.5t-56.5 -79t-20.5 -104v-293zM315 1706q0 -25 27 -25q25 0 25 25 q0 10 -7.5 19.5t-17.5 9.5q-12 0 -19.5 -9.5t-7.5 -19.5zM688 1706q0 -45 31 -76t76 -31t76.5 31t31.5 76t-31.5 77t-76.5 32t-76 -32t-31 -77zM731 1706q0 29 18.5 47.5t45.5 18.5q29 0 47 -18.5t18 -47.5q0 -27 -18.5 -45.5t-46.5 -18.5q-27 0 -45.5 18.5t-18.5 45.5z M770 1706q0 -10 7 -17.5t18 -7.5q27 0 26 25q0 10 -8 19.5t-18 9.5t-17.5 -9.5t-7.5 -19.5z" />
<glyph unicode="&#xec;" horiz-adv-x="493" d="M-25 1933h287l109 -118l127 -351v-1607h-277l-119 106v1569h19zM0 0zM29 1894l121 -333h38l-118 333h-41zM111 1894l120 -333h45l-122 333h-43zM141 0h43v1495h-43v-1495zM195 1894l120 -333h41l-120 333h-41zM225 0h45v1495h-45v-1495zM311 0h41v1495h-41v-1495z" />
<glyph unicode="&#xed;" horiz-adv-x="493" d="M84 0zM84 1524l147 409h287l105 -118l-142 -388l17 -14v-1556h-277l-119 106v1544zM137 1561h41l121 333h-43zM141 0h43v1495h-43v-1495zM217 1561h45l121 333h-43zM225 0h45v1495h-45v-1495zM303 1561h41l121 333h-41zM311 0h41v1495h-41v-1495z" />
<glyph unicode="&#xee;" horiz-adv-x="493" d="M-37 1524l137 409h295l109 -118l133 -398h-143l4 -4v-1556h-277l-119 106v1454h-20zM0 0zM12 1561h47l113 333h-45zM109 1561h49l90 266l88 -266h49l-115 333h-47zM141 0h43v1495h-43v-1495zM207 1561h80l-39 122zM225 0h45v1495h-45v-1495zM311 0h41v1495h-41v-1495z M322 1894l110 -333h49l-112 333h-47z" />
<glyph unicode="&#xef;" horiz-adv-x="493" d="M-125 1706q0 59 41 102t102 43q41 0 72 -21.5t57 -49.5l84 -86q18 -20 29.5 -46t11.5 -55q0 -33 -16 -61h133l109 -119v-1556h-277l-119 106v1493q-41 8 -69 39l-92 82q-29 25 -48.5 54.5t-17.5 74.5zM-88 1706q0 -45 30.5 -76t75.5 -31t77 31t32 76t-32 77t-77 32 t-75.5 -32t-30.5 -77zM-45 1706q0 29 18.5 47.5t44.5 18.5q29 0 47.5 -18.5t18.5 -47.5q0 -27 -18.5 -45.5t-47.5 -18.5q-27 0 -45 18.5t-18 45.5zM-8 1706q0 -25 26 -25q27 0 27 25q0 10 -8 19.5t-19 9.5q-10 0 -18 -9.5t-8 -19.5zM0 0zM141 0h43v1495h-43v-1495zM225 0h45 v1495h-45v-1495zM311 0h41v1495h-41v-1495zM328 1706q0 59 41 102t104 43q41 0 70.5 -21.5t58.5 -49.5l82 -86q41 -41 41 -101q0 -59 -41 -99t-98 -40q-31 0 -56.5 12.5t-44.5 28.5l-92 82q-29 25 -48 54.5t-17 74.5zM365 1706q0 -45 30.5 -76t77.5 -31q45 0 77 31t32 76 t-32 77t-77 32q-47 0 -77.5 -32t-30.5 -77zM410 1706q0 29 17 47.5t46 18.5t47.5 -18.5t18.5 -47.5q0 -27 -18.5 -45.5t-47.5 -18.5t-46 18.5t-17 45.5zM449 1706q0 -25 24 -25q25 0 25 25q0 10 -7.5 19.5t-17.5 9.5t-17 -9.5t-7 -19.5z" />
<glyph unicode="&#xf0;" horiz-adv-x="1120" d="M39 0zM39 600v289h72v643h467q100 0 200.5 -52.5t181 -135t131 -186t50.5 -208.5v-631q0 -100 -35 -185t-95.5 -146.5t-142.5 -96t-178 -34.5h-461l-118 106v578zM78 637h69v-637h431q88 0 164.5 33t133 90t88 137t31.5 172v631q0 92 -31.5 172t-88 137.5t-133 90 t-164.5 32.5h-431v-643h-69v-45h110v643h377q82 0 154 -29.5t124 -81t81.5 -120t29.5 -146.5v-653q0 -78 -29.5 -146.5t-81.5 -120t-124 -81t-154 -29.5h-377v637h-110v-43zM78 723h153v-637h347q70 0 131 26.5t106 71.5t71.5 106.5t26.5 129.5v653q0 68 -26.5 129.5 t-71.5 106.5t-106.5 71.5t-130.5 26.5h-347v-643h-153v-41zM276 127v596h429v41h-429v602h289q66 0 122 -22.5t96 -62.5t62.5 -96.5t22.5 -121.5v-631q0 -68 -22.5 -123t-62.5 -96t-96 -63.5t-122 -22.5h-289zM317 170h261q106 0 177.5 71.5t71.5 190.5v631 q0 57 -19.5 105.5t-53 83t-78.5 53t-98 18.5h-261v-516h388v45h-345v428h205q98 0 158.5 -53t60.5 -154v-653q0 -98 -60 -153.5t-159 -55.5h-205v426h345v43h-388v-510zM504 250h61q82 0 131 45t49 125v74h-241v-244zM504 889h241v184q0 63 -67 64h-174v-248z" />
<glyph unicode="&#xf1;" d="M96 0zM96 -37v1137q0 92 30 169t83 136l-31 31v379q49 29 103.5 44t109.5 15q51 0 97.5 -14.5t87 -33t78.5 -32.5t75 -14q39 0 87 40t110 128l118 -113v-381q-31 -16 -62.5 -29.5t-66.5 -19.5q213 -195 213 -418v-1130h-276l-119 106v1137q0 39 -9 51t-52 12 q-86 0 -134.5 -46t-48.5 -130v-1130h-276zM133 0h41v1100q0 86 33 155.5t87 118.5t122.5 76t142.5 27q72 0 140.5 -27t121.5 -76t86 -118.5t33 -155.5v-1100h45v1100q0 92 -33.5 170t-91 133t-135.5 86t-166 31q-90 0 -167 -31t-135 -86t-91 -133t-33 -170v-1100zM215 1534 q37 53 80 77.5t92 24.5q41 0 81 -15t80 -32.5t83 -33t92 -15.5q51 0 96 12.5t80 32.5v49q-35 -23 -77 -37t-89 -14q-49 0 -92 15.5t-85 33t-83 32.5t-88 15q-51 0 -93 -24.5t-77 -65.5v-55zM215 1640q35 35 84 55.5t102 20.5q43 0 81 -14t76 -32.5t78 -33t83 -14.5 q53 0 98 13.5t82 43.5v60q-35 -35 -83 -56.5t-101 -21.5q-41 0 -79 15.5t-76 32.5t-79 32.5t-86 15.5q-106 0 -180 -59v-58zM215 1743q37 23 79 38t89 15q49 0 92 -15.5t84 -33.5t83 -33.5t89 -15.5q51 0 92 24.5t76 65.5v57q-70 -104 -170 -104q-43 0 -82 15.5t-80 32.5 t-84 32.5t-92 15.5q-98 0 -176 -45v-49zM217 0h45v1100q0 66 22.5 120t61.5 92t93.5 59.5t119.5 21.5q63 0 117.5 -21.5t94.5 -59.5t61.5 -92.5t21.5 -119.5v-1100h43v1100q0 76 -28.5 137t-76 105t-107.5 69t-126 25t-127 -25t-109.5 -69t-77 -105t-28.5 -137v-1100zM303 0 h41v1100q0 98 58.5 153.5t156.5 55.5t154.5 -55.5t56.5 -153.5v-1100h41v1100q0 57 -20.5 104t-55.5 79t-81 49.5t-95 17.5q-51 0 -97 -17.5t-82 -49.5t-56.5 -79t-20.5 -104v-1100z" />
<glyph unicode="&#xf2;" horiz-adv-x="1101" d="M88 0zM88 391v709q0 84 24.5 155.5t69.5 129t106.5 97.5t133.5 58l-143 393h286l111 -118l110 -314q72 -37 133.5 -96t105.5 -130t69.5 -145.5t25.5 -142.5v-708q0 -98 -35.5 -181.5t-97 -143.5t-145.5 -93t-178 -33q-98 0 -189.5 45t-208.5 143q-78 68 -128 162t-50 213 zM125 391q0 -92 34 -169t91 -133t135 -87t166 -31t166 31t135 87t91 133t34 169v709q0 92 -34 170t-91 133t-135 86t-166 31t-166 -31t-135 -86t-91 -133t-34 -170v-709zM166 391v709q0 86 32.5 155.5t87 118.5t123 76t142.5 27t142.5 -27t121.5 -76t86 -118.5t33 -155.5 v-709q0 -84 -33 -153.5t-86 -118.5t-121.5 -76t-142.5 -27t-142.5 27t-123 76t-87 118.5t-32.5 153.5zM211 391q0 -74 28.5 -135t75.5 -105.5t108.5 -69t127.5 -24.5t127 24.5t108.5 69t76 105.5t28.5 135v709q0 76 -28.5 137t-76 105t-109 69t-126.5 25q-66 0 -127.5 -25 t-108.5 -69t-75.5 -105t-28.5 -137v-709zM254 391v709q0 66 22.5 120t61.5 92t93 59.5t120 21.5q63 0 118.5 -21.5t94.5 -59.5t61.5 -92.5t22.5 -119.5v-709q0 -63 -22.5 -116.5t-61.5 -92.5t-94.5 -60.5t-118.5 -21.5q-66 0 -120 21.5t-93 60.5t-61.5 92.5t-22.5 116.5z M297 391q0 -57 20.5 -103t55.5 -78t81 -49.5t97 -17.5t97 17.5t81 49.5t56.5 78t21.5 103v709q0 57 -21.5 104t-56.5 79t-81 49.5t-97 17.5t-97 -17.5t-81 -49.5t-55.5 -79t-20.5 -104v-709zM332 1894l123 -333h39l-121 333h-41zM338 391v709q0 98 57.5 153.5t155.5 55.5 t155.5 -55.5t57.5 -153.5v-709q0 -98 -57.5 -151.5t-155.5 -53.5t-155.5 53.5t-57.5 151.5zM414 1894l121 -333h45l-123 333h-43zM481 279q0 -33 12.5 -44.5t57.5 -11.5q80 0 127 45t47 123v709q0 39 -9 51t-52 12q-86 0 -134.5 -46t-48.5 -130v-708zM498 1894l120 -333h41 l-118 333h-43z" />
<glyph unicode="&#xf3;" horiz-adv-x="1101" d="M88 0zM88 391v709q0 160 84 273.5t217 158.5l146 401h286l105 -118l-117 -324q68 -41 125 -100.5t98 -127t64.5 -139t23.5 -137.5v-708q0 -98 -35.5 -181.5t-97 -143.5t-145.5 -93t-178 -33q-98 0 -189.5 45t-208.5 143q-78 68 -128 162t-50 213zM125 391q0 -92 34 -169 t91 -133t135 -87t166 -31t166 31t135 87t91 133t34 169v709q0 92 -34 170t-91 133t-135 86t-166 31t-166 -31t-135 -86t-91 -133t-34 -170v-709zM166 391v709q0 86 32.5 155.5t87 118.5t123 76t142.5 27t142.5 -27t121.5 -76t86 -118.5t33 -155.5v-709q0 -84 -33 -153.5 t-86 -118.5t-121.5 -76t-142.5 -27t-142.5 27t-123 76t-87 118.5t-32.5 153.5zM211 391q0 -74 28.5 -135t75.5 -105.5t108.5 -69t127.5 -24.5t127 24.5t108.5 69t76 105.5t28.5 135v709q0 76 -28.5 137t-76 105t-109 69t-126.5 25q-66 0 -127.5 -25t-108.5 -69t-75.5 -105 t-28.5 -137v-709zM254 391v709q0 66 22.5 120t61.5 92t93 59.5t120 21.5q63 0 118.5 -21.5t94.5 -59.5t61.5 -92.5t22.5 -119.5v-709q0 -63 -22.5 -116.5t-61.5 -92.5t-94.5 -60.5t-118.5 -21.5q-66 0 -120 21.5t-93 60.5t-61.5 92.5t-22.5 116.5zM297 391q0 -57 20.5 -103 t55.5 -78t81 -49.5t97 -17.5t97 17.5t81 49.5t56.5 78t21.5 103v709q0 57 -21.5 104t-56.5 79t-81 49.5t-97 17.5t-97 -17.5t-81 -49.5t-55.5 -79t-20.5 -104v-709zM338 391v709q0 98 57.5 153.5t155.5 55.5t155.5 -55.5t57.5 -153.5v-709q0 -98 -57.5 -151.5t-155.5 -53.5 t-155.5 53.5t-57.5 151.5zM440 1561h41l121 333h-41zM481 279q0 -33 12.5 -44.5t57.5 -11.5q80 0 127 45t47 123v709q0 39 -9 51t-52 12q-86 0 -134.5 -46t-48.5 -130v-708zM520 1561h45l121 333h-43zM608 1561h39l121 333h-41z" />
<glyph unicode="&#xf4;" horiz-adv-x="1101" d="M88 0zM88 391v709q0 131 57.5 231.5t155.5 159.5l-35 33l140 409h292l111 -118l131 -398h-35q104 -96 159.5 -208.5t55.5 -221.5v-708q0 -98 -35.5 -181.5t-97 -143.5t-145.5 -93t-178 -33q-98 0 -189.5 45t-208.5 143q-78 68 -128 162t-50 213zM125 391q0 -92 34 -169 t91 -133t135 -87t166 -31t166 31t135 87t91 133t34 169v709q0 92 -34 170t-91 133t-135 86t-166 31t-166 -31t-135 -86t-91 -133t-34 -170v-709zM166 391v709q0 86 32.5 155.5t87 118.5t123 76t142.5 27t142.5 -27t121.5 -76t86 -118.5t33 -155.5v-709q0 -84 -33 -153.5 t-86 -118.5t-121.5 -76t-142.5 -27t-142.5 27t-123 76t-87 118.5t-32.5 153.5zM211 391q0 -74 28.5 -135t75.5 -105.5t108.5 -69t127.5 -24.5t127 24.5t108.5 69t76 105.5t28.5 135v709q0 76 -28.5 137t-76 105t-109 69t-126.5 25q-66 0 -127.5 -25t-108.5 -69t-75.5 -105 t-28.5 -137v-709zM254 391v709q0 66 22.5 120t61.5 92t93 59.5t120 21.5q63 0 118.5 -21.5t94.5 -59.5t61.5 -92.5t22.5 -119.5v-709q0 -63 -22.5 -116.5t-61.5 -92.5t-94.5 -60.5t-118.5 -21.5q-66 0 -120 21.5t-93 60.5t-61.5 92.5t-22.5 116.5zM297 391q0 -57 20.5 -103 t55.5 -78t81 -49.5t97 -17.5t97 17.5t81 49.5t56.5 78t21.5 103v709q0 57 -21.5 104t-56.5 79t-81 49.5t-97 17.5t-97 -17.5t-81 -49.5t-55.5 -79t-20.5 -104v-709zM317 1561h48l110 333h-43zM338 391v709q0 98 57.5 153.5t155.5 55.5t155.5 -55.5t57.5 -153.5v-709 q0 -98 -57.5 -151.5t-155.5 -53.5t-155.5 53.5t-57.5 151.5zM412 1561h49l90 266l88 -266h49l-115 333h-47zM481 279q0 -33 12.5 -44.5t57.5 -11.5q80 0 127 45t47 123v709q0 39 -9 51t-52 12q-86 0 -134.5 -46t-48.5 -130v-708zM510 1561h80l-39 122zM625 1894l112 -333h49 l-112 333h-49z" />
<glyph unicode="&#xf5;" horiz-adv-x="1101" d="M88 0zM88 391v709q0 92 29.5 169t83.5 136l-31 31v379q49 29 103.5 44t111.5 15q51 0 96 -14.5t87 -33t79 -32.5t74 -14q39 0 87 40t112 128l116 -113v-381q-53 -29 -118 -49q109 -111 155.5 -215.5t46.5 -202.5v-708q0 -98 -35.5 -181.5t-97 -143.5t-145.5 -93t-178 -33 q-98 0 -189.5 45t-208.5 143q-78 68 -128 162t-50 213zM125 391q0 -92 34 -169t91 -133t135 -87t166 -31t166 31t135 87t91 133t34 169v709q0 92 -34 170t-91 133t-135 86t-166 31t-166 -31t-135 -86t-91 -133t-34 -170v-709zM166 391v709q0 86 32.5 155.5t87 118.5t123 76 t142.5 27t142.5 -27t121.5 -76t86 -118.5t33 -155.5v-709q0 -84 -33 -153.5t-86 -118.5t-121.5 -76t-142.5 -27t-142.5 27t-123 76t-87 118.5t-32.5 153.5zM209 1534q35 53 78 77.5t92 24.5q41 0 81 -15t81 -32.5t84 -33t92 -15.5q51 0 95 12.5t81 32.5v49q-37 -23 -79 -37 t-89 -14q-49 0 -92 15.5t-85 33t-83 32.5t-88 15q-51 0 -92 -24.5t-76 -65.5v-55zM209 1640q35 35 83 55.5t101 20.5q43 0 81 -14t77 -32.5t78 -33t84 -14.5q53 0 97 13.5t83 43.5v60q-35 -35 -84 -56.5t-102 -21.5q-41 0 -79 15.5t-76 32.5t-79 32.5t-86 15.5 q-106 0 -178 -59v-58zM209 1743q35 23 77 38t89 15q49 0 92 -15.5t84 -33.5t83 -33.5t89 -15.5q51 0 93 24.5t77 65.5v57q-72 -104 -172 -104q-43 0 -82 15.5t-79 32.5t-83 32.5t-92 15.5q-102 0 -176 -45v-49zM211 391q0 -74 28.5 -135t75.5 -105.5t108.5 -69t127.5 -24.5 t127 24.5t108.5 69t76 105.5t28.5 135v709q0 76 -28.5 137t-76 105t-109 69t-126.5 25q-66 0 -127.5 -25t-108.5 -69t-75.5 -105t-28.5 -137v-709zM254 391v709q0 66 22.5 120t61.5 92t93 59.5t120 21.5q63 0 118.5 -21.5t94.5 -59.5t61.5 -92.5t22.5 -119.5v-709 q0 -63 -22.5 -116.5t-61.5 -92.5t-94.5 -60.5t-118.5 -21.5q-66 0 -120 21.5t-93 60.5t-61.5 92.5t-22.5 116.5zM297 391q0 -57 20.5 -103t55.5 -78t81 -49.5t97 -17.5t97 17.5t81 49.5t56.5 78t21.5 103v709q0 57 -21.5 104t-56.5 79t-81 49.5t-97 17.5t-97 -17.5 t-81 -49.5t-55.5 -79t-20.5 -104v-709zM338 391v709q0 98 57.5 153.5t155.5 55.5t155.5 -55.5t57.5 -153.5v-709q0 -98 -57.5 -151.5t-155.5 -53.5t-155.5 53.5t-57.5 151.5zM481 279q0 -33 12.5 -44.5t57.5 -11.5q80 0 127 45t47 123v709q0 39 -9 51t-52 12 q-86 0 -134.5 -46t-48.5 -130v-708z" />
<glyph unicode="&#xf6;" horiz-adv-x="1101" d="M88 0zM88 391v709q0 139 65.5 242.5t170.5 160.5l-80 74q-29 23 -47.5 52.5t-18.5 70.5q0 61 39 106t105 45q41 0 71.5 -21.5t59.5 -49.5l82 -86q41 -41 40 -101q0 -20 -6 -34q109 -6 203 -50l-74 68q-29 25 -48 54.5t-19 74.5q0 59 42 102t103 43q41 0 72 -21.5 t57 -49.5l82 -86q43 -43 43 -101q0 -59 -42 -99t-99 -40q-20 0 -31 2q61 -45 109.5 -102.5t82 -118.5t52 -126t18.5 -122v-708q0 -98 -35.5 -181.5t-97 -143.5t-145.5 -93t-178 -33q-98 0 -189.5 45t-208.5 143q-78 68 -128 162t-50 213zM125 391q0 -92 34 -169t91 -133 t135 -87t166 -31t166 31t135 87t91 133t34 169v709q0 92 -34 170t-91 133t-135 86t-166 31t-166 -31t-135 -86t-91 -133t-34 -170v-709zM166 391v709q0 86 32.5 155.5t87 118.5t123 76t142.5 27t142.5 -27t121.5 -76t86 -118.5t33 -155.5v-709q0 -84 -33 -153.5t-86 -118.5 t-121.5 -76t-142.5 -27t-142.5 27t-123 76t-87 118.5t-32.5 153.5zM211 391q0 -74 28.5 -135t75.5 -105.5t108.5 -69t127.5 -24.5t127 24.5t108.5 69t76 105.5t28.5 135v709q0 76 -28.5 137t-76 105t-109 69t-126.5 25q-66 0 -127.5 -25t-108.5 -69t-75.5 -105t-28.5 -137 v-709zM215 1706q0 -45 30.5 -76t76.5 -31q47 0 78.5 31t31.5 76t-31.5 77t-78.5 32q-45 0 -76 -32t-31 -77zM254 391v709q0 66 22.5 120t61.5 92t93 59.5t120 21.5q63 0 118.5 -21.5t94.5 -59.5t61.5 -92.5t22.5 -119.5v-709q0 -63 -22.5 -116.5t-61.5 -92.5t-94.5 -60.5 t-118.5 -21.5q-66 0 -120 21.5t-93 60.5t-61.5 92.5t-22.5 116.5zM258 1706q0 29 18.5 47.5t45.5 18.5q29 0 47 -18.5t18 -47.5q0 -27 -18.5 -45.5t-46.5 -18.5q-27 0 -45.5 18.5t-18.5 45.5zM297 391q0 -57 20.5 -103t55.5 -78t81 -49.5t97 -17.5t97 17.5t81 49.5t56.5 78 t21.5 103v709q0 57 -21.5 104t-56.5 79t-81 49.5t-97 17.5t-97 -17.5t-81 -49.5t-55.5 -79t-20.5 -104v-709zM297 1706q0 -25 25 -25q27 0 26 25q0 10 -7 19.5t-19 9.5q-10 0 -17.5 -9.5t-7.5 -19.5zM338 391v709q0 98 57.5 153.5t155.5 55.5t155.5 -55.5t57.5 -153.5v-709 q0 -98 -57.5 -151.5t-155.5 -53.5t-155.5 53.5t-57.5 151.5zM481 279q0 -33 12.5 -44.5t57.5 -11.5q80 0 127 45t47 123v709q0 39 -9 51t-52 12q-86 0 -134.5 -46t-48.5 -130v-708zM670 1706q0 -45 30.5 -76t75.5 -31t77 31t32 76t-32 77t-77 32t-75.5 -32t-30.5 -77z M713 1706q0 29 18.5 47.5t44.5 18.5q29 0 47.5 -18.5t18.5 -47.5q0 -27 -18.5 -45.5t-47.5 -18.5q-27 0 -45 18.5t-18 45.5zM752 1706q0 -10 7 -17.5t17 -7.5q27 0 27 25q0 10 -8.5 19.5t-18.5 9.5t-17 -9.5t-7 -19.5z" />
<glyph unicode="&#xf7;" horiz-adv-x="964" d="M102 66zM102 623v286h760l107 -118v-275h-748zM141 659h684v41h-684v-41zM141 741h684v45h-684v-45zM141 829h684v43h-684v-43zM335 315q0 61 42 104.5t104 43.5q76 0 131 -66l80 -94q41 -47 41 -100q0 -59 -41 -98t-99 -39q-29 0 -54 11t-46 28l-92 79 q-29 25 -47.5 57.5t-18.5 73.5zM335 1214q0 61 42 104.5t104 43.5q76 0 131 -66l80 -94q41 -47 41 -100q0 -59 -41 -98t-99 -39q-29 0 -54 11t-46 28l-92 79q-29 25 -47.5 57.5t-18.5 73.5zM374 315q0 -45 31 -75.5t76 -30.5t76.5 30.5t31.5 75.5t-31.5 77t-76.5 32t-76 -32 t-31 -77zM374 1214q0 -45 31 -75.5t76 -30.5t76.5 30.5t31.5 75.5t-31.5 77t-76.5 32t-76 -32t-31 -77zM417 315q0 29 17.5 47.5t46.5 18.5q27 0 46 -18.5t19 -47.5q0 -27 -19.5 -45t-45.5 -18q-29 0 -46.5 18t-17.5 45zM417 1214q0 29 17.5 47.5t46.5 18.5q27 0 46 -18.5 t19 -47.5q0 -27 -19.5 -45t-45.5 -18q-29 0 -46.5 18t-17.5 45zM454 315q0 -25 27 -24q27 0 26 24q0 10 -8 19.5t-18 9.5t-18.5 -9.5t-8.5 -19.5zM454 1214q0 -25 27 -24q27 0 26 24q0 10 -8 19.5t-18 9.5t-18.5 -9.5t-8.5 -19.5z" />
<glyph unicode="&#xf8;" horiz-adv-x="1130" d="M102 0zM102 391v709q0 100 36 185t99.5 145.5t147.5 94.5t180 34q84 0 152 -21l37 84h278l107 -119l-90 -252q39 -53 62.5 -119.5t23.5 -144.5v-708q0 -98 -36 -181.5t-97.5 -143.5t-145.5 -93t-178 -33q-29 0 -56.5 4t-56.5 8q-6 -18 -14 -39.5t-12 -33.5h-275l-121 106 l70 209q-53 61 -82 139t-29 170zM141 391q0 -92 31 -168t86 -131l-61 -182h41l67 203q-66 66 -94.5 133t-28.5 145v709q0 86 33 155.5t86 118.5t122 76t142 27q47 0 94.5 -11.5t96.5 -38.5l53 156h-31l-41 -94q-80 31 -172 31q-88 0 -165.5 -31t-135 -86t-90.5 -133 t-33 -170v-709zM225 391q0 -86 35 -151.5t92 -110.5l-76 -219h46l67 194q41 -23 85 -35t91 -12q66 0 127.5 24.5t108.5 69t75.5 105.5t28.5 135v709q0 72 -26.5 131t-69.5 104l86 248h-43l-76 -221q-92 74 -211 74q-66 0 -127 -25t-108 -69t-76 -105t-29 -137v-709zM270 391 v709q0 66 21.5 120t61.5 92t93.5 59.5t118.5 21.5q119 0 199 -68l-397 -1157q-96 80 -97 223zM311 391q0 -35 9.5 -65.5t31.5 -77.5l363 1057q-76 45 -150 45q-49 0 -95 -17.5t-82 -49.5t-56.5 -79t-20.5 -104v-709zM352 360v740q0 98 57.5 153.5t155.5 55.5q29 0 53.5 -5.5 t47.5 -15.5zM365 -90h38l29 80q33 -8 65.5 -13.5t67.5 -5.5q88 0 166 31t135.5 87t90 133t32.5 169v709q0 78 -24.5 143.5t-65.5 118.5l80 221h-43l-80 -231q41 -59 66.5 -113.5t25.5 -138.5v-709q0 -84 -32.5 -153.5t-86 -118.5t-122 -76t-142.5 -27q-35 0 -70.5 6.5 t-84.5 22.5zM401 143l394 1151q68 -80 67 -194v-709q0 -63 -21.5 -116.5t-61.5 -92.5t-94 -60.5t-120 -21.5q-94 0 -164 43zM453 166q23 -10 53 -16.5t59 -6.5q49 0 95.5 17.5t82 49.5t56 78t20.5 103v709q0 31 -5 56.5t-9 47.5zM498 901l80 240q-80 -41 -80 -154v-86z M500 190l278 818v-617q0 -98 -57 -151.5t-156 -53.5h-33.5t-31.5 4z" />
<glyph unicode="&#xf9;" d="M96 0zM96 391v1141h287l106 -119v-1134q0 -39 11.5 -47.5t58.5 -8.5q80 0 127 45t47 123v1026h-182l-117 107l-147 409h286l109 -118l102 -283h238l106 -119v-1134q0 -98 -35.5 -181.5t-98 -143.5t-145.5 -93t-177 -33q-190 0 -367 158q-104 90 -156.5 188t-52.5 217z M133 391q0 -92 33 -169t91 -133t135 -87t167 -31q88 0 166 31t135.5 87t91 133t33.5 169v1104h-45v-1104q0 -84 -33 -153.5t-86 -118.5t-121.5 -76t-140.5 -27q-74 0 -142.5 27t-122.5 76t-87 118.5t-33 153.5v1104h-41v-1104zM217 391q0 -74 28.5 -135t77 -105.5t110 -69 t126.5 -24.5q66 0 126 24.5t107.5 69t76 105.5t28.5 135v1104h-43v-1104q0 -63 -21.5 -116.5t-61.5 -92.5t-94 -60.5t-118 -21.5q-66 0 -120 21.5t-93 60.5t-61.5 92.5t-22.5 116.5v1104h-45v-1104zM303 391q0 -57 20.5 -103t56.5 -78t82 -49.5t97 -17.5q49 0 95 17.5 t81 49.5t55.5 78t20.5 103v1104h-41v-1104q0 -98 -56.5 -151.5t-154.5 -53.5t-156.5 53.5t-58.5 151.5v1104h-41v-1104zM340 1894l121 -333h39l-119 333h-41zM422 1894l121 -333h43l-121 333h-43zM506 1894l121 -333h41l-121 333h-41z" />
<glyph unicode="&#xfa;" d="M96 0zM96 391v1141h287l106 -119v-1134q0 -39 11.5 -47.5t58.5 -8.5q80 0 127 45t47 123v1026h-217l-113 123l140 393h286l105 -118l-105 -283h193l106 -119v-1134q0 -98 -35.5 -181.5t-98 -143.5t-145.5 -93t-177 -33q-190 0 -367 158q-104 90 -156.5 188t-52.5 217z M133 391q0 -92 33 -169t91 -133t135 -87t167 -31q88 0 166 31t135.5 87t91 133t33.5 169v1104h-45v-1104q0 -84 -33 -153.5t-86 -118.5t-121.5 -76t-140.5 -27q-74 0 -142.5 27t-122.5 76t-87 118.5t-33 153.5v1104h-41v-1104zM217 391q0 -74 28.5 -135t77 -105.5t110 -69 t126.5 -24.5q66 0 126 24.5t107.5 69t76 105.5t28.5 135v1104h-43v-1104q0 -63 -21.5 -116.5t-61.5 -92.5t-94 -60.5t-118 -21.5q-66 0 -120 21.5t-93 60.5t-61.5 92.5t-22.5 116.5v1104h-45v-1104zM303 391q0 -57 20.5 -103t56.5 -78t82 -49.5t97 -17.5q49 0 95 17.5 t81 49.5t55.5 78t20.5 103v1104h-41v-1104q0 -98 -56.5 -151.5t-154.5 -53.5t-156.5 53.5t-58.5 151.5v1104h-41v-1104zM449 1561h40l119 333h-41zM528 1561h45l121 333h-43zM614 1561h39l123 333h-41z" />
</font>
</defs>
</svg>
